<?xml version="1.0" encoding="utf-8"?>
<!-- Generator: Adobe Illustrator 27.4.1, SVG Export Plug-In . SVG Version: 6.00 Build 0)  -->
<svg version="1.1" id="Calque_1" xmlns="http://www.w3.org/2000/svg" xmlns:xlink="http://www.w3.org/1999/xlink" x="0px" y="0px"
	 viewBox="0 0 1000 1000" style="enable-background:new 0 0 1000 1000;" xml:space="preserve">
<style type="text/css">
	.st0{fill:#EBBF36;}
	.st1{fill:#2E1F13;}
	.st2{fill:#FFFFFF;}
	.st3{fill:#373935;}
	.st4{fill:#363630;}
	.st5{fill:#373934;}
	.st6{fill:#161013;}
	.st7{fill:#912025;}
	.st8{fill:#635A4B;}
	.st9{fill:#76C5CB;}
	.st10{fill:none;stroke:#000000;stroke-miterlimit:10;}
	.st11{fill:#625E45;}
	.st12{fill:#F8D33A;}
	.st13{fill:#EBE5D9;}
	.st14{fill:#131414;}
	.st15{fill:#141514;}
	.st16{fill:#E1B531;}
	.st17{fill:#8F1D1A;}
	.st18{fill:#695F4E;}
	.st19{fill:#90D1E1;}
</style>
<g>
	<polygon class="st0" points="266,319.7 678.1,330.4 632,842.9 512.9,921.6 388.4,743 	"/>
	
		<rect x="506.2" y="183.4" transform="matrix(6.283747e-02 -0.998 0.998 6.283747e-02 414.5127 812.6894)" class="st1" width="267.5" height="4.5"/>
	<polygon class="st2" points="397.3,516.8 325.3,516.8 299.8,426.1 375.7,431.8 384.5,466.6 	"/>
	<path class="st3" d="M464.2,561.2l-49.5,0.8l-17.4-45.2l-12.7-50.2c0.8-6.2,2.8-14.3,7.8-11.9c7.9,3.8,13.2,12.9,18.5,13.6
		c5.3,0.8,20.4-0.4,23.8-1.9s10.2-13.2,17.8-7.5c7.6,5.7,8.3,38.9,8.3,38.9L464.2,561.2z"/>
	<path class="st2" d="M661.2,443.2l-4.3,19.8c0,0-5.6,31.8-12,69.2h-0.5l-173.5-11.3l-5.1-91.3L661.2,443.2z"/>
	<path class="st2" d="M785.1,454.5l-19.3,74.8l-19.7,0.5c-0.1-2.3-0.2-4.8-0.3-7.5c0,0-10.9-4.1-2.1-21.9c7.2-14.6,2-33.8-5.8-45.1
		L785.1,454.5z"/>
	<path class="st4" d="M457.7,314.1l-6.4,15.5c0,0-4.9,0-12.3-0.1c-5,0-11.3,0-17.9-0.1c-3.5,0-7.2,0-10.9,0c-9,0-18.2-0.1-25.7-0.1
		c-10,0-17.1-0.1-17.5-0.1l-20.7-31.8h83.9L457.7,314.1z"/>
	<path class="st5" d="M812.3,435.4l-51-7.9l-27.5-25L677,350.8l1.1-20.4l59.7,14.4c0,0,76.7,68,85.8,80.9
		C832.7,438.4,812.3,435.4,812.3,435.4z"/>
	<path class="st6" d="M733.7,402.4l-0.5,11.4l-4.9-0.8c0,0-2.3-10.6-28.4-11c0,0-3.4-21.9-26.1-18.1l3-33.3L733.7,402.4z"/>
	<path class="st7" d="M457,348.1l-2.3,60.1c0,0-8.2,54.2-61.1,13.2c-0.3-0.2-0.6-0.5-0.9-0.7c0,0,48.4,3.8,49.1-42.3
		c0.4-27.9-17.5-42.1-31.7-48.9c3.7,0,7.3,0,10.9,0c6.6,0,12.9,0.1,17.9,0.1L457,348.1z"/>
	<path class="st8" d="M410.2,329.4c-9,0-18.2-0.1-25.7-0.1c-45.1,23.8-31.5,62.6-25.2,74.8c5.1,10,24,15.2,34.3,17.3
		c-0.3-0.2-0.6-0.5-0.9-0.7c0,0,48.4,3.8,49.1-42.3C442.3,350.4,424.4,336.2,410.2,329.4z M403.3,405.5c0,0-13.6,18.9-34-4.5
		c0,0-10.2-12.8-4.2-38.9c0.5-2.1,20.4-42,42.3-14.7C429.4,374.5,403.3,405.5,403.3,405.5z"/>
	<path class="st9" d="M403.3,405.5c0,0-13.6,18.9-34-4.5c0,0-10.2-12.8-4.2-38.9c0.5-2.1,20.4-42,42.3-14.7
		C429.4,374.5,403.3,405.5,403.3,405.5z"/>
	<path class="st10" d="M705.1,683.5l-19.4-1.8c-0.2,1.8-0.4,3.5-0.7,5.2c9-0.8,16.5-1.1,17.8-1.1
		C705.9,685.8,705.1,683.5,705.1,683.5z M689.7,650.7c-0.4,3-0.8,5.9-1.1,8.7l17.4,2C701.1,656.5,695.5,653.1,689.7,650.7z
		 M706.2,530.7l0.7,4.3c0.3-1.5,0.5-2.9,0.8-4.4L706.2,530.7z"/>
	<path class="st11" d="M756.3,666.9c-5.3-20.2-24.2-59.2-13.6-109.8c0,0,4.1-3.8,3.4-27.3c-0.1-2.3-0.2-4.8-0.3-7.5
		c0,0-10.9-4.1-2.1-21.9c7.2-14.6,2-33.8-5.8-45.1c-1.7-2.5-3.6-4.6-5.5-6.2c-10.5-8.8-2.5-12.2-2.5-12.2s2.5-1.7,3.1-5.5
		s0.4-17.6,0.4-17.6l-4.9-0.8c0,0-2.3-10.6-28.4-11c0,0-3.4-21.9-26.1-18.1l-12.8,59.2l-4.3,19.8l3.4,3c0,0,16.6,6.8,33.6-9.8
		l12.2,74.5h1.5c-0.3,1.5-0.5,2.9-0.8,4.4l0,0l19.8,120.7c0,0,4,7.1-12.8-0.6c-6.5-3-14.5-6.9-23.5-10.2c-14-5.3-30.2-9.3-46.3-6.5
		c0,0-14.2,4-17.9,8.2s-11.6-4-11.6-4s-22.7,1.1-23,13.6l-9.1,1.1c0,0-6.2,2.8-4.5-10.8l-9.4-1.1c0,0-2.6,12.8,4.8,18.9l-9.6-0.2
		c0,0,0-16.1-11.9-35.1l-49.5-1l-20-0.4H469v34.9c0,0,43.4,11.3,51,14.7c0,0,0.2-0.1,0.6-0.3c1.3-0.6,4.6-1.6,7.9,0.6
		c4.2,2.8,14.5,14,17.6,4.1s6.7-6.4,8.8-5.1c2.1,1.3,9.2,1.5,9.2,1.5v-5.1c0,0,4.7-0.8,9.1,1.9c4.3,2.6,9.4,3,9.4,3l-0.2-11.5
		l9.6,0.6c0,0-5.3,17,26.8,15.3c0,0,0.8,1.5,2.4,3.7c4.2,5.8,13.8,16.7,28.8,18.7c0,0,7.2-11.5,33.3-12.5c0.3,0,0.6,0,0.9,0
		c26-1,60.2-3.9,60.2-3.9S761.6,687.1,756.3,666.9z M702.8,685.8c-1.2,0-8.7,0.2-17.8,1.1c-13.2,1.2-29.8,3.8-35,8.9
		c0,0-12.9,1.1-25.8-19.9l61.4,5.8l19.4,1.8C705.1,683.5,705.9,685.8,702.8,685.8z M688.6,659.4l-59.7-6.8c0,0,33.5-12.9,60.8-1.9
		c5.8,2.4,11.4,5.8,16.3,10.7L688.6,659.4z M727.5,460.2c26.1,21.8,6.2,47.6,6.2,47.6L727.5,460.2z"/>
	<path class="st12" d="M706,661.4l-17.4-2c0.4-2.8,0.7-5.7,1.1-8.7C695.5,653.1,701.1,656.5,706,661.4z"/>
	<path class="st12" d="M702.8,685.8c-1.2,0-8.7,0.2-17.8,1.1c0.2-1.7,0.4-3.4,0.7-5.2l19.4,1.8C705.1,683.5,705.9,685.8,702.8,685.8
		z"/>
	<path class="st13" d="M733.7,507.8l-6.2-47.6C753.6,482,733.7,507.8,733.7,507.8z"/>
	<path class="st14" d="M685.7,681.7c-0.2,1.8-0.4,3.5-0.7,5.2c-13.2,1.2-29.8,3.8-35,8.9c0,0-12.9,1.1-25.8-19.9L685.7,681.7z"/>
	<path class="st15" d="M689.7,650.7c-0.4,3-0.8,5.9-1.1,8.7l-59.7-6.8C628.9,652.6,662.4,639.7,689.7,650.7z"/>
	<path class="st14" d="M684.4,692.2c-1.6,13.3-2.6,21.4-2.6,21.4l-62-0.4c-0.2-8.3,0.5-17.5,1.6-27.2c4.2,5.8,13.8,16.7,28.8,18.7
		c0,0,7.2-11.5,33.3-12.5C683.9,692.2,684.1,692.2,684.4,692.2z"/>
	<path class="st14" d="M706.9,535.1L706.9,535.1c-6,34.2-11.9,75.6-16.4,109.9c-14-5.3-30.2-9.3-46.3-6.5c0,0-14.2,4-17.9,8.2
		c1.5-13.6,10.7-68.3,18.6-114.5c6.4-37.4,12-69.2,12-69.2l3.4,3c0,0,16.6,6.8,33.6-9.8l12.2,74.5L706.9,535.1z"/>
	<path class="st10" d="M707.7,530.7c-0.3,1.5-0.5,2.9-0.8,4.4l-0.7-4.3L707.7,530.7z"/>
	<path class="st11" d="M346.2,600.2l0.2,0.6l10.6,34c0,0-3.7,5.4-11.1,3.7c0,0,2,17-22.1,15.3c0,0-13.3,4.8-20.7,13.9
		s-25.5,26.1-29.2,32.6c0,0-10.2,2-15.3,1.1c0,0-2,7.4-13.3,4.5c0,0-5.4-2.4-8.9-5s-5.7,4.1-5.7,4.1s-12.2,11.1-12.2,17.2
		s-9.8,16.3-9.8,16.3l-41.6,19.9c0,0-6.2-7.7,0.4-12.5c6.6-4.7,15.9-9.3,15.9-9.3s0.2-8.1-6.6-3.4c-6.8,4.7-37.6,20.8-37.6,20.8
		s-5.9-1.9-1.3-9.4c4.5-7.6,62-52.9,62-52.9s9.3-4.2,7,7l-0.6,7.7c0,0,4.5-0.6,6.6-4.5s22.1-28.2,31.2-30.8l12.3,0.4
		c0,0,11.7-20,34.2-33.3c0,0,13.6-7.2,24.4-7.2c0,0,2.8-6.6,8.3-8.7s9.1-0.8,9.1-0.8L346.2,600.2z"/>
	<path class="st0" d="M271.8,666.5c-0.4,1,43.7-26.6,43.7-26.6s1.9-3.8-2.8-3.8s-11.1-0.4-11.1-0.4S277.6,652.7,271.8,666.5z"/>
	<path class="st0" d="M265.6,685.6c0,0.6-0.4,11.3-0.4,11.3s4.3,1.3,6.4-0.6c2.1-1.9,18.5-20.2,18.5-20.2s5.1-8.3-3.8-3.2
		C277.5,678,265.6,685.6,265.6,685.6z"/>
	<path class="st10" d="M659.9,863.6"/>
	<path class="st3" d="M692.4,713.3l-10.5,0.3l-62-0.4c0,0-16.5,0.1-17.7,21.1c-1.1,21-24.7,113.9-24.7,113.9s7.2-7.6,13.2-5.3
		s12.9,14,24.6,10.2c11.3-3.7,16.3-9.8,16.6-10.2c-0.2,1.3-7.2,43.9-29.5,49.1c-22.7,5.3-29.9-9.1-29.9-9.1s-11.3-13.2-12.5-34.4
		l-8.4-0.6c0,0-5.1-44.2-9.6-84.8c0,0-4-11.6-7.9-13.3c-3.3-1.4-10.4-49.6-13.3-72.9c-0.4,0.2-0.6,0.3-0.6,0.3
		c-7.7-3.4-51-14.7-51-14.7v-6l-69.7-5.4l5.1-43.4l65.5,3.1c0,0,14.5,0.8,13.3,16.7h-0.8l20,0.4l-13.4-32.2l-91.8-6.7
		c0,0-11,66.1-9.1,83.5c0,0,11,54.4,10.6,59c-0.4,4.5-9.8,18.1-9.5,23.4s12.9,55.2,12.9,55.2s15.1,26.1,34.4,1.9l-1.5-38.9l17.8,1.1
		c0,0-10.6,33.3-11.7,50.3c0,0,1.5,155.9,155.1,117.4c0,0,69.2-21.6,68-131.5V805l15,3.1c0,0,8.8-57.5,15-70
		C700.6,725.7,692.4,713.3,692.4,713.3z M406.1,722.4l-2.6-34.2l104.1,8.3l4.5,40.8L406.1,722.4z M661.5,782.2l-15.3-39.1l19.3,1.7
		L661.5,782.2z"/>
	<polygon class="st16" points="665.4,744.7 661.5,782.2 646.1,743 	"/>
	<path class="st8" d="M632,842.9c-0.2,1.3-7.2,43.9-29.5,49.1c-22.7,5.3-29.9-9.1-29.9-9.1s-11.3-13.2-12.5-34.4l17.4-0.4
		c0,0,7.2-7.6,13.2-5.3s12.9,14,24.6,10.2C626.7,849.4,631.7,843.2,632,842.9z"/>
	<path class="st17" d="M483.4,627.7h-14.2v28.9l-69.7-5.4l5.1-43.4l65.5,3.1C470.1,610.9,484.6,611.8,483.4,627.7z"/>
	<path class="st18" d="M507.6,696.6l-104.1-8.3l2.6,34.2l106,14.9L507.6,696.6z M501,719.8l-88.1-9.6l1.1-5.3l87.9,7.9L501,719.8z"
		/>
	<polygon class="st19" points="502,712.8 501,719.8 412.9,710.2 414.1,704.9 	"/>
</g>
</svg>
