<?xml version="1.0" encoding="utf-8"?>
<!-- Generator: Adobe Illustrator 27.1.1, SVG Export Plug-In . SVG Version: 6.00 Build 0)  -->
<svg version="1.1" xmlns="http://www.w3.org/2000/svg" xmlns:xlink="http://www.w3.org/1999/xlink" x="0px" y="0px"
	 viewBox="0 0 1000 1000" style="enable-background:new 0 0 1000 1000;" xml:space="preserve">
<style type="text/css">
	.st0{display:none;}
	.st1{fill:#37313F;}
	.st2{fill:#1A1525;}
	.st3{fill:none;stroke:#000000;stroke-miterlimit:10;}
	.st4{fill:#FFFFFF;}
	.st5{fill:#040506;}
	.st6{fill:#F3A76B;}
	.st7{fill:#885841;}
	.st8{fill:#8D5C45;}
	.st9{fill:#010202;}
	.st10{fill:#F39674;}
	.st11{fill:#94442A;}
	.st12{fill:#4F1113;}
	.st13{fill:#BD663F;}
	.st14{fill:#531216;}
	.st15{fill:none;}
</style>
<g id="Calque_1" class="st0">
	
		<image style="display:inline;overflow:visible;" width="1920" height="1080" xlink:href="../3627152-kawashima_8.png"  transform="matrix(0.9256 0 0 0.9256 -345.2215 0.1498)">
	</image>
</g>
<g id="Calque_2">
	<polygon class="st1" points="638.3,362.2 638.3,396.8 570.9,364.5 469.4,355.4 467.1,318.6 483,304.4 598.6,318.6 	"/>
	<polygon class="st2" points="397.9,317.4 395.1,353.2 303.8,358.3 270.8,379 260.4,385.5 267.5,356.4 282.2,338.1 305.7,308.8 
		392.3,302.1 	"/>
	<path class="st3" d="M595.2,463.1c-0.1,0-0.3-0.2-0.8-0.4l0-0.3C594.7,462.6,595,462.9,595.2,463.1z"/>
	<line class="st3" x1="333" y1="680.2" x2="332.9" y2="680.3"/>
	<path class="st4" d="M720.2,466.2l-93-20.5l-16-1.5l0.1-5.5l-33.6-28.9l-43-3.2l-51.8,0.6L448.2,433l-0.4,14.6
		c-20.4-11-54.2-3.4-54.2-3.4l0.8-13.6l-28.7-26.3l-45.5-6.4l-49.5,2.6l-6,5l-21.3,17.6l-2.9,2.4l-1.1,7.5h-10v9.1h8.7l-2.6,34.6
		l9.4,14.9l1,1.5l4.3,6.8l7.5,11.9l50.5,9.9l49.9-5.1l32.6-29.2l2.3-30.9c11-7.9,34.9-3.4,41.4-3.4c6.5,0,13.3,6.5,13.3,6.5
		l-2.8,29.8l26.4,32l53.6,11l53-5.4l30.3-29.8l2.3-39h15.9l94.9,22.3l20.2,4.8v-14.7L720.2,466.2z M376.4,480.1l-25.5,23.2
		l-39.1,5.4l-43.1-8.8l-16.3-18.3l-7-7.8l3.4-42.8l12.5-9.7v0l12.4-9.6l40.8-2.3l41.7,5.1l23.8,20.7L376.4,480.1z M595.2,463.1
		c-0.1,0-0.3-0.2-0.8-0.4l-1.2,26.5L569.7,515l-46.8,3.1l-43.4-9.4l-23-26.4l2.8-42.2l26.9-21l43.1-2l44.5,3.1l21.3,23l-0.8,19.1
		C594.7,462.6,595,462.9,595.2,463.1z"/>
	<path class="st3" d="M595.2,463.1c-0.1,0-0.3-0.2-0.8-0.4l0-0.3C594.7,462.6,595,462.9,595.2,463.1z"/>
	<path class="st5" d="M261.3,421.5c-1.1,6-2.1,11.8-2.9,17.3c-2.5,17.3-4.5,31.5-6.1,42.9l-7-7.8l3.4-42.8L261.3,421.5z"/>
	<path class="st6" d="M356.3,414.7l-41.7-5.1l-40.8,2.3l-12.4,9.6v0c-1.1,6-2.1,11.8-2.9,17.3c-2.5,17.3-4.5,31.5-6.1,42.9
		l16.3,18.3l43.1,8.8l39.1-5.4l25.5-23.2l3.7-44.8L356.3,414.7z M375.3,451.9c-0.2-0.1-0.4-0.2-0.6-0.4c-1.4-0.8-3.1-1.9-5.1-3
		c-0.4-0.2-0.7-0.4-1.1-0.6c-0.3-0.1-0.5-0.3-0.8-0.4c-0.3-0.2-0.6-0.3-0.9-0.5c-0.6-0.3-1.2-0.6-1.8-1c-0.2-0.1-0.4-0.2-0.6-0.3
		c-4.6-2.4-9.5-4.8-13.2-6.1c-0.1-0.1-0.3-0.1-0.4-0.1c-0.1,0-0.1,0-0.2,0c-0.3-0.1-0.6-0.2-0.9-0.3c-1.2-0.3-2.2-0.5-3-0.4
		c-6.7,0.4-40.8,1-47.2,7.9l-14.3,11.8l-1.5-6.6l-0.4-0.9c0,0,24.4-21.8,65.2-17.3l28.7,19.5C376.9,452.9,376.2,452.5,375.3,451.9z"
		/>
	<path class="st7" d="M377.5,453.3c-2-1.2-24.4-14.9-30.8-14.5c-6.7,0.4-40.8,1-47.2,7.9l-14.3,11.8l-1.5-6.6l-0.4-0.9
		c0,0,24.4-21.8,65.2-17.3L377.5,453.3z"/>
	<path class="st6" d="M521.5,438.8c-6.7,0-31,18.7-31.7,19.3l26.1-12.5c45.5,1,73.4,14.5,78.5,17.1l-1.2,26.5L569.7,515l-46.8,3.1
		l-43.4-9.4l-23-26.4l2.8-42.2l26.9-21l43.1-2l44.5,3.1l21.3,23l-0.8,19.1C575.7,445.4,528.2,438.8,521.5,438.8z"/>
	<path class="st8" d="M594.4,462.4l0,0.3c-5.1-2.7-33.1-16.1-78.5-17.1L489.8,458c0.8-0.6,25-19.3,31.7-19.3
		C528.2,438.8,575.7,445.4,594.4,462.4z"/>
	<path class="st6" d="M719.4,442.2l-0.3-34.9L665,307.2l-21.3-68.9c0,0-42.2-50.5-47.3-51.3s-13.3-11.9-57.5-14.2
		c-44.2-2.3-72-9.4-126.1,0c-54.2,9.4-72.9,26.4-93,65.5c-10.9,21.2-25.2,59.1-37.5,99.8l23.5-29.4l86.6-6.6l5.7,15.3l-2.8,35.7
		l-91.3,5.1l-33,20.7c-2.3,9-4.4,17.9-6.2,26.6l6-5l49.5-2.6l45.5,6.4l28.7,26.3l-0.8,13.6c0,0,33.8-7.5,54.2,3.4l0.4-14.6
		l34.8-25.8l51.8-0.6l43,3.2l33.6,28.9l-0.1,5.5l16,1.5l93,20.5L719.4,442.2z M638.3,396.8l-67.5-32.3l-101.5-9.1l-2.3-36.9
		l15.9-14.2l115.7,14.2l39.7,43.7V396.8z"/>
	<path class="st5" d="M844.3,516.4l-11.5-27.4l-36.3-3.7c0,0-23.5,14.5-24.7,22.4c-1.1,7.9-18.7,52.7-20.4,55
		c-1.7,2.3-26.6,34.9-26.6,34.9l-4.1-116.7l20.2,4.8v-14.7l-20.7-4.6l-0.8-24.1l-0.3-34.9L665,307.2l-21.3-68.9
		c0,0-42.2-50.5-47.3-51.3s-13.3-11.9-57.5-14.2c-44.2-2.3-72-9.4-126.1,0c-54.2,9.4-72.9,26.4-93,65.5
		c-10.9,21.2-25.2,59.1-37.5,99.8l-14.6,18.2l-7.2,29.1l10.4-6.5c-2.3,9-4.4,17.9-6.2,26.6l-21.3,17.6l-0.6-19.5
		c0,0,0.9-70.3,9.9-128.4c9.1-58.1,22.1-62.1,25.5-95.2l6.5-23.5c0,0,47.6-48.8,67.5-91.3l65.5-28.3c0,0,60.4-11.3,77.7-14.7
		l40.5,15l23.5,19c0,0,25.8-9.6,33.7-8.8c7.9,0.8,60.9,7.9,77.1,16.2c16.2,8.2,63.8,31.2,91.6,75.4c27.8,44.2,29.8,47.3,34.9,62.6
		c5.1,15.3,16.2,66.3,43.4,113.7c0,0,13.9,29.8,18.1,37.4C861.8,359.4,851.3,480.6,844.3,516.4z"/>
	<path class="st6" d="M333.5,680.4c-0.2,0-0.3-0.1-0.5-0.1l0.1,1.5l0.7,0L333.5,680.4z M333.5,680.4c-0.2,0-0.3-0.1-0.5-0.1l0.1,1.5
		l0.7,0L333.5,680.4z M333.5,680.4c-0.2,0-0.3-0.1-0.5-0.1l0.1,1.5l0.7,0L333.5,680.4z M333.5,680.4c-0.2,0-0.3-0.1-0.5-0.1l0.1,1.5
		l0.7,0L333.5,680.4z M333.5,680.4c-0.2,0-0.3-0.1-0.5-0.1l0.1,1.5l0.7,0L333.5,680.4z M333.5,680.4c-0.2,0-0.3-0.1-0.5-0.1l0.1,1.5
		l0.7,0L333.5,680.4z M333.5,680.4c-0.2,0-0.3-0.1-0.5-0.1l0.1,1.5l0.7,0L333.5,680.4z M333.5,680.4c-0.2,0-0.3-0.1-0.5-0.1l0.1,1.5
		l0.7,0L333.5,680.4z M844.3,516.4l-11.5-27.4l-36.3-3.7c0,0-23.5,14.5-24.7,22.4c-1.1,7.9-18.7,52.7-20.4,55
		c-1.7,2.3-26.6,34.9-26.6,34.9l-4.1-116.7l-94.9-22.3H610l-2.3,39l-30.3,29.8l-53,5.4l-53.6-11l-26.4-32l2.8-29.8
		c0,0-6.8-6.5-13.3-6.5c-6.5,0-30.3-4.5-41.4,3.4l-2.3,30.9l-32.6,29.2l-49.9,5.1l-50.5-9.9l-7.5-11.9c-2.4,17.8-3.3,24.4-3.3,24.4
		l-1-31.2l-1-1.5c0,0-4.4,16.5-4.6,37.7c-0.1,6,0.1,19.9,0.6,37.3c0.2,9.5,0.5,20,0.9,30.9c1.4,39.2,3.6,83.2,6.8,100.9
		c5.7,31.8,17,112.8,17,112.8l44.8,95.8l58.4,57.8l116.2,10.2l17.8,2.3l106.3-62.9l62.2-76l1.9-2.3l30.6-38.5
		c0,0,45.3-95.8,46.5-105.5c0,0,19.3-0.4,33.9-7.2c3.1-1.4,5.9-3.2,8.4-5.2c14.2-11.9,47-51.4,47-51.4s16.1-25.1,16.1-85.5
		L844.3,516.4z M421.2,582.8h17.6l14.7,18.7h-32.3V582.8z M364.5,579.9h9.6l18.4,21.5l-8.8-0.6l-19.3-1.4V579.9z M494.3,693.1
		l-6.4,97.9L427.8,847l-46.1-4.2l-54.4-63.5l5.5-96.4c0,0,0,0,0-0.1c0,0,0-0.1,0-0.1c0-0.1,0-0.2,0-0.3c0-0.1,0-0.2,0-0.4
		c0-0.1,0-0.2,0-0.3l0.1-1.5c0,0,0-0.2,0-0.5c0,0,0,0,0,0c0.2-4.6,3.2-41.1,51-40c51,1.1,79,17.4,79,17.4l16.6,8.7l13.1,22.9
		l1.9,0.8l-34,98.7L494.3,693.1z M333,680.3l0.1,1.5l0.7,0l-0.3-1.4C333.3,680.3,333.2,680.3,333,680.3z M333.5,680.4
		c-0.2,0-0.3-0.1-0.5-0.1l0.1,1.5l0.7,0L333.5,680.4z M333.5,680.4c-0.2,0-0.3-0.1-0.5-0.1l0.1,1.5l0.7,0L333.5,680.4z M333.5,680.4
		c-0.2,0-0.3-0.1-0.5-0.1l0.1,1.5l0.7,0L333.5,680.4z M333.5,680.4c-0.2,0-0.3-0.1-0.5-0.1l0.1,1.5l0.7,0L333.5,680.4z M333.5,680.4
		c-0.2,0-0.3-0.1-0.5-0.1l0.1,1.5l0.7,0L333.5,680.4z M333.5,680.4c-0.2,0-0.3-0.1-0.5-0.1l0.1,1.5l0.7,0L333.5,680.4z"/>
	<polygon class="st9" points="453.5,601.5 421.2,601.5 421.2,582.8 438.8,582.8 	"/>
	<polygon class="st9" points="392.6,601.5 383.8,600.8 364.5,599.5 364.5,579.9 374.1,579.9 	"/>
	<path class="st10" d="M492.7,688.8l-43.2-18.8c-3.3-2.1-42.4-3.8-52.4-3.8c-10.1,0-42.4-3.3-42.4-3.3L333,680.2l0-0.4c0,0,0,0,0,0
		c0.2-4.6,3.2-41.1,51-40c51,1.1,79,17.4,79,17.4l16.6,8.7L492.7,688.8z"/>
	<path class="st11" d="M492.8,689c0,0-2.5,0.1-7.1,0.2c-21.1,0.6-85.6,1.6-140.7-6.9c-3.9-0.6-7.8-1.3-11.6-2
		c-0.2,0-0.3-0.1-0.5-0.1v0l21.7-17.3c0,0,32.3,3.3,42.4,3.3c10.1,0,49.2,1.7,52.4,3.8l43.2,18.8L492.8,689z"/>
	<path class="st12" d="M485.7,689.2c4.6-0.1,7.1-0.2,7.1-0.2l-0.1-0.1l1.9,0.8L485.7,689.2z"/>
	<path class="st13" d="M494.3,693.1l-6.4,97.9L427.8,847l-46.1-4.2l-54.4-63.5l5.5-96.4c0,0,0,0,0-0.1c0,0,0-0.1,0-0.1
		c0-0.1,0-0.2,0-0.3c0-0.1,0-0.2,0-0.4c0-0.1,0-0.2,0-0.3c0-0.7,0.1-1.5,0.1-1.5l0.1,1.5l7,98.3l27.6,31.4l53.5,4.1l39.5-27.2
		L494.3,693.1z"/>
	<line class="st3" x1="240.5" y1="566.6" x2="240.4" y2="566.5"/>
	<path class="st5" d="M249.8,500c-2.4,17.8-3.3,24.4-3.3,24.4l-1-31.2L249.8,500z"/>
	<path class="st5" d="M784,684.9c-9.2,22.8-31,74.5-45.9,94C722,800,698.9,820.6,671,838.5l1.9-2.3l30.6-38.5
		c0,0,45.3-95.8,46.5-105.5C750,692.2,769.3,691.8,784,684.9z"/>
	<polygon class="st10" points="494.7,689.7 460.7,788.4 421.2,815.6 367.7,811.4 340.1,780.1 333.1,681.8 333.8,681.8 351.3,760.6 
		377.3,779.9 418.5,782.3 452.8,768.1 	"/>
	<path class="st14" d="M494.7,689.7l-41.9,78.5l-34.2,14.2l-41.2-2.5l-26.1-19.3l-17.5-78.8l-0.3-1.4c3.8,0.7,7.7,1.3,11.6,2
		c55,8.5,119.5,7.5,140.7,6.9L494.7,689.7z"/>
	<line class="st15" x1="340.1" y1="780.1" x2="332.8" y2="682.8"/>
	<line class="st15" x1="333.1" y1="681.8" x2="332.9" y2="681.7"/>
</g>
</svg>
