<?xml version="1.0" encoding="utf-8"?>
<!-- Generator: Adobe Illustrator 27.4.1, SVG Export Plug-In . SVG Version: 6.00 Build 0)  -->
<svg version="1.1" id="Calque_2_00000057846760991543036880000012473973483839817891_"
	 xmlns="http://www.w3.org/2000/svg" xmlns:xlink="http://www.w3.org/1999/xlink" x="0px" y="0px" viewBox="0 0 1000 1000"
	 style="enable-background:new 0 0 1000 1000;" xml:space="preserve">
<style type="text/css">
	.st0{fill:#FFFFFF;}
</style>
<path class="st0" d="M496.6,702.4l-6,176.3c0,0-0.9,13.9-3.7-2s-2-30.9-4-41.7s-4.8,7.9-4.8,7.9s-2.4,11.6-1.7,22
	c0,0-3.1,0.4-11.9-27.9c0,0-2.8-10.5-4.5,1.4s-3.1,36-3.4,42.2c0,0-33.9-18.2-37.8-26.6c0,0,1.1-8.7-2.2-13.4
	c-3.3-4.7-14.4-8.5-22.1-8.1s-13.8-5.1-13.8-5.1s-14.7-1.5-20.4-1.3c-5.7,0.2-28.9-15.1-33.3-25.1s-15.9-20.6-15.9-20.6
	s-8.5-18.9-5.5-29.1c3-10.2,21.5-17,21.5-17s23.6-5.3,124,4.3L496.6,702.4z"/>
<path class="st0" d="M525.3,684.8l5.7,139.1c0,0,9.4,2.5,10.7,14s0,40,0,40s4.7,2.8,8.8-7.7s15.3-47.8,24.9-61.5
	c0,0,9.3-24.1,18.7-33.5c0,0,12.9-17,16.6-19.5c3.8-2.5,8.9-0.9,12.3-4.5c3.4-3.6,15.5-14.6,15.7-17.6s1.3-9.3,3.6-9.4
	c2.3-0.2,11.9,0,11.9,0s4-8.1,7.9-11s7.4-11.3,27.4-16.8c0,0,2.8,0.2,6.6-4.7s2.5-9.1,6-9.8v-11.5c0,0,1.3-9.8,17.6-7
	c0,0,5.7,4.5,10.8-2.6c5.1-7.2,7.9-24.4,7.9-24.4l15.5-1.9c0,0,14.2-26.6,31.2-31.7c0,0,24.7-1.4,31.2-6.2s13.6-22.4,13.6-27.5
	s-29.5-95.2-29.5-95.2s-13-2-22.7,5.1c-9.6,7.1-85.9,96.1-85.9,96.1s-11.9,7.1-22.4,2s-16.7-4.4-16.7-4.4s-9.6,13-13.8,14.6
	c-4.2,1.5-16.3,2.1-16.3,2.1s2.3,10.2-3.1,13.6c-5.4,3.4-7.4,12.2-8.2,15.9c0,0-1.4,12.5-22.1,17.3c-20.7,4.8-17.6,7.7-17.6,7.7
	s0.3,4.3-3.4,4.5c-3.7,0.3-18.9,8.9-18.9,8.9l-1.8,12.6l-21.7,15L525.3,684.8z"/>
<path class="st0" d="M606.3,959.8L616.5,813h24.7c0,0,11.6-1,11.2-13.2c-0.4-12.2,5.2-20.8,5.2-20.8s8.1-10.8,22.1-5.4
	c0,0,13.7-9.2,12.5-16c-1.3-6.8,7.4,2.7,7.4,2.7l23.7,29.3c0,0,5.7,6.5,8.8-10.8s5.1-25.4,4.4-48.3c0,0,0-5.5,6.5-10.6
	s21.3-15.2,25.4-21.1s7.1-14.2,9.9-16.7s32.3-39.4,33.4-41.2s-2.6-3.7-3.1-9.8c-0.6-6.1-0.3-22.5-5-24.1s-15.2-0.7-19,3.5
	c-3.8,4.3-27,29.2-27,29.2s-4,2.6-13.2,1.1c0,0-4.1,3.4-5.8,10.6c-1.7,7.2-4,15.9-6.6,16.5s-9.6,1.8-13.2-0.9
	c-3.6-2.6-9.6,0.8-9.6,0.8s-4.3,9.8-3.1,16.4c0,0-3.4,3.5-4.9,4.4s-3.5,4.2-4.9,7.6c-1.4,3.4-5.7,4.1-14,6.4
	c-8.3,2.4-21.3,13.9-25.8,25.5l-12.3,0.2c0,0-3.4,9-8.3,14.5c-4.9,5.5-8.1,12.7-15.5,14.3s-8.5,0.8-8.8,0.8s-10.7,10.5-16.9,21.6
	s-11,13.5-9.6,24.7S606,959.8,606,959.8L606.3,959.8L606.3,959.8z"/>
<path class="st0" d="M521.7,601.1l3.6,58.2l17.8-17.2c0,0,7.6-1.5,14.6-0.8l9.3-11.1c0,0,28.3-4.5,34.8-14.9c0,0-0.8-16.8,3-23.2
	s27.4-14,35.9-28.7c0,0,2.3-7.2,18.3-0.4s33.3-0.2,33.3-0.2s74.1-89.7,103.4-104.1c0,0-0.6-16.7-27.1-14.6c0,0-14.6,10.5-23.1,21.4
	c0,0-5.6,5.2-21.6,5.2c0,0-18.1,18.3-36.4,20.8c-18.3,2.6-45.9,9.8-85.7-18.3c0,0-28.2-13.7-25.7-87.7c0,0,5.2-12.6,21.4-24.5
	c0,0,3.7-5.7,5.1-10.1c1.4-4.4,26.2-11.2,41.7-8.1c15.4,3.1,21.6,0.5,39.9,2.8c0,0,13.8,2.6,19,2.8c5.2,0.3,15.1-3.7,33.4,4.6
	c0,0,19.9-2.6,40.5,5.3c0,0,6.3,3.7,5.2-3.5s3.7-68.6,4.8-94.5s-2.3-42.1-2.3-42.1s-0.6-1.7,3.6-3.8c4.2-2.1-2.6-13-2.6-13
	s-6.8-23.6-10-27.6s-14-9.6-18.9-9.6s-56.3-28-71.8-33.6c-15.5-5.7-70.9-28-78.2-36.3c0,0-48,7.7-58,10.8s-17.9,4.6-24.9,67.8
	s-1,117-1,117l5.4,86.5c0,0,10-7.2,13.2-3.4c3.2,3.8-15.3,95.4-15.3,95.4s-1.5,18.1,27.8,53.7c0,0,19.9,44.1,10.7,70.6
	c0,0,0.4,10.5-17.3,7.8c-17.8-2.6-23.4-1.5-23.4-1.5S521.7,599.8,521.7,601.1z"/>
<path class="st0" d="M438.8,588.4c0,0,1.4,13.6,16.2,12.8c0,0,21.5-8.8,31.2-7.4c9.6,1.4,15.6,2.3,15.6,6.8s5.4,40.8,6.5,44.2
	s0.6,23.2-2.6,25.8c-3.1,2.6-8.2,1.1-9.4,5.1c-1.1,4-27.5,40-32.6,42.2c-5.1,2.3-156.8,4.3-156.8,4.3l-6.8-41.7
	c0,0-35.4-9.9-39.1-23.2s-3.4-15.6-3.4-15.6s-21.3-4.5-24.7-7.9s-47.3-31.7-49.9-50.2c-2.6-18.4,3.4-46.2,8.2-56.1
	c0,0,10.5-63.2,41.1-86.5c0,0,21.8,22.4,39.7,27.8c0,0,15.9,15.9,26.6,20.4c10.8,4.5,30.9,20.4,81.1-4.5c0,0,23.2-22.1,34-33.2
	s16.7-19.6,14.7-41.4s-41.7-40.8-41.7-40.8s-54.7-23-81.1-26.9c-26.4-4-64.1-0.6-76.3,24.9c0,0-4.5,8.2-6-17.3
	c-1.4-25.5,0-26.9,0-28.3s-4.3-5.4-5.1-11.9s3.1-82.5,12.8-99.5c9.6-17,24.9-42.5,64.6-59c0,0,53.5-39.7,104.1-48c0,0,10-6,29-0.8
	s33,3.5,33,3.5s5.5,11.6,2.6,30c0,0,6.1,39.3,17.3,66.8c0,0,4.9,23.4-2.3,157.6l-0.9,15c0,0-0.6,9.4-6.1,2.4s-2.6,16.3-2.6,16.3
	s5.7,31.7,15.9,71c0,0-1.1,22.7-28.3,61.6C457.7,526.8,440.3,557.8,438.8,588.4z"/>
</svg>
