<?xml version="1.0" encoding="utf-8"?>
<!-- Generator: Adobe Illustrator 27.1.1, SVG Export Plug-In . SVG Version: 6.00 Build 0)  -->
<svg version="1.1" xmlns="http://www.w3.org/2000/svg" xmlns:xlink="http://www.w3.org/1999/xlink" x="0px" y="0px"
	 viewBox="0 0 1000 1000" style="enable-background:new 0 0 1000 1000;" xml:space="preserve">
<style type="text/css">
	.st0{display:none;}
	.st1{fill:#422015;}
	.st2{fill:#5264A3;}
	.st3{fill:none;stroke:#000000;stroke-miterlimit:10;}
	.st4{fill:#C12E18;}
	.st5{fill:#94281D;}
	.st6{fill:#5C3F20;}
	.st7{fill:#F18659;}
	.st8{fill:#F4DFE3;}
	.st9{fill:#7E152D;}
</style>
<g id="Calque_1" class="st0">
	
		<image style="display:inline;overflow:visible;" width="1920" height="1080" xlink:href="../Nouveau dossier/qpubwca9fs671.png"  transform="matrix(1.4236 0 0 1.4236 -1827.6659 -537.4442)">
	</image>
</g>
<g id="Calque_2">
	<path class="st1" d="M553.6,179.4c-8.2-2-34.9-5.4-51.6-4c-16.7,1.4-59,9.3-69.4,15.6c0,0-2.5-4.6-6.6-8.1c0,0,3.8-12.6,6.5-26.3
		c1.8-8.9,3.1-18.2,2.7-24.9c-1.1-16.7,18.7-18.4,18.7-18.4s56.4,2.3,67.5,6.5v-15c0,0,1.8-0.2,4,0c2.5,0.2,5.7,1,7.3,3.1
		c2.8,3.5,16.3,15.8,19.3,18.5c0.4,0.3,0.6,0.5,0.6,0.5v9.1l8.2,6.5v34C560.7,176.6,561.8,181.4,553.6,179.4z"/>
	<path class="st2" d="M649.3,743c0,0-6.5,6.1-16.9,11.5c-11.7,6.1-28.5,11.4-46.4,6c-7.9-2.3-16.1-6.8-24.2-14.1
		c0,0,11.5-82.4-27.4-101.3c0,0-28.4-10.2-48.8,95.2c0,0-9.6,23.1-34.3,26.1c-7.8,1-17.1-0.1-28.1-4.6c-4.2-1.7-7.7-3.6-10.5-5.7
		c-28.1-20.3,5.2-55.5,5.2-55.5s43.5-77.1,50.6-92.6c7.2-15.5,5.7-38.5,5.7-38.5s0.2,0.1,0.7,0.3c7,3.4,63.8,29.1,102.1-0.3l0.7,2
		l9.2,27.9C586.9,599.4,651.5,683.7,649.3,743z"/>
	<path class="st3" d="M737.4,896.4c-0.3-0.7-0.5-1.5-0.8-2.2c0,0,0.1,0,0.4,0C737.1,895,737.3,895.7,737.4,896.4z"/>
	<path class="st4" d="M757,695.8c-11.7,18.9-34.8,30.2-34.8,30.2c-37.8,6.8-21.2-27.2-21.2-27.2c-35.2-17.4,4.9-44.6,4.9-44.6
		l30.9,14c1.1,6.9-5.2,10.9-5.2,10.9C732.1,688.2,757,695.8,757,695.8z"/>
	<path class="st4" d="M328.4,692.2c0,0-4.2,6-9.8,7.2c0,0,3,4.2,6,6.8c3,2.6-3.2,15.1-3.2,15.1s-13.8,4.7-26.7-1.5
		c0,0-10.9-1.9-17.2-0.4l-19.1-19.6c0,0,25,6.2,34.6-19c0,0,0.1-5.9-1.3-9.6c-1.4-3.7,31.9-19,31.9-19l4-1c0,0-3.4,11.1,0.8,17.4
		C332.6,674.8,328.4,692.2,328.4,692.2z"/>
	<path class="st4" d="M269.1,601.5l-10,17.2c-9.6,9.8-13.4,3-13.4,3l15.7-40.2l7.4,8.5C272.5,594.5,269.1,601.5,269.1,601.5z"/>
	<path class="st4" d="M758.5,175.6c6.2-5.8-12.8-12.8-12.8-12.8s-36.5-5-69.4-4.7c2.9,4.6,4.8,8.9,2.5,10
		c-5.4,2.5-4.2,11.3-4.2,11.3s5.4,6,6.2,11.6c0.8,5.7-4,7.7-7.1,11.1c-3.1,3.4-10.2,3.4-10.2,3.4s0.3-6-19.6-12.8
		c-19.8-6.8-69.5,5.4-69.5,5.4c-5.9-4.5-3.7-17.6-3.7-17.6c10.6-15.4,20.8-23,27.6-26.7l-6.7-1.2c0,0-8.1,5.1-11.9,9.3
		c-2,2.2-11.1,0-19.3-2.7v17.4c0,0,1.1,4.8-7.1,2.8c-8.2-2-34.9-5.4-51.6-4c-16.7,1.4-59,9.3-69.4,15.6c0,0-2.5-4.6-6.6-8.1
		c0,0,3.8-12.6,6.5-26.3c-8.1-2.8-21.2-7.3-25.4-7.8c-6.2-0.8-72.3-4.5-98.1,0.9c-25.8,5.4-18.7,13.2-18.7,13.2l89,88.9
		c0,0,11.6,5.4,18.1,6.5c0,0-2.8,14.4,2.8,23.8c0,0-21.5,16.2-34,44.5c0,0-12.2,44.5-23,55.3c0,0-28.1,55.8-34.6,67.5
		c-6.5,11.6-30.1,66.6-35.1,103.7c0,0-7.6,16.2,24.6,19.7c0,0,15.5,4.2,24.2-17.4c8.7-21.5,28.4-38.9,33.3-57.8
		c4.9-18.9,34.2-53.3,34.2-53.3l30.4-34L475,569.9c7,3.4,63.8,29.1,102.1-0.3l0.7,2L612.5,447c0,0,14.6-15.6,14.4-27.5
		c-0.1-11.9,27.5,32,27.5,32s14.3,25,17.5,55.5c0,0,2.1,12.5,20.8,43.5l14.5,25.7c0,0,14.7-5.3,21.7-4.3c0,0,1.5,0.4,4.9-4
		c3.4-4.3,10.8-5.1,10.8-5.1s-8.9-20.2-10.4-34.8c-1.5-14.5,1.1-44.6-18.7-82c-19.8-37.4-22.1-123.2-22.1-123.2
		s-11.9-11.3-26.3-10.8c0,0,3.6-17,11-33.3c0,0,2.1-15.3,1.1-21.5C678.4,250.9,752.3,181.4,758.5,175.6z M631.1,353.3
		c-0.6,0.5-1.2,1-1.7,1.4c2.1,0.8,3.2,1.2,3.2,1.2s-12.5,80.1-79.4,75.2c-66.9-4.9-79.7-35.9-79.7-35.9s-29.5-39.3-35.1-90.7
		c0,0-6-18.1,17.4-11.7c12.4,3.4,61.3,20.9,104.5,36.6c0-2,0.2-4.2,0.4-6.8c0,0,15.6-26.5,68.2-15.5
		C628.9,307.2,668.2,321.2,631.1,353.3z"/>
	<path class="st5" d="M598.8,87.1c0,0-3.2,3.8,2.3,3c5.5-0.8,4,3,3,3.4c-1,0.4-10.6,9.3-2.7,7.4c7.9-1.9-0.9,9.5-0.9,9.5
		s-12.3,12.1-3.2,10.8c9.1-1.3,3.4,6.6,3.4,6.6s-8.1,8.3-2.3,8.9s3.2,6.1,3.2,6.1s-6.9,2.4-1.3,5.2c2,1,3.2,2.3,3.9,3.4
		c-0.9,0.3-2,0.7-3.2,1.3c-0.8,0.4-1.7,0.8-2.6,1.3l-6.7-1.2c0,0-8.1,5.1-11.9,9.3c-2,2.2-11.1,0-19.3-2.7v-16.6l-8.2-6.5V127
		c0,0-0.2-0.2-0.6-0.5c-2.9-2.7-16.5-15-19.3-18.5c-1.7-2.1-4.8-2.9-7.3-3.1c0-0.1,0-0.1,0-0.1V83c0,0-13.6-27.2-13.6-38.8
		s1.2-11.4,1.5-11.4c0.3,0,3.9,2.4,2.9-1.8c-1-4.2-1.5-11,3.4-5.5c4.9,5.5,8.9,10.4,8.9,10.4s3.4,3.2,2.8-1.5
		c-0.6-4.7,1-14.5,7.2-3.6c6.2,11,25.7,38,25.7,38s-0.2,4.3,7.7-2.3c7.9-6.6,11.9-8.1,11.9-8.1s7.6-4.5,4.7,2.3
		c-2.8,6.8,8.5-2.3,8.5-2.3s14.9-9.8,11.3-1.9c0,0-2.3,2.7,7.5,0.6c9.8-2.1-8.1,17-8.1,17L598.8,87.1z"/>
	<path class="st1" d="M673.8,202.1c-3.1,3.4-10.2,3.4-10.2,3.4s0.3-6-19.6-12.8c-19.8-6.8-69.5,5.4-69.5,5.4
		c-5.9-4.5-3.7-17.6-3.7-17.6c10.6-15.4,20.8-23,27.6-26.7c0.9-0.5,1.8-0.9,2.6-1.3c1.2-0.6,2.3-1,3.2-1.3c1.8-0.7,2.9-0.8,2.9-0.8
		c37.7,5.1,59.8-4.8,59.8-4.8s5.6,6.4,9.4,12.4c2.9,4.6,4.8,8.9,2.5,10c-5.4,2.5-4.2,11.3-4.2,11.3s5.4,6,6.2,11.6
		C681.7,196.7,676.9,198.7,673.8,202.1z"/>
	<path class="st6" d="M631.1,353.3c-0.6,0.5-1.2,1-1.7,1.4c-36.3,29.4-67.1-10.5-67.1-10.5s-2.3-3.8-2.1-14.8c0-2,0.2-4.2,0.4-6.8
		c0,0,15.6-26.5,68.2-15.5C628.9,307.2,668.2,321.2,631.1,353.3z"/>
	<path class="st7" d="M632.7,356c0,0-12.5,80.1-79.4,75.2c-66.9-4.9-79.7-35.9-79.7-35.9s-29.5-39.3-35.1-90.7c0,0-6-18.1,17.4-11.7
		c12.4,3.4,61.3,20.9,104.5,36.6c-0.3,11,2.1,14.8,2.1,14.8s30.8,39.9,67.1,10.5C631.5,355.6,632.7,356,632.7,356z"/>
	<path class="st8" d="M748.3,935c-1.5,42-62,38.9-62,38.9s-70.7,3-90.3-52.5c0,0-2.3-6-2.6-17.8L571,865.1l3.4-21.9l0.4,0.7
		l26.5,48.9c0,0,2.6,15.9,7.6,22.7c4.9,6.8,28.3,29.1,61.6,34c33.3,4.9,52.2-7.2,52.2-7.2s17.1-8.7,17.7-29
		c0.2-4.9-0.7-10.5-2.9-16.8c-0.1-0.8-0.3-1.5-0.5-2.2C739.1,894.4,749.7,897.2,748.3,935z"/>
	<path class="st8" d="M724.5,862.5c-2.3,0.6-5.6-0.6-6.3-1.2c-1.3-1.1-1-7.2-17.2-11.7c-16.2-4.5-51.4,8.3-57.8,14.4
		c-6.4,6.1-14.4,20.8-14.4,20.8c-12.8,4.5-11.7-8.7-11.7-8.7s10-21.4,25.1-28.4c15.1-7,24.6-10.2,24.6-10.2
		c-14.5-1.5-44.2,17.2-44.4,23.6c-0.2,6.4-7.8,13-7.8,13c-8.3-0.8-5.1-13.4-5.1-13.4c7.9-26.3,36.9-32.5,36.9-32.5
		c-9.1,0-20.8,7-20.8,7s-13.2,9.8-15.3,19.1c-2.1,9.3-7.5,7-7.5,7s-12.1,0.4-3.6-18.7c8.5-19.1,45-24.8,45-24.8s-38-0.2-44.6,16.2
		c-6.6,16.4-13.4,5.3-13.4,5.3c-1.7-13.6,6-21.5,6-21.5s9.1-8.7,35.7-12.7c5.7-0.9,10.6-1,14.7-0.7c15,1.2,20,8.4,20,8.4
		c1.1,3.4-0.4,4.7-0.4,4.7s2.1-0.8,10-0.9s10.2,10.8,10.2,10.8c1.5,0,7,0.6,11.9,2.3c4.9,1.7,2.3,7.4,2.3,7.4s21.9,4.3,28.2,16.6
		C727.9,859.8,726.7,862,724.5,862.5z"/>
	<path class="st9" d="M740.3,913.2c-0.6,20.3-17.7,29-17.7,29s-18.9,12.1-52.2,7.2c-33.3-4.9-56.7-27.2-61.6-34
		c-4.9-6.8-7.6-22.7-7.6-22.7l-26.5-48.9c3-18.6,11.8-38.7,14-44.7c2.8-7.6,4.2-17,0-26.5c-1.7-3.8-2.5-8.2-2.8-12.2
		c17.9,5.3,34.6,0.1,46.4-6c1.1,5.7,2.5,12,3.8,15.7c2.7,7.9-3.3,15.2-3.3,15.2s-0.8,10.3,2.8,13.8c1.6,1.5,4.3,3.6,6.9,5.5
		c-4.1-0.3-9-0.2-14.7,0.7c-26.6,4-35.7,12.7-35.7,12.7s-7.8,7.9-6,21.5c0,0,6.8,11.1,13.4-5.3c6.6-16.4,44.6-16.2,44.6-16.2
		s-36.5,5.7-45,24.8c-8.5,19.1,3.6,18.7,3.6,18.7s5.5,2.3,7.5-7c2.1-9.3,15.3-19.1,15.3-19.1s11.7-7,20.8-7c0,0-28.9,6.2-36.9,32.5
		c0,0-3.2,12.7,5.1,13.4c0,0,7.6-6.6,7.8-13c0.2-6.4,29.9-25.1,44.4-23.6c0,0-9.5,3.2-24.6,10.2c-15.1,7-25.1,28.4-25.1,28.4
		s-1.1,13.2,11.7,8.7c0,0,7.9-14.7,14.4-20.8c6.4-6,41.6-18.9,57.8-14.4c16.2,4.5,15.9,10.6,17.2,11.7c0.7,0.6,4,1.8,6.3,1.2
		c2.1,3.7,4.6,8.4,7.2,14.3c2,4.6,3.8,10.8,5.2,17.3c-0.2,0-0.4,0-0.4,0c0.3,0.8,0.6,1.5,0.8,2.2
		C738.6,902.1,739.6,907.9,740.3,913.2z"/>
	<path class="st8" d="M439.7,816.3c-4-4.3-16.8-11.3-16.8-11.3c-24.8-11.7-34.4-4.5-34.4-4.5c11.5-1.9,45.7,10.2,52,20.6
		c6.2,10.4-9.6,11-9.6,11c-7.2-13.6-26.5-21.3-33.6-23.6c-7.2-2.3-15.9,1.9-11.5,1.9c4.4,0,18.3,3.6,18.3,3.6s20.8,9.1,25,24.4
		c4.2,15.3-6.2,11.3-6.2,11.3c-5.3-15.1-24.6-26.5-31.2-29.3c-6.6-2.8-20.2-0.6-15.3,0.4c4.9,0.9,18.5,5.3,25.1,8.1
		c6.6,2.8,18,17.2,19.1,22.9c1.1,5.7-6.6,7.9-10.8,7.2c-4.2-0.8-4.2-2.5-7-10c-2.8-7.6-6-7.2-19-13.4c-13-6.2-39.8-6.4-46.8-5.5
		c-7,1-6.8,4.3-15.1,11.1c-1.8,1.5-3.1,2.2-3.9,2.3c-3,0.4-0.7-6.3-0.1-8.7c0.8-3,11.3-11.3,11.3-11.3s4.9-4.7,12.9-4.5
		c7.9,0.2,5.1-1.5,5.1-1.5c-1.7-5.2,4.9-6.3,7.4-6.3c2.5,0,3.4-2.5,3.4-2.5c1.9-6.8,13-7.8,15.7-8.5c2.6-0.8,6.8-4,11.3-8.5
		c3.7-3.7,11.3-3.8,14.1-3.6c0.7,0,1,0.1,1,0.1s38.2,4.3,48,18.5C457.8,820.7,439.7,816.3,439.7,816.3z"/>
	<path class="st8" d="M459.2,856.4c0,0-14,16.2-15.5,30.1c-1.5,13.8-8.3,22.1-8.3,22.1C421,932.8,390,943.3,390,943.3
		s-74.1,14.7-87.7-13.6c-11.4-23.8-1.8-38.6,1.6-42.7v0c0.6-0.8,1-1.2,1-1.2c-0.8,21.2,7.6,27.2,7.6,27.2c32.9,14,58.2,5.3,78.6,2.3
		c20.4-3,42.7-31.8,47.2-45.7c3.9-12,17.8-35.2,21.7-41.5v0c0.6-1,1-1.6,1-1.6C471.3,838.3,459.2,856.4,459.2,856.4z"/>
	<path class="st9" d="M460.1,828.1L460.1,828.1c-3.9,6.3-17.8,29.5-21.7,41.5c-4.5,14-26.8,42.7-47.2,45.7
		c-20.4,3-45.7,11.7-78.6-2.3c0,0-8.3-6-7.6-27.2c0,0-0.4,0.4-1,1.2c3.4-16,9.8-33.2,14-43.7c0.8-0.1,2.1-0.8,3.9-2.3
		c8.3-6.8,8.1-10.2,15.1-11.1c7-0.9,33.8-0.8,46.8,5.5c13,6.2,16.2,5.8,19,13.4c2.8,7.6,2.8,9.3,7,10c4.2,0.8,11.9-1.5,10.8-7.2
		c-1.1-5.7-12.5-20-19.1-22.9c-6.6-2.8-20.2-7.2-25.1-8.1c-4.9-1,8.7-3.2,15.3-0.4c6.6,2.8,25.9,14.2,31.2,29.3c0,0,10.4,4,6.2-11.3
		c-4.2-15.3-25-24.4-25-24.4s-14-3.6-18.3-3.6c-4.3,0,4.4-4.2,11.5-1.9c7.2,2.3,26.5,10,33.6,23.6c0,0,15.9-0.6,9.6-11
		c-6.2-10.4-40.4-22.5-52-20.6c0,0,9.6-7.2,34.4,4.5c0,0,12.8,7,16.8,11.3c0,0,18.1,4.4,8.3-9.8c-9.8-14.2-48-18.5-48-18.5
		s-0.4,0-1-0.1c6.9-7.7,11.4-21.9,13.8-31.7c2.9,2.1,6.3,4,10.5,5.7c11,4.5,20.3,5.5,28.1,4.6c-1.7,3.4-3.3,6.8-4.3,9.2
		c-2.5,6.2,0.6,12.2,0.6,12.2s4.7,8,8.9,17.3C458.8,810.1,459.7,820,460.1,828.1z"/>
</g>
</svg>
