<?xml version="1.0" encoding="utf-8"?>
<!-- Generator: Adobe Illustrator 27.4.1, SVG Export Plug-In . SVG Version: 6.00 Build 0)  -->
<svg version="1.1" id="Calque_1" xmlns="http://www.w3.org/2000/svg" xmlns:xlink="http://www.w3.org/1999/xlink" x="0px" y="0px"
	 viewBox="0 0 1000 1000" style="enable-background:new 0 0 1000 1000;" xml:space="preserve">
<style type="text/css">
	.st0{display:none;}
	.st1{fill:#FFFFFF;}
</style>
<g id="Calque_1_00000078033496411818689030000000523367889585086143_" class="st0">
</g>
<g>
	<path class="st1" d="M211.6,385.2c0,0,148.2,88.9,170.5,219.3c0,0,10.3,158.6,47.4,177.9c37,19.2,97.8,44.4,151.2-11.9
		c0,0,28.1-26.7,26.7-114.1c-1.4-87.4,86-192.7,86-192.7s87.4-75.6,117.1-93.3c29.7-17.8,16.3-114.1,4.4-131.9
		c-11.9-17.8-72.7-57.8-126-38.6c-53.3,19.2-86,44.4-86,44.4l1.4,204.6c0,0-23.7,97.8-106.7,93.3s-102.2-74.1-102.2-74.1L394.1,243
		l-83-44.4c0,0-69.7-11.9-90.5,13.3s-71.1,51.9-38.6,134.9C182,346.7,203.3,377.8,211.6,385.2z"/>
	<path class="st1" d="M430.6,308.9v143.4c0,0,59,122.2,134.5,5.6l2.2-156.7C567.3,301.2,498.4,182.2,430.6,308.9z"/>
</g>
</svg>
