<?xml version="1.0" encoding="utf-8"?>
<!-- Generator: Adobe Illustrator 27.4.1, SVG Export Plug-In . SVG Version: 6.00 Build 0)  -->
<svg version="1.1" id="Calque_1" xmlns="http://www.w3.org/2000/svg" xmlns:xlink="http://www.w3.org/1999/xlink" x="0px" y="0px"
	 viewBox="0 0 1000 1000" style="enable-background:new 0 0 1000 1000;" xml:space="preserve">
<style type="text/css">
	.st0{display:none;}
	.st1{fill:#FAF1D8;}
	.st2{stroke:#000000;stroke-miterlimit:10;}
	.st3{fill:none;stroke:#000000;stroke-miterlimit:10;}
	.st4{fill:#F5DEAE;}
	.st5{fill:#EDE882;}
	.st6{fill:#EDE57F;}
	.st7{fill:#F6DDB7;}
	.st8{fill:#F1EAB0;}
	.st9{fill:#557DA5;}
	.st10{fill:#5A83A8;}
</style>
<g id="Calque_1_00000001655338952936223320000013194295579763840669_" class="st0">
</g>
<g>
	<path class="st1" d="M625.3,200.6c-4.8-4.7-12.1-10.2-22.9-14.4l6.8-5.4c0,0,4.5-3.7,6.8-0.6c0.9,1.2,3.8,4,7.1,7.8
		c-1.9-9.7-4.1-17.8-6.6-23.1c-6.8-14.5-11-23.8-13.3-29.2l0,0c-4.4-0.4-9.5,0.1-14.4,2.4c-13.6,6.4-17.4,6.6-17.4,6.6
		s-12.9,1.5-20.6-4.5c-7.7-6-18.5-5.9-18.5-5.9s-16.2,13.6-21.4,20.8c-5.1,7.2-11,18.2-34.2,24c0,0-24.2,29.9-35.5,81.3
		S454,369.2,454,369.2s17.1,45.4,68.4,72c0,0,11.7,6.5,28.5,10.8l0,0c11.1-7,34.5-24.6,52.8-56.7c25-43.7,29.5-110.3,29.5-110.3
		S631,237.4,625.3,200.6z M509.1,281.1c0,0,12.3-15.7,18.1-21.9c5.9-6.2,17.4-28.5,17.4-28.5c8.7-11.1,4,5.1,4,5.1s-8.9,20-9.6,21.2
		c-0.8,1.1-11.2,19.7-14.2,24c-3,4.4,0,9.3,0,9.3s7.6,10.4,9.4,13.8c1.9,3.4-0.6,5.5-0.6,5.5s-4,2.1-7.4,2.1c-3.4,0-7.8-4.7-7.8-4.7
		s-3.4-5.9-8.5-14.5C504.9,283.5,509.1,281.1,509.1,281.1z M498.7,178.8l5.4,8.5c-12.5-0.8-25.5,9.6-25.5,9.6
		C479.1,190.5,498.7,178.8,498.7,178.8z M497.9,234.4c0,0,1.9,29.5-13.2,24.9c0,0-4.5-4.5-6.8-14.4
		C477.9,245,487.3,203.8,497.9,234.4z M537.4,395.6c-5.1,0.4-11.3,0.6-11.3,0.6s-11.3-5.1-14.5-8.9c0,0,22.9-0.4,24.9-1.9
		s7.2,1.1,7.2,3.2C543.7,390.7,542.5,395.2,537.4,395.6z M620.8,341.2c-2.1,6-5.9,22.5-5.9,22.5s-3.4,6-3.6-1
		c-0.2-7,0.2-9.3,0.2-9.3s-0.6-3.2-2.3-3.6s-4-2.7-7.4-0.4c-3.4,2.3-26.8,19.3-45,22.9c0,0-14.9,6.8-42.1,0.2
		c-27.2-6.6-33.5-18-33.5-18s-5.9-2.3-7.2,1s-0.6,5.5-0.6,5.5s-0.6,4-3.2-0.8c-2.6-4.7-10.2-18.1-10.2-18.1s-1.1-5.3,0.4-7.4
		s13.6-13.4,13.6-13.4l-0.2,6.8c0,0-1.5,4.3,5.7,5.9c7.2,1.5,28,5.8,28,5.8s14.2,4.7,40.2-0.8c26.1-5.5,39.9-11.2,39.9-11.2
		s6-3.4,4.3-7.8c-1.7-4.3-3.2-8.1-3.2-8.1s-1.1-4.1,3.2-1.3c4.4,2.8,25.7,20.2,25.7,20.2S622.8,335.1,620.8,341.2z M600.9,246.3
		c-8.9-5.1-16.4-3.6-16.4-3.6l-2.5-5.5c7.8-3.4,19.9-5.9,19.9-5.9s16.4-2.5,23.8,9.8c7.4,12.3,2.1,22.3,2.1,22.3
		S609.8,251.4,600.9,246.3z"/>
	<path class="st2" d="M484.7,259.3c0,0-4.5-4.5-6.8-14.4c0,0,9.5-41.2,20-10.6C497.9,234.4,499.8,263.9,484.7,259.3z"/>
	<path class="st2" d="M504.1,187.3c-12.5-0.8-25.5,9.6-25.5,9.6c0.6-6.5,20.1-18.1,20.1-18.1L504.1,187.3z"/>
	<path class="st2" d="M548.6,235.7c0,0-8.9,20-9.6,21.2c-0.8,1.1-11.2,19.7-14.2,24c-3,4.4,0,9.3,0,9.3s7.6,10.4,9.4,13.8
		c1.9,3.4-0.6,5.5-0.6,5.5s-4,2.1-7.4,2.1c-3.4,0-7.8-4.7-7.8-4.7s-3.4-5.9-8.5-14.5c-5.1-8.7-0.9-11.2-0.9-11.2
		s12.3-15.7,18.1-21.9c5.9-6.2,17.4-28.5,17.4-28.5C553.3,219.5,548.6,235.7,548.6,235.7z"/>
	<path class="st3" d="M591.3,349.5c-18.5,8.7-42.3,16.2-42.3,16.2s-27.4,1.1-36.7-2.1c-9.3-3.2-37-14.4-37-14.4
		c-7.4-10.4,3.6-10.8,3.6-10.8s15.9,4,35.2,6.8c19.3,2.8,45-3,47.6-3.8c2.7-0.8,32.1-8.9,32.1-8.9c8.7,0.4,9.6,5.7,9.6,5.7
		S609.8,340.8,591.3,349.5z"/>
	<path class="st2" d="M617.7,331c0,0-21.3-17.4-25.7-20.2c-4.3-2.8-3.2,1.3-3.2,1.3s1.5,3.8,3.2,8.1c1.7,4.4-4.3,7.8-4.3,7.8
		s-13.8,5.7-39.9,11.2c-26.1,5.5-40.2,0.8-40.2,0.8s-20.8-4.3-28-5.8s-5.7-5.9-5.7-5.9l0.2-6.8c0,0-12.1,11.3-13.6,13.4
		s-0.4,7.4-0.4,7.4s7.6,13.4,10.2,18.1c2.7,4.7,3.2,0.8,3.2,0.8s-0.8-2.3,0.6-5.5s7.2-1,7.2-1s6.2,11.3,33.5,18
		c27.2,6.6,42.1-0.2,42.1-0.2c18.1-3.6,41.6-20.6,45-22.9s5.7,0,7.4,0.4s2.3,3.6,2.3,3.6s-0.4,2.3-0.2,9.3s3.6,1,3.6,1
		s3.8-16.5,5.9-22.5C622.8,335.1,617.7,331,617.7,331z M591.3,349.5c-18.5,8.7-42.3,16.2-42.3,16.2s-27.4,1.1-36.7-2.1
		c-9.3-3.2-37-14.4-37-14.4c-7.4-10.4,3.6-10.8,3.6-10.8s15.9,4,35.2,6.8c19.3,2.8,45-3,47.6-3.8c2.7-0.8,32.1-8.9,32.1-8.9
		c8.7,0.4,9.6,5.7,9.6,5.7S609.8,340.8,591.3,349.5z"/>
	<path class="st2" d="M627.8,263.5c0,0-18-12.1-26.8-17.2c-8.9-5.1-16.4-3.6-16.4-3.6l-2.5-5.5c7.8-3.4,19.9-5.9,19.9-5.9
		s16.4-2.5,23.8,9.8C633.1,253.5,627.8,263.5,627.8,263.5z"/>
	<path class="st2" d="M635.9,211.4c0,0-0.6,1.7-3.5-2.5c-1.3-1.8-3.5-4.8-7-8.3c-4.8-4.7-12.1-10.2-22.9-14.4l6.8-5.4
		c0,0,4.5-3.7,6.8-0.6c0.9,1.2,3.8,4,7.1,7.8C628.5,194.2,635,202.9,635.9,211.4z"/>
	<path class="st4" d="M730.6,253.3c-3-9.6-20.2-32.9-38.5-43.1c0,0-10.2-4.9-2.7-8.5c7.6-3.6,17.6-15.3,17.6-15.3s5.7-16.6-4.9-24.6
		c-10.6-7.9-18.3-6.4-18.3-6.4s-22.3,3.2-25.5,5.3s-15.5,0.6-15.5,0.6s-4.9-1.3-8.9-7.8c-4-6.4-17-14-17-14s-5.8-3.1-13.5-3.8
		c2.3,5.4,6.5,14.7,13.3,29.2c2.5,5.3,4.7,13.5,6.6,23.1c5.4,6.1,11.8,14.8,12.7,23.3c0,0-0.6,1.7-3.5-2.5c-1.3-1.8-3.5-4.8-7-8.3
		c5.7,36.9,8,84.6,8,84.6S629,351.7,604,395.4c-18.3,32.1-41.8,49.7-52.8,56.7c11.5,2.9,25.4,4.8,39.5,2.8c0,0,0,4.6-23.6,8.4
		c-2,0.3-4.1,0.6-6.4,0.9c0,0,6.6,4.8,21.4,4.2l0,0c8.1-0.4,18.8-2.4,32.2-7.8c37.7-15.3,39.7-40,39.7-40s-21.3,11.9-30,8.2
		c0,0-3.3-1.3,12.2-10.3c15.5-9.1,41.8-39.8,41.8-39.8s12.6-18.1,12.8-19.1c0,0,14.3,4.7,28.8-7.5s12.2-26.4,12.2-26.4
		s-0.7-15.9-11-23.8c0,0-5-7.5,4.4-6.8c9.3,0.7-9.9-21.5-9.9-21.5s-13.6-22.3-25.8-27c0,0-4.5-8.7,3-6.1
		c7.6,2.7,22.1,19.7,22.1,19.7l14.5,26.3c0,0,1.9-0.4,2.7-4.9s-20.4-37.6-34-49.7c-13.6-12.1-11.2-12.3-11.2-12.3s0-2.5,5.5-1
		s18.9,17,18.9,17s19.7,29.5,21.9,39.7C734.7,285.4,733.6,262.9,730.6,253.3z M691.4,261.7c6.1,1.4,15,13.2,15,13.2
		s6.7,9.6,6.1,13.8c-0.6,4.1-6.1-4.8-6.1-4.8s-7.9-11.3-18.4-16.7C688,267.1,685.3,260.3,691.4,261.7z M690.5,283
		c4.8,2.1,9.2,9.1,9.2,9.1s3.1,8.2-0.7,8.5s-4.2-4-4.2-4s-3-4.3-7.4-9.2C687.3,287.4,685.6,280.9,690.5,283z"/>
	<path d="M699,300.6c-3.8,0.3-4.2-4-4.2-4s-3-4.3-7.4-9.2c0,0-1.7-6.5,3.1-4.4s9.2,9.1,9.2,9.1S702.8,300.3,699,300.6z"/>
	<path d="M712.6,288.7c-0.6,4.1-6.1-4.8-6.1-4.8s-7.9-11.3-18.4-16.7c0,0-2.7-6.8,3.4-5.4c6.1,1.4,15,13.2,15,13.2
		S713.1,284.6,712.6,288.7z"/>
	<line class="st3" x1="772.1" y1="448.5" x2="770.7" y2="458"/>
	<path class="st3" d="M543.7,388.6c0,2.1-1.1,6.6-6.2,7c-5.1,0.4-11.3,0.6-11.3,0.6s-11.3-5.1-14.5-8.9c0,0,22.9-0.4,24.9-1.9
		S543.7,386.5,543.7,388.6z"/>
	<path class="st5" d="M465.6,178.1L449,208.3c0,0-5.7-8.7-7.8-19.3c-1.7-8.7,1.1-15.7,1.1-15.7s4.7-8.1,10.4-3.4
		C458.4,174.7,461.5,177.9,465.6,178.1z"/>
	<path class="st5" d="M739.1,265.6c0,0-3.1-34.6-39.5-58.7c0,0,27.9-21.1,23-35.4c0,0-4.5-28.1-34.4-26.5c0,0-18.4,4.1-26.4,8.2
		c-7.9,4.1-15,0.4-15,0.4s-11.1-13.9-19.6-23.4c-3.2-3.6-6.1-6.6-7.9-8c-6.4-5-11.2-5.4-11.2-5.4s-9.6,1.7-23,10.9
		c-13.3,9.2-20,9.8-20,9.8s-7.5-0.6-15.9-7.4s-18.7-2.7-18.7-2.7s-24.2,18-27.1,24.5c-2.8,6.5-16,16.6-23.5,19c0,0-17,5.1-26.2-9.1
		c-9.2-14.2-8.8-24.9-8.8-24.9s-3.6-27.7,13.4-38c0,0-0.1,11.5,5.7,15.5c5.8,4,15.6,6.7,15.6,6.7s15.2,1.8,27.9-12.9
		c12.8-14.7,26.2-23.4,26.2-23.4s11.9-7.9,29.6,1c0,0,11.6,7.4,21.5-9.2s18.7-23,18.7-23s6.8-8.9,22.8,1.8c0,0,8.9,6.9,16.1,13
		c7.2,6.1,34.7,10.6,34.7,10.6s16.4,8.8,23.5,22c7.3,13.2,12.7,17.6,12.7,17.6s7.3,4.2,15.2,13.4c4.1,4.8,8.4,10.8,11.9,18.4
		c10.4,22.1,12.2,33.9,12.2,33.9S755.8,230.7,739.1,265.6z"/>
	<path class="st6" d="M476.4,424.9c0,0-97.5,14-142.5,8.3s-97.1-23.1-97.1-26.1s-7.6-14-7.6-14s3.4-9.5,9.8-16.5
		c6.4-7-0.6-16.4-0.6-16.4s-24.6-31.2-35-41.8c-10.4-10.6-3.4-19.7-3.4-19.7s56.5-53.1,71.6-71.6s22.9-9.3,22.9-9.3
		s21,14.9,36.9,30.6s23.6,10.4,23.6,10.4c28-21.2,88.4-37,88.4-37c-13.6,25.3-15.9,69.9-15.9,69.9
		C420.8,374.2,476.4,424.9,476.4,424.9z"/>
	<path class="st7" d="M194.2,483c-1.7,19.6-21,11.6-21,11.6c-39.4-15.3-85-5.1-85-5.1c-23-18.1-6.2-42-6.2-42
		c51.6-15.6,91,7.9,91,7.9S196,463.4,194.2,483z"/>
	<path class="st7" d="M163.6,440.8c-29.5-16.7-84.2-2.3-84.2-2.3c-23.5-31.5,5.7-47.6,5.7-47.6s37.7-8.8,67.5,1.1
		s34.9,28.1,34.9,28.1S193.1,457.5,163.6,440.8z"/>
	<path class="st7" d="M173.8,534.9c0,0-52.4,15.6-77.4-4.8c-25-20.4,4.5-34.6,4.5-34.6c23-2.6,68.9,6,81.1,16.7
		C194.2,523,173.8,534.9,173.8,534.9z"/>
	<path class="st7" d="M249.8,512.9c-12.5,32.3-46.3,53.1-46.3,53.1l-19.3-3c0,0,56.3-24.8,50.1-89.6c0,0,11-21.7,11-33.5
		C245.3,428.3,262.3,480.6,249.8,512.9z"/>
	<path class="st7" d="M218.6,484.8c0,0-4.2,6.6,3.2,1.3l4.2-3.4c0,0,2.5,40.2-24.4,60.7c-26.8,20.4-70.9,11-70.9,11s-22.7-6-6.4-8.5
		c0,0,33.4,4.3,56.9-3.6c23.4-7.9,16.8-30.1,16.8-30.1s-3-6.8-6.4-8.3c0,0,28.5-22.1-4.9-50.6c0,0,29.5-12.5,3.2-50.7
		c0,0-24.4-18.1-49.7-24.6c0,0-8.3-13.4-11.9-23.8c0,0-14-38.9-1.9-59.3s32.5-21.9,32.5-21.9s27.2-5.3,23.4,18.1
		c-3.8,23.4-9.1,42.7-8.7,46.9c0.4,4.2,1.1,22.3,21.2,37c20,14.7,28.7,31,28.7,31s24.6,34.4,3,66.5L218.6,484.8z"/>
	<path class="st6" d="M436.9,864c0,0-53.9-14.2-79.7-32.9c0,0-5.6-9.4-26.7,8.8c-21.2,18.1-35.9,30.6-35.9,30.6s-6.8,6-15.5-0.8
		s-77.5-77.9-77.5-77.9s-9.1-7.9-2.3-15.1c6.8-7.2,37.4-46.1,37.4-46.1s10.6-7.6,1.1-20.4c-9.4-12.9-31-69.6-34-82.8
		s-16.2-11-16.2-11l-57.8-4.2c0,0-9.4-4.5-8.7-12.5c0.8-7.9,2-38.4,2-38.4s24.4,5.7,40.2,4.5c0,0,107.4,30,244.6-18.7
		c0,0-2.3,122.5,11.3,171.8C419.3,719.1,436.3,848.9,436.9,864z"/>
	<path class="st8" d="M727.7,816.6c-188.8,66.9-286.1-10.8-286.1-10.8l-12.8-86.2c0,0,25.7,15.5,49.1,28.7s20-14.7,20-14.7
		C490,658,508.1,534,513,517.4c4.9-16.6-4.5-20-4.5-20c-27.2-30.2-10.2-58.5-10.2-58.5l22.3,9.5c20,34.8,54,32.1,54,32.1
		c11.3-0.3,21.2-1.9,29.9-4.3c54.2-15.1,61.4-64.3,61.4-64.3l4-4l33.4,14.7c2.3,9.4-12.5,39.4-12.5,39.4
		c-7.2,13.6-18.2,24.6-30,33.3c-23,16.9-49.5,25-58.5,26c-13.6,1.4-16.4,12.5-16.4,12.5c-23.8,150.8-8.3,229-8.3,229
		c23.4,24.2,147-16.6,147-16.6C723.6,765,727.7,816.6,727.7,816.6z"/>
	<path class="st6" d="M929.5,599.8c0,0,0,11.3-4,4.8c-3.1-5.1-53.3-91.8-153.5-156.1c-28.5-18.3-61-34.8-97.6-47
		c0,0,19.7-18.9,28.7-33.3c0,0,40.4,7.6,42.7-50.6c0,0-4.5-10.6-8.3-15.1c0,0,26.5-51.8,27.6-86.2c0,0,1.1-4.2,14.5,10.2
		c4,4.3,11.8,12.4,20.9,21.7c21.4,21.9,49.4,50.3,49.4,50.3s11.3,9.9-5.4,23.2c-16.7,13.3-32.6,40.2-32.6,40.2s-3.7,7.9,3.1,17.6
		c6.8,9.6,29.8,62.1,32.3,82.8c0,0-1.7,10.2,38.5,11.9l29.5,3.1c0.8-0.6,13.6-0.6,14.2,10.5C930.1,498.9,929.5,599.8,929.5,599.8z"
		/>
	<path class="st6" d="M744.7,748.4c-1.3,2.8,1.7,6.8,1.7,6.8l-5.1,8.3c-8.7-39.3,20-138,20-138c3.6,3.4,40.2,15.7,40.2,15.7
		C785.9,653.9,746.1,745.6,744.7,748.4z"/>
	<path class="st7" d="M805.1,822.4c-0.4,2-2.8,11.8-2.1,16.3l-29.3,29.6c0,0-12.8,1-16.3-1.4s-10.6-23.5-10.6-23.5
		s-10.9-33.2-6.4-49.8s14-26.9,14-26.9c0.6,0.8,24.1,24.4,30.3,27.8c6.2,3.4,28.6,8.1,34.2,8.9C818.9,803.4,805.5,820.5,805.1,822.4
		z"/>
	<polygon class="st9" points="737.6,854.1 713.3,833.9 727.4,829.1 	"/>
	<path class="st10" d="M668.4,845.2c-1.1,0.5-36.2,17.4-59.7,21.2c0,0-12.1,5.7-12.1,30.2s-4.5,45-4.5,45s0,6.8-12.8,7.2
		c-12.9,0.4-108.5,0.8-108.5,0.8s-9.5,2.6-11.7-10.6c-2.3-13.2-3.8-68.4-15.9-119.1C443.1,819.8,536.1,872.7,668.4,845.2z"/>
	<path class="st9" d="M922.4,623.3c-4.5,42.3-79.4,165.2-79.4,165.2c-71.4,11.7-86.2-43.8-86.2-43.8c16.6-52.2,59.3-110,59.3-110
		c-40.3-7.9-125.9-51-125.9-51s-2.3,3.7-1.7,5.1c0.6,1.4,59.8,30.6,59.8,30.6c-10.2,22.7-23.5,116.8-23.5,116.8
		c-111.1,36.3-140.6,21-140.6,21c-11.3-53.9,5.7-180.9,7.4-203.5c1.7-22.7,8.5-21.5,8.5-21.5c33.5-7.4,57.1-19.2,73.8-32.3
		c40.8-32,39.6-71.5,39.6-71.5c20.7,8.7,39.7,18.8,57.2,29.7c94.5,59.1,141.8,142.2,146.1,149.2
		C921.9,615.4,922.4,623.3,922.4,623.3z"/>
	<path class="st9" d="M489.2,742c-14.7-2.3-62.4-35.2-62.4-35.2c-11.7-49.1-4.5-188.6-4.5-188.6l-11,4.2l-1.5,17
		c-76.7,33.3-193.5,26.1-193.5,26.1c70.3-49.9,34.9-134.9,34.9-134.9c103.7,18.9,214,5.7,226.2,3.4c12.2-2.3,10.5,4,10.5,4
		c-12.8,43.7,17.6,70.3,17.6,70.3C478.8,606.9,489.2,742,489.2,742z"/>
</g>
</svg>
