<?xml version="1.0" encoding="utf-8"?>
<!-- Generator: Adobe Illustrator 27.1.1, SVG Export Plug-In . SVG Version: 6.00 Build 0)  -->
<svg version="1.1" xmlns="http://www.w3.org/2000/svg" xmlns:xlink="http://www.w3.org/1999/xlink" x="0px" y="0px"
	 viewBox="0 0 1000 1000" style="enable-background:new 0 0 1000 1000;" xml:space="preserve">
<style type="text/css">
	.st0{fill:#F8F6F7;}
	.st1{fill:#1B3F7E;}
	.st2{fill:#1A4081;}
	.st3{fill:none;stroke:#000000;stroke-miterlimit:10;}
	.st4{fill:#FFFFFF;}
	.st5{fill:#C87B48;}
	.st6{fill:#C87B47;}
	.st7{fill:#E00A19;}
	.st8{fill:#E4122F;}
	.st9{fill:#1E1112;}
</style>
<g id="Calque_1">
	
		<image style="overflow:visible;" width="1534" height="1975" xlink:href="../Nouveau dossier/kylian-mbappe-fifa-22-cover-star.png"  transform="matrix(0.5015 0 0 0.5015 75.4479 10.0996)">
	</image>
	<path class="st0" d="M375,725.6c0.2-0.3,0.5-0.5,0.7-0.8l-0.8,1.4L375,725.6z"/>
	<path class="st0" d="M588.4,612.8c-0.2-0.2-0.4-0.3-0.6-0.5c-0.9-0.7-1.9-1.4-3.1-2c0,0,0,0,0,0c-1.1-0.7-2.3-1.4-3.4-2.1
		c-0.1-0.1-0.2-0.1-0.3-0.2c-0.6-0.4-1.2-0.7-1.8-1.1c0,0-0.1-0.1-0.1-0.1c-0.5-0.3-1.1-0.6-1.6-0.9c-2.3-1.3-4.4-2.4-6.3-3.1
		c-3.2-1.3-5.9-2.1-8.4-2.6l5.7-2.7l0.2-0.1c-11.9-10.9-32.3-15.1-41.1-15.3l24-5.3c0,0,18.2,17.6,29.3,28.5
		c3.6,3.5,6.4,6.3,7.7,7.6C589.5,613.8,589.5,613.9,588.4,612.8z"/>
</g>
<g id="Calque_2">
	<path class="st1" d="M845.8,1008l-647.4-9.1c0,0,49.3-107.2,54.4-121.3c5.1-14.2,34-62.9,36.8-67.5c0.4-0.6,2-2.8,4.5-6.2l0.6,0.1
		c-0.7,2.2-1.1,3.3-1.1,3.3s-3.8,13.6,9.1,5.7c4.7-2.9,13.3-12.8,22.4-24.1c15.8-19.8,33-44.1,33-44.1s0,0,0-0.1
		c0,0,0.1-0.1,0.1-0.2c0.2-0.2,0.6-0.7,1.2-1.3c0.2-0.2,0.4-0.5,0.6-0.7c0.7-0.8,1.5-1.7,2.5-2.9c0.7-0.8,1.4-1.6,2.2-2.5
		c2.2-2.4,4.7-5.3,7.6-8.5c0.5-0.6,1-1.1,1.5-1.7c0.4-0.4,0.7-0.8,1.1-1.2c0.2-0.3,0.5-0.5,0.7-0.8l-0.8,1.4c0,0-2.4,6.2,3.8,3.1
		c6.2-3.1,22.1-18.7,22.1-18.7s39.7-40.5,42.2-43.7c1.8-2.2,7.8-9.9,13.3-16c2.5-2.8,4.8-5.2,6.5-6.7c5.7-4.8,26.6-23.2,34.9-26.6
		c8.2-3.4,22.1-10.2,33.7-10.2c3.3,0,8.6,0.2,14.6,0.6c14.9,1,34.6,2.9,42.3,4.8c-0.1-0.1-0.2-0.2-0.3-0.3c0.1,0.1,0.3,0.2,0.4,0.3
		c2.2,1.5,4.4,3,6.5,4.4c0.8,0.6,1.6,1.1,2.4,1.7c0.4,0.3,0.8,0.6,1.2,0.9c0.1,0.1,0.2,0.2,0.4,0.3c0.9,0.8,1.8,1.6,2.6,2.5
		c54.8,52.2-3,12.8,97.9,81.3c0,0,72.2,59.3,88.8,105.8C805,856,845.8,1008,845.8,1008z"/>
	<path class="st2" d="M295.3,802.3c-0.2,0.6-0.4,1.1-0.6,1.6l-0.6-0.1C294.5,803.4,294.9,802.9,295.3,802.3z"/>
	<path class="st3" d="M599,620c-0.1-0.1-0.2-0.2-0.4-0.3c0,0,0,0,0,0C598.8,619.8,598.9,619.9,599,620z"/>
	<path class="st4" d="M568.6,597.3l-0.2,0.1c-0.4-0.2-0.9-0.5-1.3-0.7c-0.4-0.2-0.9-0.5-1.3-0.7c-0.1,0-0.2-0.1-0.3-0.2
		c-0.5-0.2-0.9-0.5-1.4-0.7c-0.5-0.2-1-0.5-1.4-0.7c-0.5-0.2-0.9-0.4-1.4-0.6c0,0,0,0,0,0c-0.5-0.2-0.9-0.4-1.4-0.6
		c-0.5-0.2-1-0.4-1.4-0.6c-0.5-0.2-1-0.4-1.5-0.6c-0.1,0-0.2-0.1-0.3-0.1c0,0-0.1,0-0.1,0c-0.3-0.1-0.6-0.2-0.9-0.4
		c-0.5-0.2-0.9-0.4-1.4-0.5c-0.3-0.1-0.6-0.2-0.9-0.3c-0.7-0.2-1.4-0.5-2.1-0.7c-0.3-0.1-0.7-0.2-1-0.3c-0.3-0.1-0.7-0.2-1-0.3
		c-0.5-0.2-1-0.3-1.4-0.4c-0.3-0.1-0.6-0.2-1-0.3c-0.5-0.1-0.9-0.2-1.4-0.3c-0.7-0.2-1.4-0.3-2.1-0.5c-0.4-0.1-0.8-0.2-1.2-0.2
		c-0.6-0.1-1.2-0.2-1.9-0.3c-0.3,0-0.6-0.1-0.9-0.1c-0.4-0.1-0.7-0.1-1.1-0.2c-0.5-0.1-1-0.1-1.5-0.2c-0.8-0.1-1.5-0.2-2.2-0.2
		c-0.2,0-0.5,0-0.7-0.1c-0.1,0-0.1,0-0.2,0h0c-0.4,0-0.8,0-1.2-0.1c-0.2,0-0.3,0-0.5,0c-0.1,0-0.3,0-0.4,0h-0.1c0,0,0,0,0,0
		c-0.7,0-1.3,0-1.9,0c-0.7,0-1.3,0-2,0c-0.5,0-1,0-1.5,0.1c-1.1,0.1-2.2,0.2-3.2,0.3c-0.2,0-0.5,0.1-0.7,0.1c-0.2,0-0.5,0.1-0.7,0.1
		c-1.1,0.1-2.1,0.3-3,0.5c-0.2,0-0.3,0.1-0.5,0.1c-0.1,0-0.3,0.1-0.5,0.1c-0.1,0-0.2,0-0.2,0c-0.6,0.1-1.1,0.2-1.6,0.4
		c-1.8,0.4-3.4,0.9-4.7,1.3c-0.4,0.1-0.7,0.2-1.1,0.3c-0.2,0-0.3,0.1-0.5,0.2c-0.5,0.2-0.9,0.3-1.3,0.4c-0.6,0.2-1.1,0.3-1.5,0.4
		c-5.3,0.8-19.8,11.1-21.7,14.9c-1.9,3.8-23.2,14.9-25.1,16.8c-1.9,1.9-30.2,24.9-32.5,26.1c-2.3,1.1-19.3,15.1-34.8,31
		c-1,1-2,2-2.9,3.1c-0.5,0.5-1,1-1.5,1.6c-2,2.1-4,4.3-6,6.5c-3.4,3.8-6.8,7.6-9.8,11.1c-0.7,0.8-1.3,1.5-2,2.3
		c-2.2,2.6-4.2,5-5.9,7c-0.2,0.3-0.5,0.6-0.7,0.8c-0.6,0.7-1.2,1.4-1.7,2.1c-0.1,0.2-0.2,0.3-0.4,0.4c-1.7,2.1-2.7,3.3-2.7,3.3
		s-34.8,46-55.2,73.2c-3.3,4.4-6.2,8.3-8.6,11.5c-0.4,0.5-0.8,1.1-1.2,1.6l-0.1,0l0.2-12.1c0,0,0,0,0,0c0.1-0.1,0.5-0.6,1-1.3
		c0.1-0.2,0.3-0.3,0.4-0.5s0.3-0.4,0.5-0.6c1.5-1.8,3.6-4.4,5.3-6.6c0.3-0.4,0.6-0.7,0.9-1.1c10.8-13.3,28.5-35.3,29.5-36.2
		c1.3-1.3,23.2-31.9,29.7-39.7c3-3.7,11.8-14.5,23.2-27.1c12.7-14,28.6-30.1,43.5-40.8c28.2-20.2,30.4-25.7,52.9-36.9
		c0,0,12.3-7.5,13.8-9.8c0.6-0.9,4.1-2.4,8.8-4l23.8-5.2C536.3,582.2,556.7,586.4,568.6,597.3z"/>
	<path class="st0" d="M527.5,582l-23.8,5.2c7.6-2.6,18-5.2,23.3-5.2C527.2,582,527.4,582,527.5,582z"/>
	<path class="st5" d="M774.4,403.2c-10.4,18-29.5,46.5-57.9,72.5c0,0-14.2,25-90.4,76.5c0,0-7.1,38.6-19,46.5
		c-2,1.3-4.3,6.9-6.8,15.3c-0.5,1.8-1.1,3.7-1.6,5.7c-0.5-0.4-0.9-0.8-1.4-1.2c-0.2-0.2-0.5-0.4-0.7-0.6c-0.3-0.2-0.5-0.5-0.8-0.7
		c-0.3-0.2-0.5-0.5-0.8-0.7c-2.2-1.9-4.4-3.7-6.5-5.4c-0.6-0.5-1.2-1-1.9-1.5c-2-1.5-3.9-3-5.9-4.3c-11.1-10.9-29.3-28.5-29.3-28.5
		l-24,5.3c-0.2,0-0.3,0-0.5,0c-5.3,0-15.7,2.7-23.3,5.2c-4.7,1.6-8.2,3.1-8.8,4c-1.5,2.3-13.8,9.8-13.8,9.8
		c-22.5,11.2-24.8,16.6-52.9,36.9c-14.8,10.7-30.8,26.8-43.5,40.8c-11.4,12.6-20.2,23.4-23.2,27.1c-6.4,7.8-28.3,38.4-29.7,39.7
		c-0.9,0.9-18.7,22.9-29.5,36.2c-0.3,0.4-0.6,0.7-0.9,1.1c-1.7,2.2-3.8,4.7-5.3,6.6c-0.2,0.2-0.3,0.4-0.5,0.6s-0.3,0.4-0.4,0.5
		c-0.6,0.7-1,1.2-1,1.3c0,0,0,0,0,0s-1.7-14.3-6.2-21.1c-4.5-6.8-28.6-49.3-30.6-55.3c-2-6-8.5-51.6-9.9-55
		c-1.4-3.4-17.6-30.6-18.1-39.4c-0.6-8.8,5.7-45.1,5.7-49c0-4-2.5-23.8-17.3-30.3c-14.7-6.5-117.3-61.2-117.3-61.2
		s-43.1-27.5-14.7-63.2c28.3-35.7,18.7-36.3,18.7-36.3s-9.6-28.4-11.9-30.6c-2.3-2.3,10.5-17,21.8-18.7c0,0-5.7-11.3-2.8-15.9
		c2.8-4.5,4.5-12.8,21.5-21c17-8.2,9.9-23.8,9.9-23.8s-19.6-19.6-18.7-31.5c0.8-11.9,2.5-29.2,21.8-34.9
		c19.3-5.7,101.8-22.4,101.8-22.4s13.3-4.5,13.3-17.6c0-13,9.6-36.3,16.2-41.7c6.5-5.4,106.6-75.7,106.6-75.7s0.1-0.1,0.4-0.3
		c60.7,4.4,132,56.6,132,56.6l-23,26.8c5.7,0,250.6,213.2,278.9,273.3C772.1,403.6,772.9,403.5,774.4,403.2z"/>
	<path class="st6" d="M580.8,605.2c-0.6-0.4-1.2-0.8-1.7-1.2c-0.3-0.2-0.7-0.5-1.1-0.7c-0.1-0.1-0.2-0.2-0.4-0.2
		c-0.4-0.3-0.8-0.5-1.2-0.8c-0.4-0.3-0.8-0.5-1.2-0.8c-0.6-0.4-1.1-0.7-1.7-1.1c-0.6-0.3-1.1-0.7-1.7-1c-1.2-0.7-2.3-1.4-3.5-2
		l0.2-0.1c-11.9-10.9-32.3-15.1-41.1-15.3l24-5.3C551.6,576.7,569.7,594.3,580.8,605.2z"/>
	<path class="st7" d="M568.4,597.4l-5.7,2.7c-7.6-1.5-14-0.2-29.6-1.9c-20.8-2.3-41.6,8.9-44,13.2c-2.5,4.3-30.6,30.4-35.2,33.6
		c-1.9,1.3-7,6.8-13,13.2c-8.5,9.1-18.9,20.1-24.2,23.6c-5.5,3.7-25.8,25.9-41,42.8c-0.2,0.3-0.5,0.5-0.7,0.8
		c-0.4,0.4-0.7,0.8-1.1,1.2c-0.5,0.6-1,1.2-1.5,1.7c-2.8,3.2-5.4,6.1-7.6,8.5c-0.8,0.9-1.5,1.7-2.2,2.5c-1,1.1-1.8,2.1-2.5,2.9
		c-0.2,0.3-0.4,0.5-0.6,0.7c-0.6,0.6-1,1.1-1.2,1.3c-0.1,0.1-0.1,0.1-0.1,0.2c0,0,0,0.1,0,0.1s-17.2,24.3-33,44.1
		c-9.1,11.4-17.7,21.2-22.4,24.1c-12.9,7.9-9.1-5.7-9.1-5.7s0.4-1.2,1.1-3.3c0.2-0.5,0.4-1,0.6-1.6c2.3-3.1,5.2-7.1,8.6-11.5
		c20.3-27.1,55.2-73.2,55.2-73.2s1-1.2,2.7-3.3c0.1-0.1,0.2-0.3,0.4-0.4c0.5-0.6,1.1-1.3,1.7-2.1c0.2-0.3,0.5-0.6,0.7-0.8
		c1.7-2,3.7-4.4,5.9-7c0.6-0.8,1.3-1.5,2-2.3c3-3.5,6.4-7.3,9.8-11.1c2-2.2,4-4.4,6-6.5c0.5-0.5,1-1.1,1.5-1.6c1-1,2-2.1,2.9-3.1
		c15.5-15.9,32.5-29.9,34.8-31c2.3-1.1,30.6-24.2,32.5-26.1c1.9-1.9,23.2-13,25.1-16.8c1.9-3.8,16.4-14.2,21.7-14.9
		c0.4-0.1,0.9-0.2,1.5-0.4c0.4-0.1,0.8-0.3,1.3-0.4c0.2-0.1,0.3-0.1,0.5-0.2c0.3-0.1,0.7-0.2,1.1-0.3c1.3-0.4,2.9-0.9,4.7-1.3
		c0.5-0.1,1.1-0.2,1.6-0.4c0.1,0,0.2,0,0.2,0c0.1,0,0.3-0.1,0.5-0.1c0.2,0,0.3-0.1,0.5-0.1c0.9-0.2,2-0.3,3-0.5
		c0.2,0,0.5-0.1,0.7-0.1c0.2,0,0.5-0.1,0.7-0.1c1-0.1,2.1-0.2,3.2-0.3c0.5,0,1,0,1.5-0.1c0.6,0,1.3,0,2,0c0.6,0,1.3,0,1.9,0
		c0,0,0,0,0,0h0.1c0.1,0,0.3,0,0.4,0c0.2,0,0.3,0,0.5,0c0.4,0,0.8,0,1.2,0.1h0c0.1,0,0.1,0,0.2,0c0.2,0,0.5,0,0.7,0.1
		c0.7,0.1,1.5,0.1,2.2,0.2c0.5,0,1,0.1,1.5,0.2c0.4,0,0.7,0.1,1.1,0.2c0.3,0,0.6,0.1,0.9,0.1c0.6,0.1,1.2,0.2,1.9,0.3
		c0.4,0.1,0.8,0.2,1.2,0.2c0.7,0.1,1.4,0.3,2.1,0.5c0.5,0.1,0.9,0.2,1.4,0.3c0.3,0.1,0.6,0.2,1,0.3c0.5,0.1,1,0.3,1.4,0.4
		c0.3,0.1,0.7,0.2,1,0.3c0.3,0.1,0.7,0.2,1,0.3c0.7,0.2,1.4,0.5,2.1,0.7c0.3,0.1,0.6,0.2,0.9,0.3c0.5,0.2,0.9,0.3,1.4,0.5
		c0.3,0.1,0.6,0.2,0.9,0.4c0,0,0.1,0,0.1,0c0.1,0,0.2,0.1,0.3,0.1c0.5,0.2,1,0.4,1.5,0.6c0.5,0.2,1,0.4,1.4,0.6
		c0.5,0.2,0.9,0.4,1.4,0.6c0,0,0,0,0,0c0.5,0.2,0.9,0.4,1.4,0.6c0.5,0.2,0.9,0.4,1.4,0.7c0.5,0.2,0.9,0.5,1.4,0.7
		c0.1,0,0.2,0.1,0.3,0.2c0.4,0.2,0.9,0.5,1.3,0.7C567.5,597,567.9,597.2,568.4,597.4z"/>
	<path class="st8" d="M598.7,619.7C598.7,619.7,598.7,619.7,598.7,619.7c-0.4-0.2-0.8-0.5-1.2-0.8c-0.8-0.5-1.6-1.1-2.4-1.7
		c-2.1-1.4-4.3-2.9-6.5-4.4c-0.1-0.1-0.3-0.2-0.4-0.3c-0.1-0.1-0.2-0.1-0.3-0.2c-1-0.7-2.1-1.3-3.1-2c0,0,0,0,0,0
		c-1.1-0.7-2.3-1.4-3.4-2.1c-0.1-0.1-0.2-0.1-0.3-0.2c-0.6-0.4-1.2-0.7-1.8-1.1c0,0-0.1-0.1-0.1-0.1c-0.5-0.3-1.1-0.6-1.6-0.9
		c-2.3-1.3-4.4-2.4-6.3-3.1c-3.2-1.3-5.9-2.1-8.4-2.6l5.7-2.7c1.2,0.6,2.3,1.3,3.5,2c0.5,0.3,1.1,0.7,1.7,1c0.6,0.3,1.1,0.7,1.7,1.1
		c0.4,0.2,0.8,0.5,1.2,0.8c0.4,0.3,0.8,0.5,1.2,0.8c0.1,0.1,0.2,0.2,0.4,0.2c0.3,0.2,0.7,0.5,1.1,0.7c0.6,0.4,1.1,0.8,1.7,1.2
		c1.9,1.4,3.9,2.8,5.9,4.3c0.6,0.5,1.2,1,1.9,1.5c2.1,1.7,4.3,3.5,6.5,5.4c0.3,0.2,0.5,0.5,0.8,0.7c0.3,0.2,0.5,0.5,0.8,0.7
		c0.2,0.2,0.4,0.4,0.7,0.6C597.8,618.8,598.2,619.2,598.7,619.7z"/>
	<path class="st9" d="M784,384.9c0,0-3.1,7.1-9.6,18.2c-1.5,0.3-2.3,0.5-2.3,0.5c-28.3-60.1-273.3-273.3-278.9-273.3l23-26.8
		c0,0-71.4-52.2-132-56.6c5.3-4.3,61.8-47,167.7-30.8c111.4,17,176.9,88.4,176.9,88.4s49.3,35.7,72.3,140.3c0,0-1.7,42,1.1,73.1
		C805,349.2,784,384.9,784,384.9z"/>
	<path class="st3" d="M299.2,785.6"/>
	<path class="st1" d="M584.6,610.3c-10.2-5.4-30.2-8.4-30.2-8.4s-22.7-1.3-38.9,0.6s-23.8,9.8-23.8,9.8s-12.7,13-17,16.6
		c-4.3,3.6-22.5,20.2-26.6,24.8c-4.2,4.5-15.7,15.5-18.1,18.9c-2.5,3.4-16.4,16.2-19.1,18.1c-2.6,1.9-14,13.2-24,24.6
		c-10,11.3-12,11-12,11l0.8-1.4c15.2-17,35.5-39.2,41-42.8c5.3-3.5,15.7-14.5,24.2-23.6c6-6.4,11.1-11.9,13-13.2
		c4.5-3.2,32.7-29.3,35.2-33.6c2.5-4.3,23.2-15.5,44-13.2c15.5,1.7,22,0.4,29.6,1.9c2.5,0.5,5.2,1.3,8.4,2.6c1.9,0.8,4,1.9,6.3,3.1
		c0.5,0.3,1.1,0.6,1.6,0.9c0,0,0.1,0,0.1,0.1c0.6,0.3,1.2,0.7,1.8,1.1c0.1,0,0.2,0.1,0.3,0.2C582.3,608.8,583.5,609.5,584.6,610.3z"
		/>
	<path class="st0" d="M581.2,608.2c1.1,0.7,2.3,1.4,3.4,2.1C583.5,609.5,582.3,608.8,581.2,608.2z"/>
	<path class="st0" d="M588.4,612.8c-7.7-1.8-27.4-3.8-42.3-4.8c-6-0.4-11.3-0.6-14.6-0.6c-11.6,0-25.5,6.8-33.7,10.2
		c-8.2,3.4-29.2,21.8-34.9,26.6c-1.8,1.5-4.1,3.9-6.5,6.7c-5.5,6.1-11.5,13.8-13.3,16c-2.6,3.1-42.2,43.7-42.2,43.7
		s-15.9,15.6-22.1,18.7c-6.2,3.1-3.8-3.1-3.8-3.1s1.9,0.4,12-11c10-11.3,21.4-22.7,24-24.6c2.6-1.9,16.6-14.7,19.1-18.1
		c2.5-3.4,14-14.4,18.1-18.9c4.2-4.5,22.3-21.2,26.6-24.8c4.4-3.6,17-16.6,17-16.6s7.6-7.9,23.8-9.8s38.9-0.6,38.9-0.6
		s20,3,30.2,8.4c0,0,0,0,0,0c1,0.7,2.1,1.3,3.1,2C588,612.5,588.2,612.6,588.4,612.8z"/>
	<path class="st0" d="M588.4,612.8c-0.2-0.2-0.4-0.3-0.6-0.5c0.1,0.1,0.2,0.1,0.3,0.2C588.2,612.6,588.3,612.7,588.4,612.8z"/>
</g>
</svg>
