<?xml version="1.0" encoding="utf-8"?>
<!-- Generator: Adobe Illustrator 27.1.1, SVG Export Plug-In . SVG Version: 6.00 Build 0)  -->
<svg version="1.1" xmlns="http://www.w3.org/2000/svg" xmlns:xlink="http://www.w3.org/1999/xlink" x="0px" y="0px"
	 viewBox="0 0 1000 1000" style="enable-background:new 0 0 1000 1000;" xml:space="preserve">
<style type="text/css">
	.st0{display:none;}
	.st1{fill:none;stroke:#000000;stroke-miterlimit:10;}
	.st2{fill:#FBE4CC;}
	.st3{fill:#1C1329;}
	.st4{fill:#D7D17A;}
	.st5{fill:#FAD2B1;}
	.st6{fill:#FDE5C7;}
	.st7{fill:#555566;}
	.st8{fill:#FCD3B0;}
</style>
<g id="Calque_1" class="st0">
	
		<image style="display:inline;overflow:visible;" width="600" height="600" xlink:href="../Nouveau dossier/st,small,507x507-pad,600x600,f8f8f8.jpg"  transform="matrix(1.9022 0 0 1.9022 -65.3307 -69.8661)">
	</image>
</g>
<g id="Calque_2">
	<path class="st1" d="M361.1,627.2l-6,5.5c0-0.2,0-0.4,0-0.7l6-5.1L361.1,627.2z"/>
	<path class="st2" d="M700,713.6c-7.5,13.9-16.6,27.4-27.7,40.4c-8.3,9.8-16.5,18.4-24.5,26.1c-5.3,5.1-10.6,9.8-15.8,14
		c-38.4,31.5-72.1,40.3-97.7,40.3c-0.6,0-1.3,0-1.9,0c-0.5,0-0.9,0-1.4,0c-0.4,0-0.8,0-1.2,0c-0.5,0-1,0-1.4-0.1
		c-1.7-0.1-3.4-0.2-5.1-0.4c-0.5-0.1-1.1-0.1-1.6-0.2c-0.5-0.1-1.1-0.1-1.6-0.2c-0.1,0-0.1,0-0.2,0c0,0,0,0,0,0
		c-0.5-0.1-1-0.1-1.4-0.2c-0.5-0.1-0.9-0.1-1.4-0.2c-0.9-0.1-1.8-0.3-2.7-0.5c-0.4-0.1-0.9-0.2-1.3-0.3c-2.2-0.4-4.3-0.9-6.2-1.5
		c-0.4-0.1-0.8-0.2-1.2-0.3c-0.4-0.1-0.8-0.2-1.1-0.3c-1.5-0.4-3-0.9-4.3-1.4c-0.4-0.1-0.7-0.2-1.1-0.4c-0.4-0.1-0.7-0.2-1-0.4
		c-0.6-0.2-1.3-0.5-1.9-0.7c-2.9-1.1-5.4-2.3-7.4-3.3c-0.2-0.1-0.4-0.2-0.7-0.3c-0.6-0.3-1.2-0.6-1.8-0.9c-0.2-0.1-0.4-0.2-0.6-0.4
		c-0.2-0.1-0.4-0.2-0.6-0.4c-0.1-0.1-0.3-0.1-0.4-0.2c-0.1-0.1-0.2-0.1-0.3-0.2c-0.1,0-0.1-0.1-0.2-0.1c-0.2-0.1-0.4-0.2-0.5-0.3
		c0,0-0.1,0-0.1-0.1c-0.1-0.1-0.2-0.1-0.3-0.2c-0.6-0.4-0.9-0.6-0.9-0.6c-12.5-7.9-24.1-16.2-34.7-24.4
		c-8.8-6.9-16.9-13.7-24.2-20.3h0c-7-6.3-13.3-12.3-18.8-17.8c-4.9-4.9-9.1-9.3-12.7-13.2c-9-9.8-13.9-16.1-13.9-16.1
		c-7.1-13.4-12.1-27.1-15.6-40.2c-5.5-20.7-7.2-40.1-7.5-55.5l6-5.5l70.1-64.5l59,11.7l-13.2,59.7l120.6-194.7l89.2,101.7
		c-38.9,3.8-111.5,32.9-111.5,32.9c15.9,9.1,119.1-24.2,119.1-24.2L700,713.6z"/>
	<path class="st1" d="M687.6,822.6c-0.1,0-0.4-0.1-0.8-0.3c-0.2-0.1-0.5-0.2-0.9-0.3c0-0.5,0-1,0.1-1.5c0.4,0.4,0.7,0.8,0.9,1.1
		C687.4,822.1,687.6,822.5,687.6,822.6z"/>
	<path class="st3" d="M686,820.5c0,0.5,0,1-0.1,1.5c-3-1-9.6-3-18.7-3.9c-12.5-1.1-34.6,16.4-34.6,16.4s-9.6,7.9-46.5,18.7
		c-36.9,10.8-85,0-88.5-1.1c-3.4-1.1-30-8.5-49.3-23.8c-19.3-15.3-43.1-7.4-43.1-7.4c0.3-0.4,0.6-0.8,0.9-1.2
		c9.5-12.2,28-19.7,41.5-23.7c10.6,8.3,22.2,16.6,34.7,24.4c0,0,0.3,0.2,0.9,0.6c0.1,0.1,0.2,0.1,0.3,0.2c0,0,0.1,0.1,0.1,0.1
		c0.2,0.1,0.3,0.2,0.5,0.3c0.1,0,0.1,0.1,0.2,0.1c0.1,0.1,0.2,0.1,0.3,0.2c0.1,0.1,0.2,0.1,0.4,0.2c0.2,0.1,0.4,0.2,0.6,0.4
		c0.2,0.1,0.4,0.2,0.6,0.4c0.5,0.3,1.1,0.6,1.8,0.9c0.2,0.1,0.4,0.2,0.7,0.3c2,1,4.5,2.2,7.4,3.3c0.6,0.2,1.2,0.5,1.9,0.7
		c0.3,0.1,0.7,0.2,1,0.4c0.3,0.1,0.7,0.2,1.1,0.4c1.4,0.5,2.8,0.9,4.3,1.4c0.4,0.1,0.8,0.2,1.1,0.3c0.4,0.1,0.8,0.2,1.2,0.3
		c2,0.5,4.1,1,6.2,1.5c0.4,0.1,0.9,0.2,1.3,0.3c0.9,0.2,1.8,0.3,2.7,0.5c0.5,0.1,0.9,0.1,1.4,0.2c0.5,0.1,0.9,0.1,1.4,0.2
		c0,0,0,0,0,0c0.1,0,0.1,0,0.2,0c0.5,0.1,1.1,0.1,1.6,0.2c0.5,0.1,1.1,0.1,1.6,0.2c1.7,0.2,3.3,0.3,5.1,0.4c0.5,0,1,0.1,1.4,0.1
		c0.4,0,0.8,0,1.2,0c0.5,0,0.9,0,1.4,0c0.6,0,1.3,0,1.9,0c25.6,0,59.3-8.8,97.7-40.3c17.3,1.5,30.3,7.4,39.3,13.5
		C678.9,812.5,683.7,817.7,686,820.5z"/>
	<path class="st1" d="M686.8,822.2c-0.2-0.1-0.5-0.2-0.9-0.3"/>
	<path class="st1" d="M686.9,821.6c0,0.2-0.1,0.4-0.1,0.7"/>
	<path class="st4" d="M909.3,512.5l-104.7-24.6l77.5-75.6l-105.4-16.2c-33.3-134.6-231.3-141.7-231.3-141.7L249,64.2l78.2,167.1
		l-62.7-15.5L311,318.6l-201.8,34l199.9,99.8L102.4,563.1l185.6-3.4l-88.1,185.6l113-80.3l32.3,171.8l20.6,85.4l38.9-164.4
		c-4.9-4.9-9.1-9.3-12.7-13.2c-9-9.8-13.9-16.1-13.9-16.1c-7.1-13.4-12.1-27.1-15.6-40.2L340,673l-18.6-12.6l33.6-28.4l6-5.1l0,0.2
		l70.1-64.5l59,11.7l-13.2,59.7l120.6-194.7l89.2,101.7c-38.9,3.8-111.5,32.9-111.5,32.9c15.9,9.1,119.1-24.2,119.1-24.2l5.8,163.7
		l2.5,72.5l29.5-108.5l116.8-34l-52.2-29.8L909.3,512.5z M491.3,566.5l-50.6-13.6l67.7-62.7L491.3,566.5z M788,614.8
		c-12.8,31.7-52.4,55.3-52.4,55.3l6-51.3l16.7,11.9v-87.3c13.3-2,26.6,7.9,26.6,7.9S800.8,583,788,614.8z"/>
	<path class="st5" d="M362.5,688.2L340,673l-18.6-12.6l33.6-28.4c0,0.2,0,0.4,0,0.7C355.3,648.1,357,667.5,362.5,688.2z"/>
	<polygon class="st6" points="508.3,490.2 491.3,566.5 440.7,552.9 	"/>
	<path class="st7" d="M685.9,821.9c-0.3,5.7-1.2,13-2.8,22.2c-11.6,65.5-33.7,73.7-33.7,73.7s-40.8,17.9-87.3,19.8
		c-46.5,2-89.6-7.6-117.9-19.8c-28.4-12.2-40.5-97.2-40.5-97.2l2.6-1c-0.3,0.4-0.6,0.8-0.9,1.2c0,0,23.8-7.9,43.1,7.4
		c19.3,15.3,45.9,22.7,49.3,23.8c3.4,1.1,51.6,11.9,88.5,1.1c36.9-10.8,46.5-18.7,46.5-18.7s22.1-17.6,34.6-16.4
		C676.3,818.9,683,820.9,685.9,821.9z"/>
	<path class="st8" d="M788,614.8c-12.8,31.7-52.4,55.3-52.4,55.3l6-51.3l16.7,11.9v-87.3c13.3-2,26.6,7.9,26.6,7.9
		S800.8,583,788,614.8z"/>
</g>
</svg>
