<?xml version="1.0" encoding="utf-8"?>
<!-- Generator: Adobe Illustrator 27.1.1, SVG Export Plug-In . SVG Version: 6.00 Build 0)  -->
<svg version="1.1" id="Calque_2" xmlns="http://www.w3.org/2000/svg" xmlns:xlink="http://www.w3.org/1999/xlink" x="0px" y="0px"
	 viewBox="0 0 1000 1000" style="enable-background:new 0 0 1000 1000;" xml:space="preserve">
<style type="text/css">
	.st0{stroke:#000000;stroke-miterlimit:10;}
	.st1{fill:#FFFFFF;stroke:#000000;stroke-miterlimit:10;}
</style>
<path class="st0" d="M644.3,884.4c0,0-0.3,11.9-19.6,13c-19.3,1.1-35.7-2.8-35.7-2.8s-1.4-3.1-9.1-3.7c-7.6-0.6-24.4-0.9-24.4-0.9
	s-11-0.8-12.2-12.8c-1.1-11.9-6-20.7-6-21.8c0-1.1-4-129.8-2.8-148.3c1.1-18.4,9.9-25.5,5.7-50.5c-4.2-25-15.3-87.6-15.3-87.6
	s-14.7,77.1-18.1,88.4c0,0-2.8,34.6-4.5,39.1c-1.7,4.5-20.4,150.2-18.7,166.1c0,0-2.5,7.1-6.5,8.5c-4,1.4,2,10.5,2,10.5
	s2.8,6.8-1.7,12.2c-4.5,5.4-11.3,13.6-19.3,14.4c-7.9,0.9-25.5-15-25.5-15s-3.4-13.3,4-14.7c0,0,2.3-7.1,0.6-11.3
	s-2.5-11.3-2.5-11.3s9.4-140,11.6-152.5c2.3-12.5,9.1-183.7,9.1-183.7s-2.5-5.8-5.5-5.1c-3,0.8,9.1-63.1,12.1-71.4
	c3-8.3,2.3-38.9,2.3-38.9s-0.4-11.3-8.3-10.2c-7.9,1.1-19.3,1.1-25.3-4.5c-6-5.7-12.5-15.1-12.5-15.1s-3.8-4.2-2.6-9.8
	c1.1-5.7,10.7-92.6,9.8-104.5c-0.7-9.7,8.6-11,12-11.1c0.8,0,1.2,0,1.2,0s0.4,20,17.8,19.3c17.4-0.8,19.6-13.2,19.6-13.2l-0.8-11.7
	c0,0-21.5,4.7-29.2-3.8c-0.2-0.2-0.4-0.5-0.6-0.7l0.1-12.7c0,0-1.1-6.2-4-6.8c-2.8-0.6-0.6-16.2-0.6-16.2s2-2.8,6.8-4.5l0.3-11.1
	c0,0,4.3-8,9.2-9.4l0.6-11.3l2.4,0.1v-3l3.1,0v-54.9l5.8,0.2l-0.1,54.4l0,14.9c0,0-0.7,3.5,7.7,3c0,0,0.4,5.9-7.1,5.5l-0.1,3
	c0,0,8.4,3.8,8.6,18.2c0,0-0.8,1.4,3,2.5c3.8,1.1-3.3,5.5-3.3,5.5l-0.2,8.9c0,0,8.7,3.7,9.4-3c0.3-2.8,2-3.4,4-3.2
	c2.6,0.3,5.5,2.2,5.5,2.2L542.3,322c0,0,3.8,17.4,3.8,25.7l5.7,0.8l1.5-90c0,0,1.9-14-7.6-18.9c-9.4-4.9-12.8-8.7-17-3.4
	c-4.2,5.3-11,8.3-12.5,3.4c-1.5-4.8,0.7-26.1-17.5-26.8c-0.5,0-0.9,0-1.4,0c0,0,2.3-2.1-0.6-10.4c-2.8-8.3-1.9-20-1.9-20
	s-10.4-4.5-9.6-11.7c0.8-7.2,5.5-9.5,5.5-9.5l0.6-26.1c0,0,8.1-19.6,25.3-21.4C533.8,112,547,116,547,116s11.7,5.1,10.4,38.9
	c0,0,4.9,9.1-2.3,18.1c0,0-5.1,7.2-5.9,11c-0.8,3.8-4.9,18-8.5,20.8c-3.6,2.8,4.5,12.3,4.5,12.3s10.4,20.6,27,24.6
	c16.6,4,33.1,4.9,33.1,37c0,32.1,4.3,50.8,10.6,64.2c6.2,13.4-0.4,35.9-0.4,35.9s-9.9,5.8-16.2,7c-6.2,1.2-9.3,4.5-12,16
	s-9.5,29,0.1,79.5c9.6,50.5,9.1,116.5,9.1,116.5s7.4,64.3,1.4,91c-6,26.7-9.1,19.6-8.8,57.8c0.3,38.3-2,104.3,17.6,120.8
	S644.3,884.4,644.3,884.4z"/>
<path class="st1" d="M475.8,255.1c0,0-2.3,12.5-19.6,13.2c-17.4,0.8-17.8-19.3-17.8-19.3s0.8,0,0,0l6.7-9.7c7.8,8.4,30,4,30,4
	L475.8,255.1z"/>
<path class="st1" d="M553.3,258.5l-1.5,90l-5.7-0.8c0-8.3-3.8-25.7-3.8-25.7l-46.2-100.8c0,0-2.9-1.9-5.5-2.2l6.7-6.3
	c18.1,0.7,17.4,22,18.9,26.8c1.5,4.9,8.3,1.9,12.5-3.4c4.2-5.3,7.6-1.5,17,3.4C555.2,244.5,553.3,258.5,553.3,258.5z"/>
</svg>
