<?xml version="1.0" encoding="utf-8"?>
<!-- Generator: Adobe Illustrator 27.1.1, SVG Export Plug-In . SVG Version: 6.00 Build 0)  -->
<svg version="1.1" xmlns="http://www.w3.org/2000/svg" xmlns:xlink="http://www.w3.org/1999/xlink" x="0px" y="0px"
	 viewBox="0 0 1000 1000" style="enable-background:new 0 0 1000 1000;" xml:space="preserve">
<style type="text/css">
	.st0{display:none;}
	.st1{fill:#D6A876;}
	.st2{fill:#ECDDBF;}
	.st3{fill:#220B0F;}
	.st4{fill:#7E603F;}
	.st5{fill:#6F4E32;}
	.st6{fill:#ECDFC2;}
	.st7{fill:#371910;}
	.st8{fill:#A27C56;}
	.st9{fill:#D6A776;}
	.st10{fill:#C78866;}
</style>
<g id="Calque_1" class="st0">
	
		<image style="display:inline;overflow:visible;" width="1600" height="900" xlink:href="../minimalist_gta_v_trevor_by_zackfilmsv2_d8j07tu-fullview.jpg"  transform="matrix(2.6077 0 0 2.6077 -2860.6667 90.1024)">
	</image>
</g>
<g id="Calque_2">
	<path class="st1" d="M816.3,485.5c0,0-19,47.4-38.4,69.7c-3.1,3.6-6.2,6.5-9.2,8.5c-0.3,0.2-0.7,0.4-1,0.6
		c-21.5,12.8-35.6-21-35.6-21s0.8-10.5,1.2-24.1c0.3-9.6,0.3-20.6-0.2-30.7c0-0.7-0.1-1.5-0.1-2.2c0,0-14.5-49.3-11.1-79.9
		c3.4-30.6,28.1-40,28.1-40s44.2-10.2,56.1,16.2C818,409,826.5,398.8,816.3,485.5z"/>
	<path class="st1" d="M677.4,394.5c-1.4-9.1-8.9-40-19.7-75.9C643,269.7,622,211.6,601.2,187c0,0,15.3-2.9,28.6-7.3
		c15.5-5.1,28.4-12.2,12.1-19.1c-7.8-3.3-13.1-6-17.6-8.4c-13.1-6.9-19.6-11.1-61.8-18.8c0,0-81.4,11.7-105.8,12.3
		c-24.4,0.6-46.5,1.3-52.7-2.3c-6.2-3.6,14.7-3.2,14.7-3.2s55-1.1,61.2-2.8c6.2-1.7,57.6-6,69.5-9.8c0,0,1.3-1.7-22.5-4.2
		c-23.8-2.5-93.9-4.5-123.4,7.4c-29.5,11.9-47,13.8-66.3,50.7c0,0-7.6,13.8-8.5,51.8h-8.3c0,0,4.2-42.1,8.3-48.8
		c0,0,4.9-16.8-3.4-0.9c-8.3,15.9-20,31.7-21.2,52.7l-8.7,0.2c0,0,24-60.7,32.9-68.6s-14.4,9.8-14.4,9.8s-32.1,33.5-36.1,49.1
		l-8.1-0.8c0,0,30.8-48,40.4-54c5.2-3.2-8,4.5-21.2,12.4c-15.2,17.9-42.6,55.1-52.9,82.1c-13.3,34.9-15.6,75.7-17,106.9
		c-0.7,14.7,0.2,23,1.5,29c5.3-9.7,14-20.6,27.1-22.5c24.4-3.4,77.1,16.2,77.1,16.2c0.3,1.1-6,30.1-6,30.1s-76.2-16.7-87.9,3.1
		l-5.3-3.4c0.6,11.2-0.3,23.5-0.3,23.5c-1.7,24.1,27.8,55.6,27.8,55.6s-8.5,55.8-2.8,65.8c5.7,9.9,13.3,30.9,20.7,41.1
		c6.8,9.4,10.7,41.9,11.3,47c-0.3-22,2.7-62.3,26.4-87.2c34-35.7,74.8-48.5,74.8-48.5s51.9-24.7,106.3,7.7
		c54.4,32.3,73.1,45.1,85,46.8c11.2,1.6,52.9-3.4,100.6-56.1c0.8-16.9,3-66.5,3.1-99.4C678.5,409.6,678.2,399.6,677.4,394.5z
		 M295,459.4c0,0-20.2,14.4-28.7,9.8c-8.5-4.5-11.9-14-8.5-22.7c0,0,11.5-20.8,38-19.8c26.5,0.9,27,10,27,10s6.6,13-6.8,11.5
		C302.5,446.7,295,459.4,295,459.4z M329.7,537.2c0,0-11.1,3-12.5-14.4c-0.1-1.1,5.3-13.2,18.3-7c13,6.2,12.1,2.5,17.6,8.1
		C358.6,529.7,329.7,537.2,329.7,537.2z M423.7,497.3c-13.2-0.4-21.2-4.9-28.4-0.8c-7.2,4.2-9.8,13.6-9.8,13.6s-20.6,4.1-14.4-16.6
		c0,0,34-20,52.9-11.7C424,481.8,436.9,497.7,423.7,497.3z M528.3,369.6c0,0-17,19.1-73.7,21.4c0,0-16.2,3.4-10.2-14
		c0,0,3.4-25,48.8-17.6C538.5,366.8,528.3,369.6,528.3,369.6z M447.8,344.6c-18.8,25.1-15.5,26.1-14.8,26.1
		c-1.8,0.2-28.8,2.7-35.1,8.5c-6.5,6-22.7-22.1-22.7-22.1s68-72.6,114.5-71.4c46.5,1.1,57.8,30.6,57.8,30.6S468.2,317.4,447.8,344.6
		z"/>
	<path class="st2" d="M315.9,448.2c-13.4-1.5-21,11.2-21,11.2s-20.2,14.4-28.7,9.8c-8.5-4.5-11.9-14-8.5-22.7c0,0,11.5-20.8,38-19.8
		c26.5,0.9,27,10,27,10S329.3,449.7,315.9,448.2z"/>
	<path class="st3" d="M318.9,426c0,0-76.2-16.7-87.9,3.1l-5.3-3.4l-11.7-7.4c0,0,2-7.6,6.7-16.1c5.3-9.7,14-20.6,27.1-22.5
		c24.4-3.4,77.1,16.2,77.1,16.2C325.1,397.1,318.9,426,318.9,426z"/>
	<path class="st4" d="M329.7,537.2c0,0-11.1,3-12.5-14.4c-0.1-1.1,5.3-13.2,18.3-7c13,6.2,12.1,2.5,17.6,8.1
		C358.6,529.7,329.7,537.2,329.7,537.2z"/>
	<path class="st5" d="M423.7,497.3c-13.2-0.4-21.2-4.9-28.4-0.8c-7.2,4.2-9.8,13.6-9.8,13.6s-20.6,4.1-14.4-16.6
		c0,0,34-20,52.9-11.7C424,481.8,436.9,497.7,423.7,497.3z"/>
	<path class="st6" d="M528.3,369.6c0,0-17,19.1-73.7,21.4c0,0-16.2,3.4-10.2-14c0,0,3.4-25,48.8-17.6
		C538.5,366.8,528.3,369.6,528.3,369.6z"/>
	<path class="st3" d="M547.6,316.3c0,0-79.4,1.1-99.8,28.3c-18.8,25.1-15.5,26.1-14.8,26.1c-1.8,0.2-28.8,2.7-35.1,8.5
		c-6.5,6-22.7-22.1-22.7-22.1s68-72.6,114.5-71.4C536.3,286.8,547.6,316.3,547.6,316.3z"/>
	<path class="st7" d="M818.6,528.3c0,0-4,40.2,3.4,72s-30.6,82.8-49.3,86.7c0,0-2.1-35.3-3.6-75c-0.6-15.9-1.1-32.4-1.3-47.7
		c0.3-0.2,0.7-0.4,1-0.6c3.1-2,6.2-4.9,9.2-8.5c19.4-22.3,38.4-69.7,38.4-69.7c10.2-86.7,1.7-76.5-10.2-102.9
		c-11.9-26.4-56.1-16.2-56.1-16.2s-24.7,9.3-28.1,40c-3.4,30.6,11.1,79.9,11.1,79.9c0,0.7,0.1,1.4,0.1,2.2c0.6,10,0.5,21.1,0.2,30.7
		c-8,4.9-20.1,11-32.7,12.6c-8.6,1.1-17.4,0.1-25.5-4.6c0,0,0.1-2.1,0.3-5.9c0.8-16.9,3-66.5,3.1-99.4c0-12.3-0.3-22.3-1.1-27.4
		c-1.4-9.1-8.9-40-19.7-75.9C643,269.7,622,211.6,601.2,187c0,0,15.3-2.9,28.6-7.3c15.5-5.1,28.4-12.2,12.1-19.1
		c-7.8-3.3-13.1-6-17.6-8.4c-13.1-6.9-19.6-11.1-61.8-18.8c0,0-81.4,11.7-105.8,12.3c-24.4,0.6-46.5,1.3-52.7-2.3
		c-6.2-3.6,14.7-3.2,14.7-3.2s55-1.1,61.2-2.8c6.2-1.7,57.6-6,69.5-9.8c0,0,1.3-1.7-22.5-4.2c-23.8-2.5-93.9-4.5-123.4,7.4
		c-29.5,11.9-47,13.8-66.3,50.7c0,0-7.6,13.8-8.5,51.8h-8.3c0,0,4.2-42.1,8.3-48.8c0,0,4.9-16.8-3.4-0.9
		c-8.3,15.9-20,31.7-21.2,52.7l-8.7,0.2c0,0,24-60.7,32.9-68.6s-14.4,9.8-14.4,9.8s-32.1,33.5-36.1,49.1l-8.1-0.8
		c0,0,30.8-48,40.4-54c5.2-3.2-8,4.5-21.2,12.4c-11.4,6.8-23,13.7-23,13.7s-22.3,16.2-28.9,26.4c-6.6,10.2-4.3-7.4-4.3-7.4
		s48.9-40.1,69.9-49.9c21-9.8-12.3-4.5-28.9,11.3c0,0-23.6,1,21.4-18.3c0,0,17.6-5.3,25.1-7.4c7.5-2.1-42-5.5-74.3,36.5
		c0,0-20.2,22.1-8.5-4c11.7-26.1,69.7-39.5,70.3-39.5c0.6,0,5.7-1.9,21.7-1.3l9.1,0.9c0,0,4.2-5,17.4-11.2
		c22-10.3,68.9-24,163.3-24.4c39.6-0.2,72.8,7.3,100.2,18.4c77.4,31.3,109,91.6,109,91.6L790.3,331c0,0,52.2,73.7,46.5,130.4
		S818.6,528.3,818.6,528.3z"/>
	<path class="st8" d="M767.7,564.4c-21.5,12.8-35.6-21-35.6-21s0.8-10.5,1.2-24.1c-8,4.9-20.1,11-32.7,12.6
		c-8.6,1.1-17.4,0.1-25.5-4.6c0,0,0.1-2.1,0.3-5.9C627.7,574,586,579,574.8,577.4c-11.9-1.7-30.6-14.5-85-46.8
		c-54.4-32.3-106.3-7.7-106.3-7.7s-40.8,12.8-74.8,48.5c-23.7,24.9-26.8,65.2-26.4,87.2c0,0,0,0,0,0c0.2,9.5,0.9,15.7,0.9,15.7
		c27.7,115.8,72.1,128.4,72.1,128.4c87.7,11.7,265.3-61.2,294.8-79.8c29.5-18.5,88.4-63.9,94.1-76.7c3.9-8.8,17-25,24.9-34.2
		C768.5,596.2,768,579.6,767.7,564.4z M521.5,660.4c-20.4,17.6-47.6,10.8-47.6,10.8s-53.3-11.9-74.8,2.3c0,0-36.6,9.1-48.6,32.3
		c0,0-40.4,6.8-42.1-49.3c0,0-2.3-67.5,33.5-86.7c35.7-19.3,37.4,9.1,37.4,9.1s3.4-40.3,57.8-28.3c54.4,11.9,77.1,38,77.1,38
		S541.9,642.9,521.5,660.4z"/>
	<path class="st9" d="M514.2,588.4c0,0-22.7-26.1-77.1-38c-54.4-11.9-57.8,28.3-57.8,28.3s-1.7-28.3-37.4-9.1
		c-35.7,19.3-33.5,86.7-33.5,86.7c1.7,56.1,42.1,49.3,42.1,49.3c12-23.2,48.6-32.3,48.6-32.3c21.5-14.2,74.8-2.3,74.8-2.3
		s27.2,6.8,47.6-10.8C541.9,642.9,514.2,588.4,514.2,588.4z M492.6,600.9c0,0-68.6,30-87.3,34c0,0-58.9,17-80.5,10.8
		c0,0,12.5-33.5,36.3-39.7c23.8-6.2,122.8-11.6,136.4-16.1C511,585.3,492.6,600.9,492.6,600.9z"/>
	<path class="st10" d="M492.6,600.9c0,0-68.6,30-87.3,34c0,0-58.9,17-80.5,10.8c0,0,12.5-33.5,36.3-39.7
		c23.8-6.2,122.8-11.6,136.4-16.1C511,585.3,492.6,600.9,492.6,600.9z"/>
</g>
</svg>
