<?xml version="1.0" encoding="utf-8"?>
<!-- Generator: Adobe Illustrator 27.1.1, SVG Export Plug-In . SVG Version: 6.00 Build 0)  -->
<svg version="1.1" id="Calque_2" xmlns="http://www.w3.org/2000/svg" xmlns:xlink="http://www.w3.org/1999/xlink" x="0px" y="0px"
	 viewBox="0 0 1000 1000" style="enable-background:new 0 0 1000 1000;" xml:space="preserve">
<style type="text/css">
	.st0{fill:#952A19;}
	.st1{fill:#F7D78B;}
	.st2{fill:none;stroke:#000000;stroke-miterlimit:10;}
	.st3{fill:#6E2810;}
	.st4{fill:none;stroke:#000000;stroke-width:2;stroke-miterlimit:10;}
	.st5{fill:#2D110D;}
</style>
<path class="st0" d="M823.6,539.1c0,0-1.8,41.9-14.2,17.8c-0.9-8.8-3.8-18.5-11.8-23.8c-1.7-1.1-3.3-2-4.8-2.7
	c-14.4-6.6-23.8,2.6-21.5,33.3c0,0-17,18.7-22.1,39.1c-5.1,20.4-11.9,17.9-10.2,39.1l-17-3.4c0,0,6.8-72.3,0.9-111.4
	c-6-39.1-2.6-91.8-2.6-91.8S681.1,375,665,360.5l-1.7-20.4c0,0-51.9-23.8-79.9-24.7c0,0-47.6,105.5-101.2,125
	c-16.3,6-32.1,15.1-49.9,26.5c-5.9,3.8-12.1,7.9-18.5,12.2c-25.9,17.2-56.7,38.1-98.3,60.7c-19.3,10.5-40.9,21.4-65.4,32.4
	c0,0-17.9-179.4-2.5-216.8c15.3-37.4,69.7-131,123.3-153.9c52.8-22.6,147.6-45.2,216.3-0.4c0,0,43.4-1.6,91,24.5
	c0,0,27.2-12.5,68,11.3s-11.1,4.9-11.1,4.9s-45.5,7.6-52.4,22.3c0,0,30.6,29.5,38.6,45.4c0,0,2.8,9.1,18.1,13
	c15.3,4,28.9,6.2,34.6,28.4c5.7,22.1-1.7,18.1,16.4,26.1c0,0,9.6,14.2-14.2,10.2c0,0-28.4-22.7-16.4-1.7c0,0,7.9,10.8,15.9,44.8
	C783.5,464.3,793,498.9,823.6,539.1z"/>
<path class="st1" d="M809.4,556.9c-0.9-8.8-3.8-18.5-11.8-23.8c-1.7-1.1-3.3-2-4.8-2.7c-14.4-6.6-23.8,2.6-21.5,33.3
	c0,0-17,18.7-22.1,39.1c-5.1,20.4-11.9,17.9-10.2,39.1l-17-3.4c0,0,6.8-72.3,0.9-111.4c-6-39.1-2.6-91.8-2.6-91.8
	S681.1,375,665,360.5l-1.7-20.4c0,0-51.9-23.8-79.9-24.7c0,0-47.6,105.5-101.2,125c-16.3,6-32.1,15.1-49.9,26.5
	c10.6,7.6,22.4,15.5,28.1,17.5c0,0-1.5,14-21.2,6.4c-8.3-3.2-17.6-7.7-25.5-11.8c-25.9,17.2-56.7,38.1-98.3,60.7l-5.9,5.5
	c0,0,2.3,133.8,11.3,161c9.1,27.2,99.8,133.8,127,142.9c27.2,9.1,106.6,11.3,106.6,11.3s77.1-34,93-47.6
	c15.9-13.6,83.9-74.8,93-95.2c9.1-20.4,28.3-68,30.9-87.6c2.5-19.6,37.4-54.4,37.4-54.4S810.4,566.9,809.4,556.9z M346.9,526.3
	c1-0.7,57.5-39.4,113.9,16.2C459.6,541.5,407.4,499.5,346.9,526.3z M404.8,710.9l200.7,3.4 M675.2,540.2c0,0-38.3-40.8-117.3-2.5
	c0,0,65.7-66.6,120.8,3.3C678.9,541.3,675.2,540.2,675.2,540.2z M659,461.7c-10.2,6-73.1,17.9-81.6,28.9c-8.5,11-28.1-0.9-33.2-6
	c0,0,36.6-23,49.3-32.3c12.8-9.4,59.5-22.1,77.4-8.5c17.9,13.6,17.9,21.3,17.9,21.3S669.2,455.8,659,461.7z"/>
<path class="st2" d="M809.4,556.9"/>
<path class="st2" d="M792.8,530.5"/>
<path class="st3" d="M688.8,465.1c0,0-19.6-9.4-29.8-3.4c-10.2,6-73.1,17.9-81.6,28.9c-8.5,11-28.1-0.9-33.2-6
	c0,0,36.6-23,49.3-32.3c12.8-9.4,59.5-22.1,77.4-8.5C688.8,457.5,688.8,465.1,688.8,465.1z"/>
<path class="st3" d="M460.3,484.5c0,0-1.5,14-21.2,6.4c-8.3-3.2-17.6-7.7-25.5-11.8c6.5-4.3,12.6-8.4,18.5-12.2
	C442.8,474.5,454.6,482.5,460.3,484.5z"/>
<path class="st4" d="M490.9,566.9c0,0-30.6,96.4-18.1,106.6c12.5,10.2,40.8,6.8,40.8,6.8"/>
<path class="st5" d="M675.2,540.2c0,0-38.3-40.8-117.3-2.5c0,0,65.7-66.6,120.8,3.3C678.9,541.3,675.2,540.2,675.2,540.2z"/>
<path class="st5" d="M460.8,542.5c-1.2-1-53.4-43-113.9-16.2C348,525.6,404.4,486.9,460.8,542.5z"/>
<path class="st4" d="M605.4,714.3l-200.7-3.4C404.8,710.9,500.8,824,605.4,714.3z"/>
</svg>
