<?xml version="1.0" encoding="utf-8"?>
<!-- Generator: Adobe Illustrator 27.1.1, SVG Export Plug-In . SVG Version: 6.00 Build 0)  -->
<svg version="1.1" xmlns="http://www.w3.org/2000/svg" xmlns:xlink="http://www.w3.org/1999/xlink" x="0px" y="0px"
	 viewBox="0 0 1000 1000" style="enable-background:new 0 0 1000 1000;" xml:space="preserve">
<style type="text/css">
	.st0{display:none;}
	.st1{fill:#9A5016;}
	.st2{fill:#E3B083;}
</style>
<g id="Calque_1" class="st0">
	
		<image style="display:inline;overflow:visible;" width="900" height="834" xlink:href="../Nouveau dossier/ssbu_sora_stock_icon_by_sonilan_de42ilu-fullview.png"  transform="matrix(1.1181 0 0 1.1181 -5.1282 38.655)">
	</image>
</g>
<g id="Calque_2">
	<path class="st1" d="M770.4,500c0,0-5.1,17.6,16.6,33.5c21.7,15.9,37.2,27.6,39.5,37.6c0,0-46.9,1.7-55.2,7.9
		c0,0,11.5,17.2,9.1,43.7c0,0,3.2,36.1,8.1,49.3c4.9,13.2-3.4,8.3-3.4,8.3s-22.5-37.2-22.5-25.5c0,0.6,1.1,16.1,1.1,16.1
		s-4,1.3-9.6-8.1c-2.2-3.6-5.6-12.4-9.8-22.2c-6.8-15.9-15.5-34.6-24-38.4c0,0-8.5-8.3-7.8,3.4c0.6,9.1-0.4,61.3-0.9,84.3
		c-0.1,6.7-0.2,10.9-0.2,10.9s4,81.2,0.9,92.2c0,0-11.2-19.7-16.2-32.3c0,0-14,61-19.1,69.9c-5,8.7,3.1-73.4,1.6-98.3
		c0-0.4-0.1-0.8-0.1-1.2c-1.9-23.2,2.5-35.9-14.9-100.2c0,0-17.8-82.8-32.1-107c0,0-2.6-6-3.7-6.2c-1.1-0.3-1.7,2-2,9.3
		c-0.3,7.4-7.9,77.7-14.5,85.9c-6.5,8.2-6.5-2.8-6.5-2.8s-7.4-76-11.3-86.2c0,0-2.6-16.4-6.2-4.5c-3.7,11.9-32,75.1-68.3,106.9
		c0,0,23-96.4,23-100.9l-9.9,5.4c0,0-38.6,101.8-68.9,137.5c0,0,13.3-68,11.6-88.2c0,0-21,43.6-35.4,52.2c0,0,12.5-48.2,10.2-61.2
		c0,0-69.4,51.3-93.3,112c0,0-5.4,8.2-7.7,11.6c-2.3,3.4-1.1,4.5-1.7,5.4c-0.6,0.9-6.8,12.2-9.1,1.7c-2.3-10.5,1.7-77.1,15.3-100.1
		c0,0-4.8-3.4-12.8,7.1c0,0-6.5,13-11.1,17c-4.5,4-6.8,70.9,11.6,104.9c18.4,34,24.5,48.8,24.5,48.8s-11.3,23.4-1.1,52.9
		c10.2,29.5,3,25.7,3,25.7s-54-111.9-62.7-161c0,0-10.6,4.5-12.1,21.2c-1.5,16.6-13.2,74.8-13.2,74.8s-6.8,13.6-6.8,0.8
		c0-12.8,3.4-53.3,0.8-62l-25.7,32.9c0,0-3.8-2.3-1.5-15.5c2.3-13.2,4.5-27.6,3.8-36.3c-0.8-8.7-6-20.8-6-20.8s-3-1.9-5.3-25.7
		c-2.3-23.8-3.4-30.6-3.4-30.6s-1.9,0.4-7.2,4.1c-5.3,3.8-18.5,12.9-18.5,12.9s-16.3,6-11.3-1.5c4.9-7.6,30.6-64.2,30.6-64.2
		s2.1-0.4,2.1-10c0-9.6-1.5-41.2-1.5-41.2s0-5.7-5.5,0.4c-5.5,6-47.8,43.5-47.8,43.5l37.4-61.2l-73-58.6l6.2-5.1
		c0,0-58.4-54.4-100.1-78.2l119.9-10.2c0,0,10.2-2.3,1.4-5.7c-8.8-3.4-49.3-24.7-57.5-26.1c-8.2-1.4,153.4-54.1,210.1-43.9
		c0,0,2-8.5,1.7-11.1c0,0-15.3-11.3-20.4-15.6c0,0-30.6-13-54.4-48.2c0,0-5.4-6.2,11.3-0.3c16.7,6,70.9,12.5,88.2,13.3
		c17,0.8,75.1,9,75.4,9.1c0,0,2,1.8,0-11.8c-2-13.6-5.4-74.7,6.5-90.6c0,0,17.4,61.4,76.3,92c0,0,12.9,6.8,20,25.7
		c0,0,23-9.5,36.3-9.5c13.2,0,40.4-2.7,60.5,2.3c20,4.9,90.3,5.7,90.3,5.7s128.1,10.6,156.5,17c0,0-66.9,31-66.9,33.6
		c0,2.6,30.2,3.8,30.2,3.8s100.2-10.2,109.6-6.4c0,0-80.5,72.6-85.8,81.3c0,0-11.3,13-11.3,14.4s31.4,3.6,31.4,3.6
		S798.2,448.4,770.4,500z"/>
	<path class="st1" d="M653.1,765.7c-1.6,76.7-9.1,104.2-9.1,104.2s-7.1,15.3-7.4-16.4c-0.2-20.8-4.8-40.6-8.1-51.9
		C636.7,790.9,644.9,779,653.1,765.7z"/>
	<path class="st2" d="M678.7,732.2c-11.3,13.8-19.2,22.9-19.2,22.9c-2.1,3.6-4.2,7.1-6.4,10.5c-8.3,13.4-16.5,25.3-24.6,35.9
		c-70.8,93-132.3,87.4-132.3,87.4s-7.2,3.8-52.5-24.6c-45.4-28.3-78.2-85-78.2-85s-6-14.8-24.5-48.8c-18.4-34-16.2-100.9-11.6-104.9
		c4.5-4,11.1-17,11.1-17c7.9-10.5,12.8-7.1,12.8-7.1c-13.6,23-17.6,89.6-15.3,100.1c2.3,10.5,8.5-0.8,9.1-1.7c0.6-0.8-0.6-2,1.7-5.4
		c2.3-3.4,7.7-11.6,7.7-11.6c23.8-60.7,93.3-112,93.3-112c2.3,13-10.2,61.2-10.2,61.2c14.5-8.5,35.4-52.2,35.4-52.2
		c1.7,20.1-11.6,88.2-11.6,88.2c30.3-35.7,68.9-137.5,68.9-137.5l9.9-5.4c0,4.5-23,100.9-23,100.9c36.3-31.7,64.6-95,68.3-106.9
		c3.7-11.9,6.2,4.5,6.2,4.5c4,10.2,11.3,86.2,11.3,86.2s0,11,6.5,2.8c6.5-8.2,14.2-78.5,14.5-85.9c0.3-7.4,0.9-9.6,2-9.3
		c1.1,0.3,3.7,6.2,3.7,6.2c14.4,24.2,32.1,107,32.1,107c17.4,64.3,13,76.9,14.9,100.2C678.6,731.3,678.6,731.7,678.7,732.2z"/>
	<path class="st2" d="M711.7,689.8c0.5-23,1.5-75.3,0.9-84.3c-0.8-11.7,7.8-3.4,7.8-3.4c8.5,3.9,17.3,22.5,24,38.4
		C736.1,655.4,724.1,673,711.7,689.8z"/>
</g>
</svg>
