<?xml version="1.0" encoding="utf-8"?>
<!-- Generator: Adobe Illustrator 27.1.1, SVG Export Plug-In . SVG Version: 6.00 Build 0)  -->
<svg version="1.1" xmlns="http://www.w3.org/2000/svg" xmlns:xlink="http://www.w3.org/1999/xlink" x="0px" y="0px"
	 viewBox="0 0 1000 1000" style="enable-background:new 0 0 1000 1000;" xml:space="preserve">
<style type="text/css">
	.st0{display:none;}
	.st1{fill:#A97D66;}
	.st2{fill:none;stroke:#000000;stroke-miterlimit:10;}
	.st3{fill:#281F14;}
	.st4{fill:#FFFFFF;}
	.st5{fill:#6A4030;}
	.st6{fill:#3F2314;}
	.st7{fill:#A77B64;}
	.st8{fill:#503D8B;}
	.st9{fill:none;}
</style>
<g id="Calque_1" class="st0">
	
		<image style="display:inline;overflow:visible;" width="199" height="400" xlink:href="../Nouveau dossier/unnamed.png"  transform="matrix(7.7905 0 0 7.7905 -260.808 71.3937)">
	</image>
</g>
<g id="Calque_2">
	<path class="st1" d="M799,397.9v-99.8H212v101.5H108.2v498.9h198.2V695.3h397.1v203.2h199V397.9H799z M806.5,600.9H603.2v93H407
		v-95.2H201.8V496.6H407v102.1h196.1V498.3h100.9v-0.2h102.4V600.9z"/>
	<polyline class="st2" points="902.8,103.1 902.8,397.9 902.5,397.9 902.5,103.1 	"/>
	<polygon class="st3" points="799,103.1 108.2,103.1 108.2,399.6 212,399.6 212,298.2 799,298.2 799,397.9 902.5,397.9 902.5,103.1 
			"/>
	<rect x="201.8" y="496.6" class="st4" width="105.5" height="102"/>
	<rect x="704.1" y="498.1" class="st4" width="102.4" height="102.8"/>
	<rect x="407" y="598.6" class="st5" width="196.1" height="95.2"/>
	<polygon class="st6" points="703.5,695.3 703.5,898.5 306.4,898.5 306.4,695.3 400.8,695.3 400.8,794.2 608.3,794.2 608.3,695.3 	
		"/>
	<rect x="306.4" y="898.5" class="st2" width="397.1" height="0.8"/>
	<rect x="400.8" y="695.3" class="st7" width="207.5" height="98.9"/>
	<rect x="307.2" y="496.6" class="st8" width="99.8" height="102"/>
	<rect x="603.2" y="498.3" class="st8" width="100.9" height="102.6"/>
	<line class="st9" x1="902.8" y1="103.1" x2="902.5" y2="103.1"/>
</g>
</svg>
