<?xml version="1.0" encoding="utf-8"?>
<!-- Generator: Adobe Illustrator 27.4.1, SVG Export Plug-In . SVG Version: 6.00 Build 0)  -->
<svg version="1.1" id="Calque_1" xmlns="http://www.w3.org/2000/svg" xmlns:xlink="http://www.w3.org/1999/xlink" x="0px" y="0px"
	 viewBox="0 0 1000 1000" style="enable-background:new 0 0 1000 1000;" xml:space="preserve">
<style type="text/css">
	.st0{display:none;}
	.st1{fill:#204797;}
	.st2{fill:#FFFFFF;}
	.st3{fill:#1E4796;}
</style>
<g id="Calque_1_00000018229117552414524790000005287761514066539181_" class="st0">
</g>
<g id="Calque_2_00000109001645439641142480000012509698846430534041_">
	<path class="st1" d="M128.6,462.6c0,0-71.4-148.8-41.7-173.5c0,0,72.3-6.8,110.6,31.5c0,0,10.2,7.7,30.6-11.1
		c20.4-18.7,128.4-111.4,232.2-125.9s197.3-3.4,197.3-3.4s141.2,44.2,172.6,83.3c0,0-69.7,28.3-97.8,55.8c0,0,181.1,76,187.9,277.5
		c0,0-121.6-58.7-198.1-32.3c0,0,154.8,99.5,142,259.4c0,0-148-79.9-295.1-67.2c0,0-76.5,4.3-97.8,24.7s-121.6,21.3-121.6,21.3
		s-135.2-15.3-164.1-72.3c0,0-45.1-20.4-47.6-37.4s11.9-24.7,11.9-24.7l11.9-0.9C161.7,667.6,90.3,495.8,128.6,462.6z"/>
	<path class="st2" d="M149.8,499.2c0,0-12.8,93.5,25.5,164.1c0,0,36.6,11.9,61.2,24.7C236.6,688,171.1,535.8,149.8,499.2z"/>
	<path class="st2" d="M247.6,643.8l3.4,31.5c0,0,42.5-6,63.8-1.7s85,16.2,102.9,7.7s55.3-13.6,71.4-70.6c16.2-57-3.4-142-3.4-142
		s-44.2-51.9-85.9-35.7c-41.7,16.2-66.3,89.3-66.3,89.3s-27.2,112.3-47.6,120.8L247.6,643.8z"/>
	<path class="st3" d="M404.1,557c0,0,17-43.3,32.3-6.7s10.2,90.1,10.2,90.1s-9.4,47.6-28.9,6S404.1,557,404.1,557z"/>
</g>
</svg>
