<?xml version="1.0" encoding="utf-8"?>
<!-- Generator: Adobe Illustrator 27.1.1, SVG Export Plug-In . SVG Version: 6.00 Build 0)  -->
<svg version="1.1" xmlns="http://www.w3.org/2000/svg" xmlns:xlink="http://www.w3.org/1999/xlink" x="0px" y="0px"
	 viewBox="0 0 1000 1000" style="enable-background:new 0 0 1000 1000;" xml:space="preserve">
<style type="text/css">
	.st0{display:none;}
	.st1{fill:#76AE2F;}
	.st2{fill:#057B3B;}
	.st3{fill:#A0C123;}
	.st4{fill:#4C9E34;}
</style>
<g id="Calque_1" class="st0">
</g>
<g id="Calque_2">
	
		<image style="overflow:visible;" width="928" height="1200" xlink:href="../Nouveau dossier/large.sims-4-logo-pack-jeu-gamepack-strangerville-plumbob.png.51d5eeab78d279e3eeb67a35e94341c2.png"  transform="matrix(1.3202 0 0 1.3202 877.8819 -269.3307)">
	</image>
	<polygon class="st1" points="715.8,518.1 612.9,518.1 560.7,304.3 508.3,89.4 456,304.3 403.9,518.2 300.8,518.2 404.5,302.9 
		508.2,87.6 612,302.8 	"/>
	<polygon class="st2" points="716,519.1 612.3,734.5 508.6,949.8 404.8,734.5 301,519.2 404.1,519.2 456.2,733.2 508.7,948 
		561,733.1 613.1,519.1 	"/>
	<polygon class="st3" points="612.9,518.1 508.3,518.2 403.9,518.2 456,304.3 508.3,89.4 560.7,304.3 	"/>
	<polygon class="st4" points="613.1,519.1 561,733.1 508.7,948 456.2,733.2 404.1,519.2 508.5,519.2 	"/>
</g>
</svg>
