<?xml version="1.0" encoding="utf-8"?>
<!-- Generator: Adobe Illustrator 27.4.1, SVG Export Plug-In . SVG Version: 6.00 Build 0)  -->
<svg version="1.1" id="Calque_1" xmlns="http://www.w3.org/2000/svg" xmlns:xlink="http://www.w3.org/1999/xlink" x="0px" y="0px"
	 viewBox="0 0 1000 1000" style="enable-background:new 0 0 1000 1000;" xml:space="preserve">
<style type="text/css">
	.st0{display:none;}
	.st1{stroke:#000000;stroke-miterlimit:10;}
	.st2{fill:none;stroke:#000000;stroke-miterlimit:10;}
	.st3{fill:#29261F;}
	.st4{fill:#111210;}
	.st5{fill:#131212;}
	.st6{fill:#5A5C5B;}
	.st7{fill:#1F1C17;}
	.st8{fill:#0C0D0D;}
	.st9{fill:#BE9562;}
	.st10{fill:#030405;}
	.st11{fill:#090B0B;}
	.st12{fill:#C2884C;}
</style>
<g id="Calque_1_00000018220265449473720560000008708363960212304270_" class="st0">
</g>
<g id="Calque_2_00000105417518649466574210000003286001964233312174_">
	<path class="st1" d="M521.7,55.4c-17.8-1.8-32.1-1.2-42.8,0.2c3.9-3.8,10.8-9.8,16-10.5C501.4,44.1,513.4,45.3,521.7,55.4z"/>
	<line class="st2" x1="437.6" y1="66" x2="437.6" y2="66"/>
	<path class="st2" d="M756.8,456.3C756.8,456.3,756.8,456.4,756.8,456.3c0,0.2,0.2,0.7,0.4,0.9c0.2,0.3,0.5,0.2,0.8-1L756.8,456.3z"
		/>
	<path class="st3" d="M757.7,317.7c-4.2-160.7-96.4-211.2-96.4-211.2s-66.9-39.4-121.9-48.8c-6.2-1.1-12.2-1.8-17.7-2.4
		c-17.8-1.8-32.1-1.2-42.8,0.2c-15.3,1.9-23.1,5.3-23.1,5.3c-68.6,15-170.3,72.5-193.7,146.6s-20.8,133.8-20.8,167.8
		s6.4,89.8,6.4,89.8l0.1-0.1l0.2-0.2l0.1-0.2l0.2-0.2l0.2-0.2l0.4-0.5c0.2-0.2,0.3-0.4,0.5-0.6l0.3-0.4c0.8-0.9,1.8-2.1,2.9-3.3
		c1.8-2,3.9-4.2,5.6-5.9l0,0c2-1.9,3.7-3.1,4.2-2.7c1.7,1.5-2.1,52.7-1.3,66.9c0.8,14.2,19.5,12.1,19.5,12.1s7.3-0.5,18.8-6.3
		c1.3-0.7,2.7-1.4,4.1-2.2c1.5-0.8,3.5-1.8,6-3c21.5-10.1,76.9-31.2,76.9-31.2c75.6-21.2,87.7-15.5,124.9-21.2s116,14.9,121.9,17.2
		c4.7,1.8,41.9,16.2,66.3,29.2c0.9,0.5,1.8,1,2.7,1.4c5,2.7,9.2,5.3,12.5,7.7c19.1,14.2,30.8-3,31.7-10.6c1-7.6-3.5-47.2-3.5-50.8
		c0-1,1-1.7,2.4-2.2c4-1.5,11.5-1.5,11.5-1.5l1.1-0.1C759.2,451.2,760.5,425.8,757.7,317.7z M671.8,137.4c23,31,34,54,34,54
		s21.2,46.1,23.4,153.8l0.4,57.4c0,0-1.5,29.1-7.6-0.8c0,0-5.3-83.5-6.8-95.2c-1.5-11.7-8.7-90-13.2-104.7s-16.3-41.4-31.4-61.2
		c-15-19.8-51.3-41.7-51.3-41.7l-50.6-29.6C571.1,70.6,649.1,106.9,671.8,137.4z M443.6,193c6.2,13,19.2,41.2,19.2,41.2l44.6-45
		l41.2,47.2l18.9-46.9c0,0,4.3-10.2,9.4,0s24.4,64.9,23.5,102.6c0,0,1.1,10.2-9.9,2.5c-11-7.6-12.2-9.6-17.3-9.6s-33.5-4.3-35.7-2.5
		c-2.3,1.7-23.2,55-23.2,55s-7.9,9.9-15.3-6.8c-7.4-16.7-21.5-45.9-21.5-45.9s-44.5,1.4-46.5,3.4s-7.1,4.5-8.2,7.1
		c-1.1,2.5-6.8,10.2-6.8,0.6s2.8-76.5,15.6-102.3C431.4,193.6,437.4,179.9,443.6,193z M732.1,438.5c-36.8-27.8-78.4-42.8-78.4-42.8
		c-45.6-24.4-112.6-33.4-112.6-33.4c-77.1-2.5-81.8,2.1-126.4,9.6s-88.1,26.7-98.8,32.5c-10.8,5.8-39.1,24.6-46.7,31s-6,0.8-6,0.8
		s0.6-1.9,6.2-6c5.7-4.2,4.5-5.9,4.5-5.9l-0.9-29.5c-0.6-34.3,10.5-95.8,10.5-95.8s11.6-54.2,11.9-64.1s5.4-41.4,6.8-50.5
		s8.5-21.5,8.5-21.5s21.5-28.1,29.2-35.7c7.7-7.7,41.1-32.9,47.3-38c0.8-0.6,2-1.4,3.7-2.3c0.1-0.1,0.2-0.1,0.4-0.2
		c0.3-0.1,0.5-0.3,0.8-0.4c0,0,0.1,0,0.1-0.1c0.3-0.1,0.5-0.3,0.8-0.4c3.4-1.7,7.8-3.8,12.5-6c0.6-0.3,1.1-0.5,1.7-0.8
		c4.2-1.9,8.7-3.9,12.8-5.6c0.3-0.1,0.7-0.3,1-0.4c3.1-1.3,5.9-2.5,8.4-3.6c0.5-0.2,0.9-0.4,1.4-0.6c0.3-0.1,0.6-0.2,0.9-0.4
		c0.2-0.1,0.5-0.2,0.7-0.3c0.8-0.3,1.5-0.6,2.1-0.9c0.3-0.1,0.5-0.2,0.8-0.3c1.2-0.5,1.9-0.8,2.2-0.9l-26.7,13.6
		c0,0-47.8,30.2-69.2,55c-21.4,24.8-28.5,53.9-28.5,53.9s-9.4,40.2-9.4,42.9c0,2.6-1.3,16.6-2.3,20s-5.7,30.2-6.2,36.3
		c-0.6,6-8.9,58.8-8.9,58.8s-2.5,55.8-4,66.3c-1.5,10.6,5.1,1.9,5.1,1.9c27.4-15.7,34.4-18.1,54.4-26.8c20-8.7,89.4-25.7,103-29.1
		s88.4-5.3,115.1-1.1c26.6,4.2,100.9,33.6,100.9,33.6s63.9,28.5,74.3,43.7C745.5,450,732.1,438.5,732.1,438.5z"/>
	<path class="st4" d="M600.4,292.2c0.8-37.7-18.4-92.4-23.5-102.6c-5.1-10.2-9.4,0-9.4,0l-18.9,46.9l-41.2-47.2l-44.6,45
		c0,0-12.9-28.2-19.2-41.2c-6.2-13-12.2,0.6-12.2,0.6c-12.8,25.8-15.6,92.7-15.6,102.3s5.7,2,6.8-0.6c1.1-2.5,6.2-5.1,8.2-7.1
		s46.5-3.4,46.5-3.4s14.2,29.2,21.5,45.9c7.4,16.7,15.3,6.8,15.3,6.8s21-53.3,23.2-55c2.3-1.7,30.6,2.5,35.7,2.5s6.2,2,17.3,9.6
		C601.5,302.4,600.4,292.2,600.4,292.2z M423.5,280.3c-5.1-30.3,15.3-78,15.3-78l15.6,43.9L423.5,280.3z M439.3,279.2l20.1-27.2
		l12.8,23L439.3,279.2z M506.5,327.9l-21.8-44.2l45.1-2.3L506.5,327.9z M531.2,272.4l-49.9,1.5l-14-28.3l40.8-43.1l36.3,42.7
		L531.2,272.4z M544.5,272.6l6.5-19.5c0,0,16.7,14.7,19.3,21.8C570.3,274.9,548.5,277.2,544.5,272.6z M592.8,286.3l-37-41.2
		l17.8-46.9C573.5,198.3,598.5,255,592.8,286.3z"/>
	<path class="st3" d="M454.4,246.3l-30.9,34c-5.1-30.3,15.3-78,15.3-78L454.4,246.3z"/>
	<polygon class="st3" points="472.2,274.9 439.3,279.2 459.5,251.9 	"/>
	<polygon class="st3" points="529.8,281.4 506.5,327.9 484.7,283.7 	"/>
	<polygon class="st3" points="544.4,245.2 531.2,272.4 481.3,273.9 467.3,245.5 508.1,202.4 	"/>
	<path class="st3" d="M570.3,274.9c0,0-21.8,2.3-25.8-2.3l6.5-19.5C551,253.1,567.7,267.8,570.3,274.9z"/>
	<path class="st3" d="M592.8,286.3l-37-41.2l17.8-46.9C573.5,198.3,598.5,255,592.8,286.3z"/>
	<path class="st5" d="M729.6,402.7c0,0-1.5,29.1-7.6-0.8c0,0-5.3-83.5-6.8-95.2s-8.7-90-13.2-104.7s-16.3-41.4-31.4-61.2
		c-15-19.8-51.3-41.7-51.3-41.7l-50.6-29.7c2.4,1.1,80.4,37.5,103.1,68c23,31,34,54,34,54s21.2,46.1,23.4,153.8L729.6,402.7z"/>
	<path class="st5" d="M732.1,438.5c-36.8-27.8-78.4-42.8-78.4-42.8c-45.6-24.4-112.6-33.4-112.6-33.4c-77.1-2.5-81.8,2.1-126.4,9.6
		s-88.1,26.7-98.8,32.5c-10.8,5.8-39.1,24.6-46.7,31s-6,0.8-6,0.8s0.6-1.9,6.2-6c5.7-4.2,4.5-5.9,4.5-5.9l-0.9-29.5
		c-0.6-34.3,10.5-95.8,10.5-95.8s11.6-54.2,11.9-64.1s5.4-41.4,6.8-50.5s8.5-21.5,8.5-21.5s21.5-28.1,29.2-35.7
		c7.7-7.7,41.1-32.9,47.3-38c0.8-0.6,2-1.4,3.7-2.3c0.1-0.1,0.2-0.1,0.4-0.2c0.3-0.1,0.5-0.3,0.8-0.4c0,0,0.1,0,0.1-0.1
		c0.3-0.1,0.5-0.3,0.8-0.4c3.4-1.7,7.8-3.8,12.5-6c0.6-0.3,1.1-0.5,1.7-0.8c4.2-1.9,8.7-3.9,12.8-5.6c0.3-0.1,0.7-0.3,1-0.4
		c3.1-1.3,5.9-2.5,8.4-3.6c0.5-0.2,0.9-0.4,1.4-0.6c0.3-0.1,0.6-0.2,0.9-0.4c0.2-0.1,0.5-0.2,0.7-0.3c0.8-0.3,1.5-0.6,2.1-0.9
		c0.3-0.1,0.5-0.2,0.8-0.3c1.2-0.5,1.9-0.8,2.2-0.9l-26.7,13.6c0,0-47.8,30.2-69.2,55c-21.4,24.8-28.5,53.9-28.5,53.9
		s-9.4,40.2-9.4,42.9c0,2.6-1.3,16.6-2.3,20s-5.7,30.2-6.2,36.3c-0.6,6-8.9,58.8-8.9,58.8s-2.5,55.8-4,66.3
		c-1.5,10.6,5.1,1.9,5.1,1.9c27.4-15.7,34.4-18.1,54.4-26.8c20-8.7,89.4-25.7,103-29.1s88.4-5.3,115.1-1.1
		c26.6,4.2,100.9,33.6,100.9,33.6s63.9,28.5,74.3,43.7C745.5,450,732.1,438.5,732.1,438.5z"/>
	<path class="st2" d="M233.8,532.7c-0.1,0.3-0.1,0.7-0.2,1C233.5,533.5,233.5,533.2,233.8,532.7z"/>
	<path class="st6" d="M546.2,735.5c-4.8,0.6-34.9,14.7-34.9,14.7c0.9,12.7-2.3,12.8-2.3,12.8c-19.8,1.5-57.6-10-57.6-10
		c1.9,5.5,38.4,61.2,38.2,55.9c0-0.3,0-0.6,0-0.9c0-5,1.3-9.8,1.3-9.8c4.2,3,25.3,48.9,25.3,48.9s-18.7,23.2-22.3,31
		s-24.2,35-27.4,41.2c-1.9,3.7-11.4,13.4-19,20.8c-8.9-3.8-18.6-8.5-28.7-14.4c8.7-8.5,23.4-23.9,27.7-35.2
		c6.2-16.4,26.8-38.5,26.8-38.5c2.5-11.9-0.3-9.9-7.7-32.6c-7.4-22.7-53.3-72.6-53.3-72.6s-32-34.3-42.2-48.5s4-12.2,9.6-7.9
		c5.7,4.2,38.8,19.3,38.8,19.3c30.6,15.3,94.4,25.2,94.4,25.2S551,735,546.2,735.5z"/>
	<path class="st7" d="M739.8,659.6c-0.6,7.9-19.8,74.3-19.8,74.3c-11.9,68-70.9,130.4-70.9,130.4C558.4,964.7,497.2,955,497.2,955
		s-20.8-2.5-49.6-14.8c7.6-7.4,17.1-17.1,19-20.8c3.2-6.2,23.8-33.4,27.4-41.2c3.6-7.8,22.3-31,22.3-31s-21.2-45.9-25.3-48.9
		c0,0-1.3,4.8-1.3,9.8c0,0.3,0,0.6,0,0.9c0.2,5.3-36.3-50.4-38.2-55.9c0,0,37.8,11.5,57.6,10c0,0,3.2-0.2,2.3-12.8
		c0,0,30-14.2,34.9-14.7c4.8-0.6-33.2-0.6-33.2-0.6s-63.8-9.9-94.4-25.2c0,0-33.2-15-38.8-19.3c-5.7-4.2-19.8-6.2-9.6,7.9
		c10.2,14.2,42.2,48.5,42.2,48.5s45.9,49.9,53.3,72.6c7.4,22.7,10.2,20.7,7.7,32.6c0,0-20.6,22-26.8,38.5
		c-4.3,11.3-18.9,26.7-27.7,35.2c-22-12.9-46-31.3-68-57.5c-64.6-77.1-93.5-200.7-93.5-200.7c0.7-0.2,1.9-1,3.4-2.2
		c2.6-2.2,6.1-5.7,9.4-9.2c4.9-5.2,9.5-10.6,10.8-12.2c2.6-3.4,42.7-20.8,50.3-22.7s83.9-26.8,83.9-26.8s46.9-12.1,60.8-18.5
		c14-6.4,60.1,1.1,75.6,4.2c3.2,0.6,10.7,2.5,20.6,5c-5.6,10.9-19,38.8-19.9,55.5c-1.1,21.2-0.4-1.5-0.4-1.5l-11.7-11.3
		c0,0-1.2,13-2.6,25.8c-0.4,3.8-0.8,7.6-1.2,11c-0.9,7.3-1.7,12.9-2.2,13.4c0,0,12.7,5.5,13.2,10c0,0-2.4,2.1-5.1,2.1
		s49.3,48.4,55,60.5c0,0,13.4,7-72.9,7.6c0,0-5.7-2.3-0.2,4.5s7.4,6.6,7.8,12.3c0,0,3.2,1.3-15.5,1.3c0,0-26.8,5.9-11.1,8.9
		c15.7,3,48.4,4,48.4,4s11.7,0.8,18-1.9c6.2-2.6,30.6-13,30.6-13l8.9,8.1c0,0,35.5-7.4,47.8-7c0,0,1.7-2.3-6.6-5.3
		c-8.3-3-21.9-5.7-21.9-5.7s1.1-5.3,7.8-6.4c0,0-33.5-59.3-66.3-90.7c0,0,0.2-1.2,0.6-3.4c0.5-2.6,1.2-6.6,2.1-11.5
		c3.5-17.6,10.1-46.6,18.5-62c38.4,10.1,89.4,24.1,95.4,27.1c9.1,4.5,41.9,20.8,41.9,20.8s2.4,3.2,4.8,7.4c2.2,3.8,4.3,8.5,4.7,12.3
		C739.8,658.5,739.9,659,739.8,659.6z"/>
	<path class="st6" d="M658.9,775.2c-12.3-0.4-47.8,7-47.8,7l-8.9-8.1c0,0-24.4,10.4-30.6,13c-6.2,2.7-18,1.9-18,1.9
		s-32.7-0.9-48.4-4c-15.7-3,11.1-8.9,11.1-8.9c18.7,0,15.5-1.3,15.5-1.3c-0.4-5.7-2.3-5.5-7.8-12.3s0.2-4.5,0.2-4.5
		c86.4-0.6,72.9-7.6,72.9-7.6c-5.7-12.1-57.6-60.5-55-60.5s5.1-2.1,5.1-2.1c-0.6-4.5-13.2-10-13.2-10c0.5-0.5,1.3-6.1,2.2-13.4
		c0.4-3.4,0.8-7.2,1.2-11c1.4-12.8,2.6-25.8,2.6-25.8l11.7,11.3c0,0-0.8,22.7,0.4,1.5c0.9-16.8,14.3-44.6,19.9-55.5
		c6.2,1.6,13.2,3.4,20.8,5.4c-8.4,15.4-15.1,44.3-18.5,62c-1,4.9-1.7,8.9-2.1,11.5c-0.4,2.1-0.6,3.4-0.6,3.4
		c32.9,31.4,66.3,90.7,66.3,90.7c-6.6,1.1-7.8,6.4-7.8,6.4s13.6,2.6,21.9,5.7C660.6,773,658.9,775.2,658.9,775.2z"/>
	<path class="st8" d="M739.8,657.9c-0.3-3.8-2.5-8.5-4.7-12.3c-2.4-4.2-4.8-7.4-4.8-7.4s-32.9-16.2-41.9-20.8c-6-3-57-17-95.4-27.1
		c-7.6-2-14.7-3.8-20.8-5.4c-9.9-2.5-17.4-4.3-20.6-5c-15.5-3-61.6-10.6-75.6-4.2c-14,6.4-60.8,18.5-60.8,18.5s-76.4,24.9-83.9,26.8
		s-47.6,19.3-50.3,22.7c-1.3,1.6-5.9,7-10.8,12.2c-3.3,3.5-6.8,7-9.4,9.2c0.1-4.3,0.4-10.9,1.6-16.3c0.6-2.9,1.5-5.5,2.6-7.3
		c0,0,4.8-4,12.8-8.5c7.9-4.5,17.6-12.8,17.6-12.8s82.5-25.2,92.4-29.8c9.9-4.5,83.6-26.9,89-28.1c5.4-1.1,47-6,65.8,2.5
		s138.9,36,138.9,36s58.8,13.4,61.4,42.5C743.2,648.1,742.3,652.8,739.8,657.9z"/>
	<path class="st9" d="M775.4,461.2c-2.1-1.5-5-2.8-8.8-3.3c-3.4-0.4-6.3,0-8.8,0.9c-6.5,2.3-9.7,7.6-9.7,7.6
		c5.7,7.4,3.8,19.5,3.8,19.5s5.5,12.1,6.2,18.5c0.8,6.4-1.1,18.7-1.1,18.7s-0.8-8.3-3.8-13.8c-3-5.5-2.7,4.1-3.6,7.6
		c-1,3.4,0.8,15.3,1.9,19.1c0.4,1.4,2.2,3.6,4.3,5.8l6.3-6.8c0,0,11.2,26.3,1.5,41.2c-9.5,14.7-26.7,21.7-27.2,21.9
		c0.2-0.5,6.9-19.1,8.2-34.2c-0.7-0.7-1.3-1.4-1.6-2.1c-1.3-2.8-2.6-1.3-2.6-1.3s0,0,0.9,6.4c1,6.4-1.9,5.1-1.9,5.1s0-4.5-2.1-6.2
		s-1.9,0-2.1,8.3c-0.2,8.3-2.6,29.8-4.2,33.1c-1.5,3.2-6,0-4.5-2.5s1-23.6-0.4-23.8c-1.3-0.2-3.6-1.9-1.9-3c1.7-1.1,1-4.9,1-4.9
		c-0.4-21.5-6-33.3-6-33.3s-2.8-2.3-4.3,7.9s3.6,29.1,0.9,26.1c-0.1-0.2-0.3-0.4-0.5-0.7c-3-4.9-9.3-26.2-9.3-31.1
		c0-5.1-3.4-14.9-5.1-18.5c-0.3-0.7-0.6-1.7-0.8-2.8c-8.8-4.3-42.3-20.3-78-31.2c-41.8-12.7-83.9-15.5-83.9-15.5
		s-69.3-1.5-100.5,7.6s-30.2,10.2-85,28.5c-21.6,7.2-32.7,11.4-39.5,14.2c-6.9,2.9-9.5,4.4-14.1,6.3c-0.3,3.4-0.8,8.4-1.5,14
		c-1.4,10.5-8.8,17-8.8,17s-0.6-14.9-1.4-18.4s-3.1-1.8-4.4-0.3c-1.3,1.6-1.8,7.7-1.8,7.7s-1.3,14.2-2.4,11.6c-1.1-2.5-2,0.7-2,0.7
		s-0.1,6.8-0.1,19.1s-9.2-0.3-9.2-0.3v-7.7c0,0-1-5.5-5.5-1.3c-4.5,4.3-2.5-1.1-2.5-1.1s4-0.1,3.4-10.8v-0.1
		c-2.9,3.9-5.6,10.7-3.2,21.4c0,0,4.2,14.9,8.7,21.4c0,0-29.8-15.3-30.9-26.1c-1.1-10.8-0.3-23.8-0.3-23.8s3.9-8.1,18.2-9.6
		c1.3-2.5,1.1-4.2-5-1.2c-12.3,6.2-5.7-0.8-5.7-0.8c11.2-6.4,8.4-12.1,9.9-18.3c1.6-6.2-2-3.7-2-3.7s-6.8,11.3-5.4,4.5s-2.8-1-3.5-1
		s-3.4,4.3-5.7,7.8c-1.5,2.4-3.6,2.7-4.2,2.1c-0.2,1.2-0.3,1.9-0.3,1.9s-2.3,17.8-2.8,14.7c-0.6-3-1.7-27-1.7-27
		c2.1-18.1-4.3-38.2-4.3-38.2c2.5-4.2,13.8,7.8,16.2,11c2.5,3.2,1.1,14-2.1,19.3c-2.3,3.8-4.1,12.8-4.8,17.4
		c0.1-0.1,0.3-0.3,0.5-0.4c2.3-1.8,18-36,12.5-35.4s-5.1-1.7-5.1-1.7c4.2-1,8.9-6.2,11.1-12.5c2.1-6.2-2.1-2.8-2.3-2.4
		c-0.1,0.4-2.1,9.1-4,6.9c-1.8-2.1,1.3-8.9,1.3-8.9s3-3,1.7-4s-6.8-1.4-7.8-1.8s0.9-1.8,3.5-2c2.7-0.1,4.3-2.2,4.3-2.2
		s0.1-1.5-2.7-3.1c-2.1-1.2-5.7-2.4-12.1-3.2c-14.9-1.7-16.6,12.7-16.6,12.7s6.6,20.6,8.7,54.2c2.1,33.6,6.6,54.4,7.4,58
		c0.5,2.3,5.2,16.6,11.1,30.9c3.4,8.2,7.2,16.3,10.8,22.4c2,3.4,4.2,6.3,6.3,8.7c0.6-2.9,1.5-5.5,2.6-7.3c0,0,4.8-4,12.8-8.5
		c7.9-4.5,17.6-12.8,17.6-12.8s82.5-25.2,92.4-29.8c9.9-4.5,83.6-26.9,89-28.1c5.4-1.1,47-6,65.8,2.5c18.8,8.5,138.9,36,138.9,36
		s58.8,13.4,61.4,42.5c5.6-4.3,11.6-19.1,16.7-35.5c8-25.3,14.1-54.5,14.1-54.5c0.8-52.2,7.8-84.1,7.8-84.1S780.3,464.7,775.4,461.2
		z M771.9,547.7c0.9,12.3-0.6-0.8-0.6-0.8s-6.6-22.7-6.4-39.1c0,0-7-10.8-4-17.8s15.1-15.9,15.1-15.9S771,535.4,771.9,547.7z"/>
	<path class="st10" d="M763.6,549.2c0,0-3,0.4-5.9-0.4c-1.5-0.4-3.6-1.7-5.6-3.1c-1.8-1.3-3.5-2.7-4.8-3.7c-2.6-2.3-3,3-3,3l4,4.8
		l0.9,1.1c0,0,4.2,5.7,2.1,5.5c-1.3-0.1-2.8-2.6-4.5-5c-1-1.4-2-2.7-3.1-3.5c-3-2.3-3.2,0.2-3.2,0.2s1.6,4.4,4.2,8l0,0
		c0.3,0.5,0.7,1,1.1,1.4c3.2,3.8,8.1,9.1,6.4,10c-1.3,0.7-5.2-1.3-7.6-3.6c-0.7-0.7-1.3-1.4-1.6-2.1c-1.3-2.8-2.6-1.3-2.6-1.3
		s0,0,0.9,6.4c1,6.4-1.9,5.1-1.9,5.1s0-4.5-2.1-6.2s-1.9,0-2.1,8.3c-0.2,8.3-2.6,29.8-4.2,33.1c-1.5,3.2-6,0-4.5-2.5
		s1-23.6-0.4-23.8c-1.3-0.2-3.6-1.9-1.9-3c1.7-1.1,1-4.9,1-4.9c-0.4-21.5-6-33.3-6-33.3s-2.8-2.3-4.3,7.9s3.6,29.1,0.9,26.1
		c-0.1-0.2-0.3-0.4-0.5-0.7c-3-4.9-9.3-26.2-9.3-31.1c0-5.1-3.4-14.9-5.1-18.5c-0.3-0.7-0.6-1.7-0.8-2.8c1.5,0.7,2.3,1.1,2.3,1.1
		s18,7.8,20.8,8.9c2.8,1.1,20.4,2.3,23.8-7.9c3.4-10.2,3.8-23.8,3.8-23.8s-4.3-28.5-5.5-41.1c4-1.5,11.5-1.5,11.5-1.5l0,0
		c0,0.2,0.2,0.6,0.4,0.9l0.7,1.6c-6.5,2.3-9.7,7.6-9.7,7.6c5.7,7.4,3.8,19.5,3.8,19.5s5.5,12.1,6.2,18.5c0.8,6.4-1.1,18.7-1.1,18.7
		s-0.8-8.3-3.8-13.8c-3-5.5-2.7,4.1-3.6,7.6c-1,3.4,0.8,15.3,1.9,19.1c0.4,1.4,2.2,3.6,4.3,5.8C759.3,545.5,763.6,549.2,763.6,549.2
		z"/>
	<path class="st2" d="M757.9,456.3c-0.3,1.2-0.6,1.2-0.8,1l-0.4-0.9"/>
	<path class="st11" d="M750.8,498.9c0,0-0.4,13.6-3.8,23.8c-3.4,10.2-21,9.1-23.8,7.9c-2.8-1.1-20.8-8.9-20.8-8.9s-0.8-0.4-2.3-1.1
		c-8.8-4.3-42.3-20.3-78-31.2c-41.8-12.7-83.9-15.5-83.9-15.5s-69.3-1.5-100.5,7.6s-30.2,10.2-85,28.5
		c-21.6,7.2-32.7,11.4-39.5,14.2c-6.9,2.9-9.5,4.4-14.1,6.3c-2.4,1-5.3,2.2-9.7,3.7c-21.4,7.4-30.1-4.5-30.1-4.5s-3.4-5.1-2.8-23.6
		c0.4-14,1.4-40.6,1.8-52.7l0,0c2-1.9,3.7-3.1,4.2-2.7c1.7,1.5-2.1,52.7-1.3,66.9c0.8,14.2,19.5,12.1,19.5,12.1s7.3-0.5,18.8-6.3
		c1.3-0.7,2.7-1.4,4.1-2.2c1.5-0.8,3.5-1.8,6-3c21.5-10.1,76.9-31.2,76.9-31.2c75.6-21.2,87.7-15.5,124.9-21.2s116,14.9,121.9,17.2
		c4.7,1.8,41.9,16.2,66.3,29.2c0.9,0.5,1.8,1,2.7,1.4c5,2.7,9.2,5.3,12.5,7.7c19.1,14.2,30.8-3,31.7-10.6c1-7.6-3.5-47.2-3.5-50.8
		c0-1,1-1.7,2.4-2.2C746.5,470.4,750.8,498.9,750.8,498.9z"/>
	<path class="st2" d="M757.9,456.2c-0.3,1.2-0.6,1.2-0.8,1c-0.2-0.2-0.3-0.7-0.4-0.9l0,0L757.9,456.2z"/>
	<path class="st12" d="M763.6,576.2c-9.5,14.7-26.7,21.7-27.2,21.9c0.2-0.5,6.9-19.1,8.2-34.2c2.4,2.3,6.3,4.3,7.6,3.6
		c1.7-0.9-3.2-6.2-6.4-10c-0.4-0.4-0.7-0.9-1.1-1.4l0,0c0-0.8-0.1-1.5-0.2-2.2l2.3-2.5c1.7,2.4,3.2,4.9,4.5,5
		c2.1,0.2-2.1-5.5-2.1-5.5l-0.9-1.1l3.8-4.1c2,1.4,4.1,2.7,5.6,3.1c2.8,0.8,5.9,0.4,5.9,0.4s-4.3-3.7-7.8-7.4l6.3-6.8
		C762.1,535,773.3,561.3,763.6,576.2z"/>
	<path class="st9" d="M744.5,553.9c0.1,0.7,0.2,1.4,0.2,2.2c-2.6-3.6-4.2-8-4.2-8s0.2-2.5,3.2-0.2c1.1,0.8,2.1,2.2,3.1,3.5
		L744.5,553.9z"/>
	<path class="st9" d="M752.1,545.8l-3.8,4.1l-4-4.8c0,0,0.4-5.3,3-3C748.6,543.1,750.4,544.5,752.1,545.8z"/>
	<path class="st12" d="M771.9,547.7c0.9,12.3-0.6-0.8-0.6-0.8s-6.6-22.7-6.4-39.1c0,0-7-10.8-4-17.8s15.1-15.9,15.1-15.9
		S771,535.4,771.9,547.7z"/>
	<path class="st10" d="M299,530.6c-0.3,3.4-0.8,8.4-1.5,14c-1.4,10.5-8.8,17-8.8,17s-0.6-14.9-1.4-18.4s-3.1-1.8-4.4-0.3
		c-1.3,1.6-1.8,7.7-1.8,7.7s-1.3,14.2-2.4,11.6c-1.1-2.5-2,0.7-2,0.7s-0.1,6.8-0.1,19.1s-9.2-0.3-9.2-0.3V574c0,0-1-5.5-5.5-1.3
		c-4.5,4.3-2.5-1.1-2.5-1.1s4-0.1,3.4-10.8v-0.1l0,0c-0.6-10.5-5.5-3.5-5.5-3.5s-1,2.6-4.1,11.6s-3.8,5.8-3.8,5.8
		c-6.4-8.9,1.6-24.5,1.6-24.5s3-3.5,4.4-6.1c1.3-2.5,1.1-4.2-5-1.2c-12.3,6.2-5.7-0.8-5.7-0.8c11.2-6.4,8.4-12.1,9.9-18.3
		c1.6-6.2-2-3.7-2-3.7s-6.8,11.3-5.4,4.5s-2.8-1-3.5-1s-3.4,4.3-5.7,7.8c-1.5,2.4-3.6,2.7-4.2,2.1c0-0.3,0.1-0.6,0.2-1
		c0.1-0.1,0.3-0.3,0.5-0.4c2.3-1.8,18-36,12.5-35.4s-5.1-1.7-5.1-1.7c4.2-1,8.9-6.2,11.1-12.5c2.1-6.2-2.1-2.8-2.3-2.4
		c-0.1,0.4-2.1,9.1-4,6.9c-1.8-2.1,1.3-8.9,1.3-8.9s3-3,1.7-4s-6.8-1.4-7.8-1.8s0.9-1.8,3.5-2c2.7-0.1,4.3-2.2,4.3-2.2
		s0.1-1.5-2.7-3.1l1-0.3l0.1-0.1l0.2-0.2l0.1-0.2l0.2-0.2l0.2-0.2l0.4-0.5l0.5-0.6l0.3-0.4l2.9-3.3c1.8-2,3.9-4.2,5.6-5.9
		c-0.4,12.1-1.4,38.7-1.8,52.7c-0.6,18.5,2.8,23.6,2.8,23.6s8.7,11.9,30.1,4.5C293.7,532.8,296.6,531.6,299,530.6z"/>
	<path class="st12" d="M238.6,515.4c-2.3,3.8-4.1,12.8-4.8,17.4c-0.3,0.4-0.3,0.8-0.2,1c-0.2,1.2-0.3,1.9-0.3,1.9
		s-2.3,17.8-2.8,14.7c-0.6-3-1.7-27-1.7-27c2.1-18.1-4.3-38.2-4.3-38.2c2.5-4.2,13.8,7.8,16.2,11
		C243.2,499.3,241.9,510.1,238.6,515.4z"/>
	<path class="st2" d="M233.8,532.7c-0.1,0.3-0.1,0.7-0.2,1C233.5,533.5,233.5,533.2,233.8,532.7z"/>
	<path class="st12" d="M268.1,603.7c0,0-29.8-15.3-30.9-26.1c-1.1-10.8-0.3-23.8-0.3-23.8s3.9-8.1,18.2-9.6
		c-1.4,2.6-4.4,6.1-4.4,6.1s-7.9,15.6-1.6,24.5c0,0,0.7,3.3,3.8-5.8s4.1-11.6,4.1-11.6s4.9-7,5.5,3.5l0,0
		c-2.9,3.9-5.6,10.7-3.2,21.4C259.4,582.3,263.6,597.2,268.1,603.7z"/>
	<path class="st2" d="M313.1,524.3c-6.9,2.9-9.5,4.4-14.1,6.3c-2.4,1-5.3,2.2-9.7,3.7c-21.4,7.4-30.1-4.5-30.1-4.5
		s-3.4-5.1-2.8-23.6c0.4-14,1.4-40.6,1.8-52.7l0,0c2-1.9,3.7-3.1,4.2-2.7c1.7,1.5-2.1,52.7-1.3,66.9c0.8,14.2,19.5,12.1,19.5,12.1
		s7.3-0.5,18.8-6.3c1.3-0.7,2.7-1.4,4.1-2.2c1.5-0.8,3.5-1.8,6-3L313.1,524.3z"/>
</g>
</svg>
