<?xml version="1.0" encoding="utf-8"?>
<!-- Generator: Adobe Illustrator 27.1.1, SVG Export Plug-In . SVG Version: 6.00 Build 0)  -->
<svg version="1.1" xmlns="http://www.w3.org/2000/svg" xmlns:xlink="http://www.w3.org/1999/xlink" x="0px" y="0px"
	 viewBox="0 0 1000 1000" style="enable-background:new 0 0 1000 1000;" xml:space="preserve">
<style type="text/css">
	.st0{display:none;}
	.st1{fill:#FDE5D0;}
	.st2{fill:none;stroke:#000000;stroke-miterlimit:10;}
	.st3{fill:#EFC621;}
	.st4{fill:#D2A340;}
	.st5{fill:#976D42;}
	.st6{fill:#956E3D;}
	.st7{fill:#FDE6CE;}
	.st8{fill:#FBE6CB;}
	.st9{fill:#26A846;}
</style>
<g id="Calque_2" class="st0">
	
		<image style="display:inline;overflow:visible;" width="200" height="200" xlink:href="5A96D9F.png"  transform="matrix(5.0921 0 0 5.0921 -13.2992 -1.3937)">
	</image>
</g>
<g id="Calque_1">
	<path class="st1" d="M252.7,701.5c-5.8,3.8-21.9-2.1-65.3-51.9c0,0-90.7-146.1-107.5-199.8c0,0,50,25,93.5,59.3
		c9.7,15.3,23,32.5,23,32.5C203.5,601.9,231.3,662.4,252.7,701.5z"/>
	<path class="st2" d="M463.1,425.7"/>
	<path class="st3" d="M754.5,499c-3.1,7-7.4,13.7-13,19.9c0,0-21.9,18.9-23.8,44.6c-1.2,16.9-19.5,83-39.8,128.5
		c-10.6,23.6-21.7,41.7-31.2,44.6l0.1-0.8l3.8-23l22.2-134.9l-71.1,42c0,0,5.7-22.9,10-54.9c1.6-11.6,2.9-24.5,3.8-37.8
		c1.2-18.8,1.3-38.7-0.5-57.7c-2.5-25.9-10.4-51.1-19.2-72.6c-2.5-6-5-11.6-7.5-16.9c-9.1-19.2-18.1-34-22.5-41
		c-51.9-39.6-99.7,83.6-99.7,83.6l0.7,0.1l-3.5,3.2h-7.7l-0.3-2.3c0,0-5.1-65.8-48.8-89c-17.3-9.2-35.3-5.3-50.8,2.7l-0.1-0.1
		c0,0,0,0.1-0.1,0.2c-1.1,1.8-10.6,18.3-19.1,39.5c-4.9,12.1-9.4,25.7-11.8,39c0,0-9.9,55.6-11.8,115.1c-0.4,10.9-0.4,22-0.1,32.8
		c0.5,19,2.2,37.4,5.7,53.5l-27.1-14.7l-46.7-25.3l29.9,146.1l3.4,16.8l1,4.9c-0.4-0.6-11.9-17.2-26.2-43.4
		c-21.4-39.2-49.2-99.7-56.3-159.9c0,0-13.3-17.2-23-32.5c-3.6-5.7-6.8-11.2-8.5-15.4c-6.2-15.3-13-89,42-151.4
		c0,0,71.4-103.2,136.1-131c0,0,2.2,0.3,6.1,1.4c13.1,3.6,44.8,15.5,65.9,50.2l86.2-2.3c0,0,40.2-43.7,72.6-49.9
		c32.3-6.2,138.9,123,155.3,153.6C743.3,391.1,775.4,452,754.5,499z"/>
	<path class="st2" d="M565.6,338.9"/>
	<path class="st2" d="M455.2,423.5l-1.9-1.6C454,422.4,454.6,422.9,455.2,423.5z"/>
	<path class="st4" d="M455.2,423.5c-0.6-0.5-1.2-1.1-1.9-1.6c-22.6-18.6-83.9-36.5-116.9-45.1c8.5-21.2,18.1-37.7,19.1-39.5
		c0,0,0.1-0.1,0.2-0.1c15.4-8,33.5-11.9,50.8-2.7C450.1,357.7,455.2,423.5,455.2,423.5z"/>
	<path class="st2" d="M355.7,337.2c-0.1,0-0.1,0-0.2,0.1C355.6,337.1,355.6,337.1,355.7,337.2L355.7,337.2z"/>
	<path class="st5" d="M615.4,527.1c-0.8,13.4-2.2,26.2-3.8,37.8c-48.8,9.5-100.9,40.5-100.9,40.5l-19.8-3.4
		C525.9,568.9,591.7,537.7,615.4,527.1z"/>
	<path class="st6" d="M430.3,604.9l-23.2-1.7c-24.3-15-68.6-30.6-94.4-39.6c-0.3-10.9-0.2-21.9,0.1-32.8
		C388.7,559,430.3,604.9,430.3,604.9z"/>
	<path class="st7" d="M672.7,577.8l-22.2,134.9l-3.8,23c-7,13.4-17.3,30.5-30.3,45.9c-12.8,15-28.3,28.4-46.2,34.7
		c-54.4,19.3-152.5,44.2-218.3-1.7c-41.2-28.8-63.4-57.3-74.1-74.7l-3.4-16.8l-29.9-146.1l46.7,25.3l27.1,14.7
		c-3.4-16.1-5.1-34.5-5.7-53.5c25.8,8.9,70.1,24.5,94.4,39.6l23.2,1.7c0,0-41.6-45.9-117.5-74.1c1.9-59.4,11.8-115.1,11.8-115.1
		c2.4-13.3,6.9-26.9,11.8-39c33,8.6,94.3,26.5,116.9,45.1l1.9,1.6l0.3,2.3h7.7l3.5-3.2l4.1-3.7c22.1-14.2,82.1-30.3,117.4-38.9
		c2.5,5.3,5,11,7.5,16.9c8.8,21.5,16.7,46.7,19.2,72.6c1.9,19,1.7,38.9,0.5,57.7c-23.7,10.6-89.5,41.9-124.5,75l19.8,3.4
		c0,0,52.1-31.1,100.9-40.5c-4.3,32-10,54.9-10,54.9L672.7,577.8z"/>
	<path class="st2" d="M455.2,423.5l-1.9-1.6C454,422.4,454.6,422.9,455.2,423.5z"/>
	<path class="st8" d="M833,451.6c-0.5,0.8-23,41.8-49.9,97.9c-26,54.3-61.8,126.2-105.2,142.5c20.3-45.5,38.6-111.6,39.8-128.5
		c1.9-25.7,23.8-44.6,23.8-44.6c5.7-6.2,9.9-12.9,13-19.9c2.1-2.1,4-3.7,5.5-4.7C770.5,487.6,832,452.2,833,451.6z"/>
	<path class="st9" d="M913.5,523.8c0,0-18.9,2.3-54.6,53.3c-35.7,51-98.6,108.3-148,153.6c-33.5,30.8-72.7,45-94.4,50.9
		c13.1-15.4,23.3-32.5,30.3-45.9l-0.1,0.8c9.5-2.8,20.6-20.9,31.2-44.6c43.4-16.3,79.2-88.3,105.2-142.5
		c26.9-56.1,49.4-97,49.9-97.9c-1,0.5-62.4,36-72.9,42.7c-1.5,1-3.4,2.6-5.5,4.7c20.9-47-11.2-107.9-25.5-134.5
		c-16.4-30.6-123-159.9-155.3-153.6c-32.3,6.2-72.6,49.9-72.6,49.9L415,263c-21.1-34.7-52.8-46.6-65.9-50.2
		c59.1-51.6,202.6-42.1,240.2-33.3c38.9,9.1,54.8,23.8,97.9,46.5c43.1,22.7,111.9,145.9,131.5,183.3
		C838.3,446.7,913.5,523.8,913.5,523.8z"/>
	<path class="st4" d="M588.2,379.9c-35.3,8.6-95.3,24.7-117.4,38.9l-4.1,3.7l-0.7-0.1c0,0,47.7-123.2,99.7-83.6
		C570.1,345.9,579.1,360.7,588.2,379.9z"/>
</g>
</svg>
