<?xml version="1.0" encoding="utf-8"?>
<!-- Generator: Adobe Illustrator 27.1.1, SVG Export Plug-In . SVG Version: 6.00 Build 0)  -->
<svg version="1.1" id="Calque_2" xmlns="http://www.w3.org/2000/svg" xmlns:xlink="http://www.w3.org/1999/xlink" x="0px" y="0px"
	 viewBox="0 0 1000 1000" style="enable-background:new 0 0 1000 1000;" xml:space="preserve">
<style type="text/css">
	.st0{fill:#D98139;}
	.st1{fill:#593326;}
	.st2{fill:#DF666A;}
	.st3{fill:#4B2920;}
	.st4{fill:#D68237;}
	.st5{fill:#454B91;}
	.st6{fill:#FFFEFC;}
</style>
<path class="st0" d="M888.6,529.8c0,0-40-119.1-88.4-176.9c0,0,57-26.4,75.7-62.9c4-7.8,6-16.4,6.6-25.1l-40-12.4
	c-5,19-20.1,47.5-64.4,71.6l-109.2-69.2c0,0-0.8-34.4,24.4-73.7l-35.2-22c-22.7,35.1-22,83.1-22,83.1s-157.3-31.5-270.4,2.5
	c0,0,1.5-48-22.5-84.1l-33,20.6c25.1,39.3,24.4,73.7,24.4,73.7l-109.2,69.2c-44.2-24.1-59.4-52.6-64.4-71.6l-41.8,12.9
	c4.5,29,23.6,62.8,80.7,85.6c0,0-160.7,210-85,399.7c0,0,37.4,117.3,284.9,142c0,0,96.9,23.8,249.2-5.1
	c152.2-28.9,205-90.1,205-90.1S943,701.5,888.6,529.8z M576,741.5c0,0-46.5,47.1-106,28.3c-59.5-18.7-51.6-73.1-51.6-73.1
	S441,640,496,629.2c0,0,51.6,8.5,73.1,44.2C590.7,709.2,576,741.5,576,741.5z M850.3,622.5c-17,65.5-85,76.5-85,76.5
	s-78.2-5.1-132.7-52.7c-54.4-47.6-143.7-45.9-143.7-45.9s-78.2,11.9-131,49.3c-52.7,37.4-108.8,46.8-108.8,46.8
	c-108-1.7-102-101.2-102-101.2c-8.5-165,155.6-267.9,155.6-267.9s195.6-82.5,341-20.4s183.7,165.8,183.7,165.8
	S867.4,557,850.3,622.5z"/>
<path class="st1" d="M343.1,160.8l-33,20.6c-4.2-6.5-18.7-12.2-18.7-12.2c-112.2-17.9-129.3,83-129.3,83l-1.2,0.4l-41.8,12.9
	c-4.9-31.5,7.6-57.2,7.6-57.2s65.5-97,153.9-85.9C311,126.2,330.5,141.8,343.1,160.8z"/>
<path class="st2" d="M334.5,255.1l-109.2,69.2c-44.2-24.1-59.4-52.6-64.4-71.6l1.2-0.4c0,0,17-100.9,129.3-83
	c0,0,14.5,5.7,18.7,12.2C335.2,220.7,334.5,255.1,334.5,255.1z"/>
<path class="st1" d="M882.5,264.8l-40-12.4l-1.2-0.4c0,0-17-100.9-129.3-83c0,0-14.5,5.7-18.7,12.2l-35.2-22
	c12.3-19,31.5-34.2,61.3-36c85-5.1,149.7,74.8,149.7,74.8S884.9,232.4,882.5,264.8z"/>
<path class="st2" d="M842.5,252.5c-5,19-20.1,47.5-64.4,71.6l-109.2-69.2c0,0-0.8-34.4,24.4-73.7c4.2-6.5,18.7-12.2,18.7-12.2
	c112.2-17.9,129.3,83,129.3,83L842.5,252.5z"/>
<path class="st3" d="M827.4,472.8c0,0-38.3-103.8-183.7-165.8s-341,20.4-341,20.4S138.6,430.3,147.1,595.2c0,0-6,99.5,102,101.2
	c0,0,56.1-9.4,108.8-46.8c52.7-37.4,131-49.3,131-49.3s89.3-1.7,143.7,45.9c54.4,47.6,132.7,52.7,132.7,52.7s68-11,85-76.5
	C867.4,557,827.4,472.8,827.4,472.8z M361.7,596.4c0,0-85,88.4-137.8-31.8c0,0-2.8-12-3.9-29c-1.2-18.2-0.4-42.3,7.8-63.4
	c15.9-40.8,45.3-59.5,45.3-59.5s66.9-35.7,101.5,31.7c2.6,5.2,4.8,10.4,6.6,15.8C402.3,524.3,361.7,596.4,361.7,596.4z M781.7,536.8
	c-1.1,17-3.9,29-3.9,29c-52.7,120.2-137.8,31.7-137.8,31.7s-40.6-72-19.6-136.2c1.7-5.3,3.9-10.6,6.6-15.8
	c34.6-67.5,101.5-31.8,101.5-31.8s29.5,18.7,45.4,59.5C782.1,494.6,782.9,518.6,781.7,536.8z"/>
<path class="st4" d="M381.3,460.2L343.1,478l-85.4,40L220,535.6c-1.2-18.2-0.4-42.3,7.8-63.4c15.9-40.8,45.3-59.5,45.3-59.5
	s66.9-35.7,101.5,31.7C377.3,449.6,379.5,454.9,381.3,460.2z"/>
<path class="st5" d="M320.8,579c0,0-34.8,14.4-52.9-15.9c-9-15-10.8-31.9-10.2-45.1l85.4-40C351.6,566,320.8,579,320.8,579z"/>
<path class="st6" d="M361.7,596.4c0,0-85,88.4-137.8-31.8c0,0-2.8-12-3.9-29l37.7-17.6c-0.5,13.2,1.2,30.1,10.2,45.1
	c18.1,30.2,52.9,15.9,52.9,15.9s30.8-13,22.3-100.9l38.1-17.8C402.3,524.3,361.7,596.4,361.7,596.4z"/>
<path class="st6" d="M781.7,536.8c-1.1,17-3.9,29-3.9,29c-52.7,120.2-137.8,31.7-137.8,31.7s-40.6-72-19.6-136.2l38.1,17.8
	c-8.5,87.9,22.3,100.9,22.3,100.9s34.8,14.4,52.9-15.9c9-15,10.8-31.9,10.2-45.1L781.7,536.8z"/>
<path class="st4" d="M781.7,536.8L744,519.2l-85.4-39.9l-38.1-17.8c1.7-5.3,3.9-10.6,6.6-15.8c34.6-67.5,101.5-31.8,101.5-31.8
	s29.5,18.7,45.4,59.5C782.1,494.6,782.9,518.6,781.7,536.8z"/>
<path class="st5" d="M733.8,564.3c-18.1,30.2-52.9,15.9-52.9,15.9s-30.8-13-22.3-100.9l85.4,39.9
	C744.6,532.4,742.8,549.3,733.8,564.3z"/>
<path class="st3" d="M576,741.5c0,0-46.5,47.1-106,28.3c-59.5-18.7-51.6-73.1-51.6-73.1S441,640,496,629.2c0,0,51.6,8.5,73.1,44.2
	C590.7,709.2,576,741.5,576,741.5z"/>
</svg>
