<?xml version="1.0" encoding="utf-8"?>
<!-- Generator: Adobe Illustrator 27.4.1, SVG Export Plug-In . SVG Version: 6.00 Build 0)  -->
<svg version="1.1" id="Calque_1" xmlns="http://www.w3.org/2000/svg" xmlns:xlink="http://www.w3.org/1999/xlink" x="0px" y="0px"
	 viewBox="0 0 1000 1000" style="enable-background:new 0 0 1000 1000;" xml:space="preserve">
<style type="text/css">
	.st0{display:none;}
	.st1{fill:#FFFFFF;}
</style>
<g id="Calque_1_00000172442621930383120830000011706369006762285969_" class="st0">
</g>
<g id="Calque_2_00000049909844110050270390000008301122717448754620_">
	<path class="st1" d="M693.8,540.5c-1.4-7.4-4-24.4-2.5-29.8c1.4-5.4,4.2-31.2,1.1-32.9c-3.1-1.7-5.7-10.5-5.7-10.5
		c2.8-17.9-5.1-53-5.1-57.8s0.6-3.7,4.3-6.8c3.7-3.1,1.1-18.7-3.1-19c-4.3-0.3-4.3-3.4-4.3-3.4c3.1-12.8-6.5-35.7-12.5-38
		s-8.8-7.4-8.8-7.4c2-6.2-1.4-17.9-1.4-17.9c-12.2-12.5-15.6-21-15.6-21c-0.6-19-8.8-34.9-8.8-34.9c-9.1-30-44-34.8-51.4-37.6
		s-5-7.8-5.9-15.1c-0.8-7.3-17.9-4.3-24.1-2c-6.2,2.3-4.8-8.5-5.1-18.2c-0.3-9.6-6-18.7-6-18.7l-0.6-17.1c0.6-8,0.3-16.6,4-17.5
		c3.7-0.8,6,3.7,7.1,12.8s10.2,3.7,14.2-4.2s-2.3-21.5-9.6-23.2s-15.6-38.5-15.6-38.5c-10.5-18.1-43.9-25.2-53.9-23.5
		c-9.9,1.7-34.3,17.9-38.8,26.4s-7.7,54.7-7.7,54.7c-0.4,4.8-0.8,2.8,3.4,5.4s4-6,6.2-9.6c2.3-3.7,4.3,5.1,3.7,7.9s2,11.3,3.4,12.2
		c1.4,0.8,4.5,3.1,4.2,5.1s-5.1,1.7-5.1,1.7c-0.3,6.5-1.1,9.6-7.9,12.2c-6.8,2.5-6.2,19.2-6.2,19.2c-6,15.1-55.6,33.6-57.8,34.8
		c-2.3,1.1-16.6,46.9-28,56.3c-11.3,9.5-23.3,74-23.3,74s-7.4,1.4-8.8,7.9s-1.1,15.3,1.4,17.3c2.6,2,0,5.7,0,5.7s-6.5,6.5-3.7,11.1
		c2.8,4.5,8.5,9.1,8.5,9.1c4,17.3,3.1,74.3,3.1,74.3s-25.2-2-24.9,3.7c0.3,5.7,21.8,5.1,21.8,5.1c2,26.9-8.2,27.8-8.2,27.8l2.3,12.5
		c36.3,24.1,31.2,41.4,31.2,41.4l-29.5,0.3l0.8,32l26.7,2c-0.3,5.7,14.5,11,14.5,11v7.1l-5.1,0.6v19.3c-11.9-1.7-34-12.5-34-12.5
		l-4.5,16.2c0.8,8.8,36.3,15.3,36.3,15.3l0.3,17.9l-8.2,1.1c0,0,0.6,24.7-2.8,24.4s-4,25.2-4,25.2l21.6,1.1l-5.4,73.1l16.4,0.6
		l3.7-72.3h12.1c0,0-3.1-35.2,1.7-35.7c4.8-0.6,4.8-13.9,7.7-27.8c2.8-13.9,6.2-1.7,6,2c-0.3,3.7-0.6,15-0.3,20.4
		c0.3,5.4,6.5,7.4,7.1,13.6c0.6,6.2-3.1,7.4-8.2,9.9s3.1,30.6,3.1,30.6s8.2,36,11.1,41.1c2.8,5.1-1.1,19-1.1,19s-12.5,5.9-13,20.1
		c-0.6,14.2,10.8,36.3,15.9,53s17.6,26.4,17.6,26.4s10.8,3.7,12.8,18.1c2,14.5,18.1,13.6,18.1,13.6c30,4.2,32.6-9.4,32.6-10.2
		s-0.8-25.2-5.4-81.4c-4.5-56.1,2.6-60.1,2.6-60.1c12.8-15.6,10.2-33.7,10.2-40.8s-4.5-17.3-12.5-34.9
		c-7.9-17.6-15.9-94.4-12.8-98.9s5.1-21.3,5.4-29.5s5.4-7.7,5.4,1.1s5.1,15.6,7.1,16.7c2,1.1,1.4,12.2,2,19.8
		c0.6,7.7,6.5,19,8.8,25.2s0.6,23.8-2,30c-2.5,6.2,3.1,11.1,5.1,12.5s4,7.7,2.3,8.8s-1.1,21.5-1.1,21.5s-4,6.2-2.5,11.6
		c1.4,5.4,1,17.1-0.1,24.3s-4.9,22.3-10.2,35.1c-5.3,12.9,1.9,36.3,1.9,36.3s5.3,4.5,2.7,26.1c-2.7,21.5,4.1,49.7,4.1,49.7
		s10.5,14.7,25.2,15.9c14.7,1.1,22.7-17.3,22.7-17.3s2.3-32.2-3.3-52.2c-5.5-20-2.1-24.8-2.1-24.8s16-8.1,15-15.9
		c-1-7.8,2.3-28,2.3-28s10.2-1.5,13.2-16.2s9.3-25.3,9.3-25.3s10.6-19.8,5.5-24.8c-5.1-4.9-9.8-16.6-9.8-16.6s1-14,0.8-18.7
		s2.6-8.3,6.6-7.8c4,0.6,4.2,6.2,4.5,11.7s-2.5,7.8-2.6,8.3c-0.2,0.6-1.5,6,2.5,8.5s7.2-4.7,7.2-4.7s-2.1-20.8,1.3-21.7
		c3.4-1,6.2-7.4,6.2-9.5s7.8-1.3,7.8-1.3c3.4-1.4,4.8-6.5,4.3-9.1c-0.6-2.6-6.2-2-6.5-4.2c-0.3-2.3,4.8-2.3,4.8-2.3s3.6-9.3-1-13.1
		c-4.5-3.8-5.5-8.5-5.5-8.5c-1.9-8.1-5.7-10.8-5.7-10.8s-13.2-6.2-3-8.5s13.6-6.2,13.6-6.2c6.2-13-3.4-20-4.1-26.6
		c-0.8-6.6,2.6-14.7,2.6-14.7c-3.6-6.8-1.9-17.6-1.9-17.6c-4.9-21.5-9.8-18-13.2-23.4s-1.1-4.8-0.6-16.2c0.6-11.3-0.4-19.4-9.6-20
		c-9.2-0.6-4.2-5.1,4.4-10.4c8.7-5.2-7.6-17.4-9.6-13.5c-2,4-11.8,8.8-9.9,4.7c1.9-4.1,0.3-11.8,0.3-11.8s-8.1-5.8-3.7-5.5
		c4.4,0.3,5.1-2.4,5.1-2.4c0.9-8.6,5.5-11.6,5.5-11.6s-4.3-4.7-0.2-6.6c4.2-1.9,7.3-16.3,5-26.5s-5.1-23-5.4-33.7
		c-0.3-10.8,1.7-10.2,5.1-7.1c3.4,3.1,2.5,14.5,2,18.4c-0.6,4,10.8,3.4,13.6,3.7c2.8,0.3,3.1,11.6,1.7,18.1
		c-1.4,6.5,3.7,5.9,8.8,9.1c5.1,3.1,24.7,38.8,28.6,47.6c4,8.8,7.6,32.3,4.2,41.4c-3.4,9.1-15.3,22.7-19,32.9s1.1,17.6,2.3,19
		c1.1,1.4,7.9-3.7,8.5-0.3s4.2,6.5,4.2,6.5C668.9,568.6,695.2,547.9,693.8,540.5z M372.7,506.2c-1.4-0.6-7.9-0.6-7.7-2.5
		c0.3-2,3.1-5.7,0.6-7.4s-3.1-14.5-3.1-14.5s2-4,2-7.1s-3.1-8.2-4.8-9.4V454c0,0,1.4-1.7,4,0c2.5,1.7,2.3,10.2,2.3,10.2
		s-0.3,12.5,1.1,15.9s5.1,2.6,5.1,2.6v14.7c0,0,3.1,3.7,4.2,4.8C377.5,503.4,374.1,506.8,372.7,506.2z M397.1,652.3
		c-1.5,1.5-4.5,1.1-6,0s0-5.3,0-5.3c0.7-3.4,3.4-2.6,6-2.6C399.8,644.4,398.6,650.8,397.1,652.3z M410.9,468.2
		c-1.4-0.3-6.2,2.3-6.2,2.3s0.3,8.5,0,10.2s-2.5,2.8-6.8,1.7c-4.3-1.1-5.1,6.8-5.1,6.8c0-5.7,0-42,0-42s7.9,3.7,5.7,8.2
		c-2.3,4.5,0.6,4.2,0.6,5.4c0,1.1,4.5,2,6-4.8c1.4-6.8,5.9-8.8,5.9-8.8S412.3,468.5,410.9,468.2z"/>
	<path class="st1" d="M410.9,468.2c-1.4-0.3-6.2,2.3-6.2,2.3s0.3,8.5,0,10.2s-2.5,2.8-6.8,1.7c-4.3-1.1-5.1,6.8-5.1,6.8
		c0-5.7,0-42,0-42s7.9,3.7,5.7,8.2c-2.3,4.5,0.6,4.2,0.6,5.4c0,1.1,4.5,2,6-4.8c1.4-6.8,5.9-8.8,5.9-8.8S412.3,468.5,410.9,468.2z"
		/>
	<path class="st1" d="M372.7,506.2c-1.4-0.6-7.9-0.6-7.7-2.5c0.3-2,3.1-5.7,0.6-7.4s-3.1-14.5-3.1-14.5s2-4,2-7.1s-3.1-8.2-4.8-9.4
		V454c0,0,1.4-1.7,4,0c2.5,1.7,2.3,10.2,2.3,10.2s-0.3,12.5,1.1,15.9s5.1,2.6,5.1,2.6v14.7c0,0,3.1,3.7,4.2,4.8
		C377.5,503.4,374.1,506.8,372.7,506.2z"/>
	<path class="st1" d="M397.1,652.3c-1.5,1.5-4.5,1.1-6,0s0-5.3,0-5.3c0.7-3.4,3.4-2.6,6-2.6C399.8,644.4,398.6,650.8,397.1,652.3z"
		/>
</g>
</svg>
