<?xml version="1.0" encoding="utf-8"?>
<!-- Generator: Adobe Illustrator 27.4.1, SVG Export Plug-In . SVG Version: 6.00 Build 0)  -->
<svg version="1.1" id="Calque_1" xmlns="http://www.w3.org/2000/svg" xmlns:xlink="http://www.w3.org/1999/xlink" x="0px" y="0px"
	 viewBox="0 0 1000 1000" style="enable-background:new 0 0 1000 1000;" xml:space="preserve">
<style type="text/css">
	.st0{display:none;}
	.st1{fill:#3F90CC;}
	.st2{fill:#FEFFFF;}
	.st3{fill:#030405;}
	.st4{fill:#EA8966;}
</style>
<g id="Calque_1_00000166654054122978546080000012381913892861609912_" class="st0">
</g>
<g id="Calque_2_00000010309096439864470650000008427157775093770133_">
	<path class="st1" d="M486.4,161.9c0,0,12.5-114,59-81.6c0,0,14.7,10.8,32.3,124.2s62.9,149.7,62.9,149.7s49.9,38,164.4,74.8
		c0,0,143.4,70.3,142.3,195c-1.1,124.7-79.9,193.3-79.9,193.3s-75.4,85.6-228.5,99.8s-257.4,6.2-257.4,6.2S184.7,913.1,82.7,781
		c0,0-75.4-118.5,12.5-248.3s250.6-173.5,250.6-173.5S463.1,327.8,486.4,161.9z"/>
	<ellipse class="st2" cx="616.2" cy="609.8" rx="72" ry="74.8"/>
	<ellipse class="st2" cx="420.9" cy="622.3" rx="74.6" ry="76"/>
	<ellipse class="st3" cx="420.7" cy="625" rx="28.5" ry="29.3"/>
	<ellipse class="st3" cx="612.1" cy="612.2" rx="29.3" ry="31"/>
	<path class="st4" d="M311.7,769.7c0,0,53.3,74.8,210.9,76S746,732.3,746,732.3s12.5-46.5-43.1-36.3c0,0-15.9,14.7-57.8,45.4
		C603.1,772,538.5,780,538.5,780s-63.5,13.5-150.8-29.6S310.6,752.7,311.7,769.7z"/>
</g>
</svg>
