<?xml version="1.0" encoding="utf-8"?>
<!-- Generator: Adobe Illustrator 27.1.1, SVG Export Plug-In . SVG Version: 6.00 Build 0)  -->
<svg version="1.1" id="Calque_2" xmlns="http://www.w3.org/2000/svg" xmlns:xlink="http://www.w3.org/1999/xlink" x="0px" y="0px"
	 viewBox="0 0 1000 1000" style="enable-background:new 0 0 1000 1000;" xml:space="preserve">
<style type="text/css">
	.st0{stroke:#000000;stroke-miterlimit:10;}
</style>
<path class="st0" d="M598.4,382.6c0,0,59.8-93.5,225.1-43.9c0,0-60.1-33.2-137.5-13.9C685.9,324.8,639.2,329.6,598.4,382.6z"/>
<path class="st0" d="M574.1,381.3c0,0,15.5-27.6,67.7-58.6c0,0-30.2-9.8-113.4-2.3c0,0,57.8-17,127.4,0
	C655.7,320.5,598.3,349.6,574.1,381.3z"/>
<path class="st0" d="M352.6,374.5c0,0,122.1-82.8,308-79.4c0,0,150.8,7.6,247.2,69.2c0,0-106.6-65.8-297.4-57.4
	c0,0-128.9,7.9-188.2,38.6L352.6,374.5z"/>
<path class="st0" d="M657.2,541.2c0,0,163.3-41.6,193.9-45.7c0,0-8.3-80.5,25.7-103.9s45-4.3,45-4.3s-16.2-11.4-37.5,2.1
	c-21.4,13.5-37.7,56.2-26.7,109.1L657.2,541.2z"/>
<path class="st0" d="M888.1,421c0,0,8.1-17.4,17.2-17.4s13.4,7.9,13.4,7.9s10.6,16.6,6.8,42c-3.8,25.3-9.3,35.7-15.3,38.6
	c0,0-15.5,13.8-24.8-14.4c0,0-1.5,13.2,14.4,21c0,0,19.5,2.8,28.9-29.1c9.4-31.9-6.2-59.9-6.2-59.9S902.3,382.8,888.1,421z"/>
<path class="st0" d="M852.8,506c0,0,24.4,20.6,52.7,7.6c28.3-13,35.7-30.2,36.5-62.2c0,0,4.7,41.2-16.3,56.3
	c-21,15.1-36.3,14-36.3,14S859.8,521.5,852.8,506z"/>
<path class="st0" d="M755.1,343.1c0,0,37.8,49.9,31.4,145.5c0,0-152.7,34.8-173.9,43.5L791,494.3C791,494.3,802.4,408.9,755.1,343.1
	z"/>
<path class="st0" d="M828.8,350.7c0,0-183.7,52.1-356.3,50.9c0,0-133.8,7.7-131.8-19c0,0-139.5-0.3-201.5,83.1
	c0,0,57.5-74,193.3-73.7c0,0,2.6,6,9.6,8.5s47.3,13.3,112,11.6C518.7,410.4,684.8,401,828.8,350.7z"/>
<path class="st0" d="M495.8,499.2c-0.2,0.6,7-17.8,25.9-17.2s25.3,22.1,25.3,22.1s15.3,47.6-11.7,81.3c-27,33.6-47.1-14.4-47.1-14.4
	s9.8,31.2,32.3,29.3c22.5-1.9,32.1-35.5,32.1-35.5s10.8-37.6-3.2-68C535.5,466.4,502.3,476.6,495.8,499.2z"/>
<path class="st0" d="M442.2,610.4c0,0,19.6,23.4,80.3,12.9c0,0,40.8-11.3,46.3-71.5c0,0,8,27.7-15.8,56.5
	c-23.8,28.8-70.3,21.3-70.3,21.3S444.3,622.3,442.2,610.4z"/>
<path class="st0" d="M144,506c0,0,35.5,15.5,104.7,9.4c69.2-6,117.5-25.3,117.5-25.3s82.4-37.4,89.6-43.1
	c7.2-5.7,53.7-17.8,74.1-7.9c20.4,9.8,36.9,17.2,48.2,46.9c11.3,29.7,4.9,58.4,4.9,58.4s2.6-44.8-12.9-69.5
	c-15.5-24.8-45-38.2-67.1-35.7s-59.7,17-102.6,42.1c-42.9,25.1-113.2,33.3-113.2,33.3S189.9,530.4,144,506z"/>
<path class="st0" d="M265,536c0,0,44.5-9.1,64.9-7.9s32.6,11.1,32.6,11.1s18.4,17.3,19.3,28.6c0,0-9.1-18.7-26.7-28.1
	C337.4,530.3,314.4,534.1,265,536z"/>
<path class="st0" d="M137.9,559.5c0,0-6.8-14.6-6-22.9c0.8-8.3,6-10.2,6-10.2s8.7-0.4,14.6,2.3c5.7,2.6,28.6,7.1,39,6.3
	c0.3,0,0.6-0.1,0.9-0.1c9.8-1.1-43.1-7.4-48-15.5c0,0-11.9-3-15.3,9.4C125.6,541.4,137.9,559.5,137.9,559.5z"/>
<path class="st0" d="M116.7,521.5c0,0-4.2,41.6,25.7,57.1c29.9,15.5,77.5,18.9,77.5,18.9s137.4,5.5,209,0c0,0-11.1-76.6,13.2-107.6
	c24.4-31,45-48.3,89.2-33c0,0-30.6-22-69,4.3c-38.4,26.2-41.7,63.9-41.7,63.9s-4,25.2-2.7,63.1c0,0-84.5,5.1-174.3,2.8
	c0,0-58.3-2.7-78.4-9.3C145.2,575,122.4,576,116.7,521.5z"/>
</svg>
