<?xml version="1.0" encoding="utf-8"?>
<!-- Generator: Adobe Illustrator 27.1.1, SVG Export Plug-In . SVG Version: 6.00 Build 0)  -->
<svg version="1.1" xmlns="http://www.w3.org/2000/svg" xmlns:xlink="http://www.w3.org/1999/xlink" x="0px" y="0px"
	 viewBox="0 0 1000 1000" style="enable-background:new 0 0 1000 1000;" xml:space="preserve">
<style type="text/css">
	.st0{display:none;}
	.st1{fill:none;stroke:#000000;stroke-miterlimit:10;}
	.st2{fill:#5F6B44;}
	.st3{fill:#515B3B;}
	.st4{fill:#728352;}
	.st5{fill:#E37929;}
	.st6{fill:#262824;}
	.st7{fill:#4E514A;}
</style>
<g id="Calque_1" class="st0">
	
		<image style="display:inline;overflow:visible;" width="728" height="728" xlink:href="../master-chief-helmet-drawing-17.png"  transform="matrix(1.3327 0 0 1.3327 28.2161 12.4331)">
	</image>
</g>
<g id="Calque_2">
	<path class="st1" d="M242.4,355.2l-7.8,15.6C235.4,366.3,237.3,359.8,242.4,355.2z"/>
	<path class="st1" d="M791.8,370.8l-5.8-11.5C788.7,362.4,790.8,366.2,791.8,370.8z"/>
	<polygon class="st2" points="571.4,693.9 571.4,741.8 563.2,765 537.1,764.5 534,775.5 492.9,775.8 491.2,765 464,765.6 
		454.6,740.4 454.6,694 455.5,694.7 	"/>
	<path class="st1" d="M597.6,69.2c-2.1,0.6-4.3,1.2-6.1,1.6"/>
	<path class="st1" d="M242.4,355.2l-7.8,15.6C235.4,366.3,237.3,359.8,242.4,355.2z"/>
	<path class="st2" d="M843.4,313.8c-4.5,1-8.9,6.4-8.9,6.4c-6,9.8-1.7,23.4-1.7,23.4s-22.1,9.8-25.7,12.3c-1.8,1.2-4.3,8.1-6.2,14.4
		l-7.8,3.2l-1.4-2.7v0c-1-4.7-3.1-8.5-5.8-11.5c-8-9.2-20.7-11.8-20.7-11.8l-9.3,0l0.4-47.5l0.2-20l0-4.5l-42.2-61.2l6.1,2
		c0,0,28.8,24.1,31.6,23c2.8-1.1,19.8,1.7,19.8,1.7s10.2,4.2,11.6,6.8c0.8,1.4,6,4.5,10.7,7.2c4,2.3,7.7,4.1,7.7,4.1
		s12.8,8.8,23.5,19.9C836.3,290,843.4,313.8,843.4,313.8z"/>
	<path class="st1" d="M791.8,370.8l-5.8-11.5C788.7,362.4,790.8,366.2,791.8,370.8z"/>
	<path class="st3" d="M395.4,203c0,0,0,0.2,0,0.7c-0.2,4.6-1.6,30.8-2.8,61.1c-1.2,29-2.2,61.6-1.9,82.2l-12.8,0l-37.2,0
		c0,0-42.9-0.3-70.5,1.4l-0.4-48l-0.2-23.6l11.4-16.6l32-46.5C313,213.6,357.6,204.5,395.4,203z"/>
	<path class="st2" d="M281,260.1l-11.4,16.6l0.2,23.6l0.4,48c-7.6,0.5-13.9,1.1-18,2c-4.2,0.9-7.4,2.7-9.9,4.9c-5,4.6-7,11-7.8,15.6
		v0l-0.8,1.5l-8.6-3.5c-1.9-6-4.2-12.1-5.9-13.3c-3.6-2.5-25.7-12.3-25.7-12.3s4.4-13.6-1.7-23.4c0,0-4.4-5.5-8.9-6.4
		c0,0,7.1-23.8,17.9-34.9c10.8-11.1,23.5-19.8,23.5-19.8s3.8-2,7.9-4.3c4.7-2.6,9.8-5.7,10.5-7c1.4-2.6,11.6-6.8,11.6-6.8
		s17-2.8,19.8-1.7c2.8,1.1,31.6-23,31.6-23l7.1-2.4L281,260.1z"/>
	<path class="st4" d="M395.4,203.7c0-0.5,0-0.7,0-0.7c-37.8,1.5-82.4,10.6-82.4,10.6L306,216c0,0-28.8,24.1-31.6,23
		c-2.8-1.1-19.8,1.7-19.8,1.7s-10.2,4.2-11.6,6.8c-0.8,1.3-5.9,4.4-10.5,7c-0.4-6.7-0.4-20.2-0.4-20.2s29.5-74.1,32.1-82
		c2.6-7.9,17-35.5,20-37.8s32.1-18.1,54.4-24.2s82-26.1,82-26.1s2.6,2.3,7.5,4.5L395.4,203.7z"/>
	<path class="st2" d="M440.9,218l-1.7,0l-13.2,7.2l-1.1,40.9l-2.1,80.9l-32,0c-0.3-20.7,0.7-53.3,1.9-82.2
		c1.2-30.2,2.6-56.5,2.8-61.1l32.7-135c2.4,1.1,5.3,2.1,8.8,2.8l1,71L440.9,218z"/>
	<polygon class="st3" points="603.2,347.3 582.7,347.2 445.9,347.1 422.7,347 424.8,266.1 425.9,225.2 439.1,218 440.9,218 
		587.7,218.8 588.8,218.8 600.5,224.8 601.6,273.5 	"/>
	<path class="st4" d="M591.5,70.8l-1.2,82.4l-2.6,65.6L440.9,218l-3-75.5l-1-71c4.6,1,10,1.4,16.3,0.6c20.4-2.6,133.4-0.4,133.4-0.4
		S588.6,71.4,591.5,70.8z"/>
	<path class="st2" d="M635.5,347.3l-32.2-0.1l-1.6-73.8l-1.1-48.7l-11.7-6l-1.1,0l2.6-65.6l1.2-82.4c1.9-0.4,4-1,6.1-1.6L631,207.3
		c0.6,11.3,1.9,38.7,3,67.6C635,301.4,635.8,329.3,635.5,347.3z"/>
	<path class="st3" d="M756.6,275.5l0,4.5l-0.2,20l-0.4,47.5l-106.7-0.2l-13.8,0c0.3-18-0.4-45.9-1.4-72.5c-1.1-28.9-2.4-56.3-3-67.6
		c-0.2-3.5-0.3-5.5-0.3-5.5c37.8,1.5,82.4,10.6,82.4,10.6l1.3,1.9L756.6,275.5z"/>
	<path class="st4" d="M794.4,255c-4.7-2.6-10-5.8-10.7-7.2c-1.4-2.6-11.6-6.8-11.6-6.8s-17-2.8-19.8-1.7c-2.8,1.1-31.6-23-31.6-23
		l-6.1-2l-1.3-1.9c0,0-44.6-9.1-82.4-10.6c0,0,0.1,2,0.3,5.5L597.6,69.2c4-1.2,7.8-2.8,8.6-4.6l104.7,32.1c0,0,30.2,11.3,41.2,32.9
		c11,21.5,31.7,81.6,31.7,81.6s9.5,19.3,10.2,23.8C794.4,237,794.4,245.6,794.4,255z"/>
	<path class="st5" d="M791.4,384.3c-5.8,25.5-3.8,96.5-20.1,154.4c-2.9,10.3-6.3,20.1-10.5,29.3c-27.8,60.7-66.3,78.2-66.3,78.2
		s-64.6,26.1-82.8,22.7l-3.5-4.1L578.8,631H446.1l-27.9,33.4l-3.8,4.6c0,0-84.5-11.3-117.9-49.9c-17.8-20.5-31.3-54.2-40-81.2
		c-7.7-23.8-11.6-42.4-11.6-42.4l-10.8-119.1c0,0,0-1.5,0.2-3.8c0.1-0.5,0.1-1.1,0.2-1.7v0l7.8-15.6c2.5-2.2,5.7-4,9.9-4.9
		c4-0.9,10.4-1.5,18-2c27.5-1.8,70.5-1.4,70.5-1.4l37.2,0l12.8,0l32,0l23.2,0l136.8,0.2l20.6,0l32.2,0.1l13.8,0l106.7,0.2l9.3,0
		c0,0,12.7,2.6,20.7,11.8l5.8,11.5v0c0.2,1,0.4,2,0.5,3.1C792.5,377,792.3,380.5,791.4,384.3z"/>
	<polygon class="st6" points="608.2,664.9 575.1,693.9 571.4,693.9 455.5,694.7 454.6,694 418.2,664.3 446.1,631 578.8,631 	"/>
	<path class="st6" d="M872.9,547.4l-43.4-23.5c-0.2-38-5.1-61-6.2-68.6c-1.1-7.6-2.3-53.3-2.3-53.3l-15.1-33.6l-4.9,2l-7.8,3.2
		l-0.9,0.4c0.3,3.1,0,6.6-0.8,10.4c-5.8,25.5-3.8,96.5-20.1,154.4l32.2-8.6c0.9,5,4.6,136.7,6.1,193.3
		c15.2-16.7,61.7-57.4,61.7-57.4l2.8-110C874.2,556.1,873.7,552.8,872.9,547.4z M836.3,662c-13.8,0-25-10.8-25-24.1
		c0-13.3,11.2-24.1,25-24.1s25,10.8,25,24.1C861.4,651.2,850.2,662,836.3,662z M836.7,607.1c-13.8,0-25-10.8-25-24.1
		c0-13.3,11.2-24.1,25-24.1c13.8,0,25,10.8,25,24.1C861.7,596.3,850.5,607.1,836.7,607.1z"/>
	<path class="st7" d="M861.4,637.9c0,13.3-11.2,24.1-25,24.1s-25-10.8-25-24.1c0-13.3,11.2-24.1,25-24.1S861.4,624.6,861.4,637.9z"
		/>
	<path class="st7" d="M861.7,583c0,13.3-11.2,24.1-25,24.1c-13.8,0-25-10.8-25-24.1c0-13.3,11.2-24.1,25-24.1
		C850.5,559,861.7,569.7,861.7,583z"/>
	<path class="st4" d="M872.9,547.4l-43.4-23.5c-0.2-38-5.1-61-6.2-68.6c-1.1-7.6-2.3-53.3-2.3-53.3l-15.1-33.6l-4.9,2
		c2-6.4,4.4-13.2,6.2-14.4c3.6-2.5,25.7-12.3,25.7-12.3s-4.3-13.6,1.7-23.4c0,0,4.3-5.5,8.9-6.4c0,0,18.8,113.6,17.7,131.2
		C860.2,459.3,869.4,523.8,872.9,547.4z"/>
	<path class="st4" d="M809.7,723.5c-2.6,2.8-4.2,5-4.7,6.1c0,0-0.5,14.4-11.9,28.2l-0.2-0.5c0,0-5.7-21.6-6.8-29.5
		c-1.1-7.9-9.8-11.3-9.8-11.3l-41.6,32.9l-18.9,55.2c0.5,5.1,5.3,3.5,5.3,3.5l19.7-7.6c-41.2,33.2-99.5,80.9-125.1,99.3
		c0,0-10.8,23.3-20.4,25c0,0-17.6,4.2-25.8,5.4c0,0-7.1-14.7-15.9-15.3c-8.8-0.6-70.6-5.7-82.5,0.8c-11.9,6.5-12.8,16.2-12.8,16.2
		s-35.4-6-38.5-15.3c-3.1-9.4-14.2-21.8-14.2-21.8l-115.9-89l-7.1-5.9c8,3.1,17.8,7,21.7,8.1c6.8,1.9,6-5.7,6-5.7L291,747.5
		L254.7,720c0,0-11.3-9.8-14.4,8.3c-1.9,11.1-5.7,21.5-8.4,27.9c-3.9-6.5-11-18.9-10.6-22.4c0.2-1.6-1.4-4.7-3.8-8.1
		c1.5-54.6,5.3-191.5,6.2-196.7l32.8,8.8c8.7,27,22.2,60.7,40,81.2c33.4,38.5,117.9,49.9,117.9,49.9l3.8-4.6l36.4,29.7v46.3
		l9.3,25.2l27.2-0.6l1.7,10.8l41.1-0.3l3.1-11.1l26.1,0.6l8.2-23.2v-47.9l3.7,0l33-29l3.5,4.1c18.1,3.4,82.8-22.7,82.8-22.7
		s38.5-17.6,66.3-78.2c4.2-9.1,7.6-19,10.5-29.3l32.2-8.6C804.4,535.2,808.1,666.8,809.7,723.5z"/>
	<path class="st6" d="M244.9,495.5l-10.8-119.1c0,0,0-1.5,0.2-3.8l-0.5-0.2l-8.6-3.5l-3.8-1.6L206.3,401c0,0-1.1,45.7-2.3,53.3
		c-1.1,7.6-6,30.6-6.2,68.6l-45.9,24.8c0.2,27.3,2.6,117.8,2.6,117.8s42.5,41.7,47.3,43.9c3.2,1.5,11,9.6,15.7,16.3
		c1.5-54.6,5.3-191.5,6.2-196.7l32.8,8.8C248.8,514.1,244.9,495.5,244.9,495.5z M187.9,662.7c-13.8,0-25-10.8-25-24.1
		c0-13.3,11.2-24.1,25-24.1c13.8,0,25,10.8,25,24.1C212.9,651.9,201.7,662.7,187.9,662.7z M188.2,607.8c-13.8,0-25-10.8-25-24.1
		c0-13.3,11.2-24.1,25-24.1c13.8,0,25,10.8,25,24.1C213.3,597.1,202.1,607.8,188.2,607.8z"/>
	<path class="st7" d="M213.3,583.8c0,13.3-11.2,24.1-25,24.1c-13.8,0-25-10.8-25-24.1c0-13.3,11.2-24.1,25-24.1
		C202.1,559.7,213.3,570.5,213.3,583.8z"/>
	<path class="st7" d="M212.9,638.6c0,13.3-11.2,24.1-25,24.1c-13.8,0-25-10.8-25-24.1c0-13.3,11.2-24.1,25-24.1
		C201.7,614.5,212.9,625.3,212.9,638.6z"/>
	<path class="st4" d="M225.2,368.9l-3.8-1.6L206.3,401c0,0-1.1,45.7-2.3,53.3c-1.1,7.6-6,30.6-6.2,68.6l-45.9,24.8c0-3,0-5.2,0-6.5
		c0.4-12.9,10.2-52.9,10.2-58.2c0-5.3,11-120.2,11-120.2s7.2-45.7,10-49.3c4.5,1,8.9,6.4,8.9,6.4c6,9.8,1.7,23.4,1.7,23.4
		s22.1,9.8,25.7,12.3C221.1,356.8,223.3,362.8,225.2,368.9z"/>
	<path class="st6" d="M304.2,808c-3.9-1.1-13.6-4.9-21.7-8.1l0,0l-48.1-39.7c0,0-1-1.6-2.5-4c2.7-6.4,6.5-16.8,8.4-27.9
		c3-18.1,14.4-8.3,14.4-8.3l36.3,27.6l19.3,54.8C310.3,802.3,311,809.9,304.2,808z"/>
	<path class="st6" d="M793.1,757.8c-2.9,3.5-6.6,7.1-11.1,10.3c-7,5-22.3,17.2-41.2,32.4l0,0l-19.7,7.6c0,0-4.8,1.6-5.3-3.5
		l18.9-55.2l41.6-32.9c0,0,8.7,3.4,9.8,11.3c1.1,7.9,6.8,29.5,6.8,29.5L793.1,757.8z"/>
</g>
</svg>
