<?xml version="1.0" encoding="utf-8"?>
<!-- Generator: Adobe Illustrator 27.1.1, SVG Export Plug-In . SVG Version: 6.00 Build 0)  -->
<svg version="1.1" xmlns="http://www.w3.org/2000/svg" xmlns:xlink="http://www.w3.org/1999/xlink" x="0px" y="0px"
	 viewBox="0 0 1000 1000" style="enable-background:new 0 0 1000 1000;" xml:space="preserve">
<style type="text/css">
	.st0{display:none;}
	.st1{fill:#FCFCFC;}
	.st2{fill:none;stroke:#000000;stroke-miterlimit:10;}
	.st3{fill:#060708;}
	.st4{fill:#D0442D;}
	.st5{fill:#030405;}
	.st6{fill:#535251;}
	.st7{fill:#62B33A;}
	.st8{fill:#F9DC35;}
</style>
<g id="Calque_1" class="st0">
	
		<image style="display:inline;overflow:visible;" width="284" height="284" xlink:href="../6d0975ff7cc9b1192d3a772569535025.png"  transform="matrix(4.3125 0 0 4.3125 -106.555 -112.4682)">
	</image>
</g>
<g id="Calque_2">
	<path class="st1" d="M886.1,463.7c0,0-13.6-7.4-17.6-6.8c-4,0.6,9.3-13.6,9.3-13.6s-7.6-12.8-29.8-11.6c0,0,15.6-11.3,14.7-23.2
		c-0.9-11.9-28.1-36.3-28.1-36.3s6.7-8.7,9.5-16.1c0.9-2.4,1.4-4.7,1.2-6.5c-1.1-7.2-45.7-19.3-47.2-29.5
		c-1.5-10.2-0.4-32.5-15.5-36.3c-15.1-3.8,12.1-13.2,27.2-7.6c15.1,5.7-1.5-15.9-34-14.4c-32.5,1.5-32.9-7.2-32.9-7.2
		s-8.7-15.1,2.6-17.8c11.3-2.7-27.2-7.6-27.2-7.6s-20-9.5-9.5-12.1c8.5-2.1,5.5-9.1-3.5-9.2c-1.2,0-2.6,0.1-4,0.4
		c-1.1,0.2-2.3,0.5-3.5,0.9c-14.4,4.9-116.4,67-272.9,26.2c0,0-42.1-12.7-65.6-22.8c-6.9-3-12.2-5.7-14.3-7.8
		c-0.7-0.7-1.9-0.9-3.5-0.5c-18.7,4.4-91.3,79.3-92.6,79.6c-1.4,0.3-30.6-0.3-30.6-0.3s11.1,7.7,2.8,20.7
		c-4.9,7.8-26,26.3-42.1,39.8c-10.7,9-19.1,15.7-19.1,15.7s17.6,0,21.3,6.8l-9.1,28.6c0,0-26.1-4.5-37.7,17l26.6,1.1
		c0,0-8.2,13.9-38.3,45.9c0,0,0.3,3.4,15.6,14.2l0,0.6l1.7,167.8l-16.2-11.9c0,0-0.8,12.8,7.7,24.7L119,673.5l19.6,3.4
		c0,0-8.7,41.6-6,55.6l18.1-17c0,0-3.8,41.2,4.2,56.3c0,0,20-9.5,32.5-2.7c12.5,6.8,215,131.2,331.8,130s324.3-144,324.3-144
		l-2.3-27.2c0,0,37.8,7.9,49.1-21.2c0,0-36.7-9.1-34.8-24.2c1.9-15.1,7.5-46.1,14.7-60.5c7.2-14.4,21.2-42.3,20-51.4
		c-1.1-9.1-14.7-16.2-14.7-16.2s14.7-7.2,14.7-13.6c0-6.4,0.8-39.7,0.8-39.7s11.9,13.6,9.6,19.3c-2.3,5.7,7.4-3.4,7.9-23.2
		C909.3,477.3,886.1,463.7,886.1,463.7z M468.5,676.9c25.5-28.1,88.4-13.6,76.5,14.5c-11.9,28.1-42.5,35.7-42.5,35.7
		C466,696.4,468.5,676.9,468.5,676.9z M387.7,606.6c0,0,26.7-8.5,28.9-1.7c0,0-19.8,5.1-22.7,13.6l13.6,5.1c0,0-13,2.3-19.3,8.5
		c-6.2,6.2-16.4,33.5-35.2,28.9c0,0-36.5-1.9-47.4-20.4c-11-18.5-7.9-52.2,1.5-54.4c0,0,35.3-20.4,50.5-24c0,0,4.3-2.8,4.8-7.8
		c0.5-4.9,2.2-28.9,9.9-35.7c0,0,66.2-11.1,81.6,42.5C454.1,561.2,398.5,553.8,387.7,606.6z M501.7,813.5
		c-31.8-3.1-44.8-30.9-47-30.9l31.2-0.1c3.6-6.6,17.6-17.9,18.6-17.6c6.3,2.2,12.6,12.2,15.6,17.5l32.9-0.1
		C553,782.3,533.4,816.6,501.7,813.5z M709.8,652.5c-21,38.5-76.5,2.8-76.5,2.8s2.3-35.7-19.3-68.6c-5.9-9.1-12.5-15.3-18.9-19.5
		c-2.5-1.1-4.8-2.4-6.8-3.9c-14.1-6.7-25.8-4.9-25.8-4.9c17-40.3,60.7-44.8,72.6-45.9c11.9-1.1,22.7,21.6,25.5,38.6
		c2.8,17,51.6,41.4,51.6,41.4S730.7,613.9,709.8,652.5z"/>
	<path class="st2" d="M404.3,568c0.1,0,0.1,0,0.2,0c0.3,0,0.6,0,0.9,0C405.1,568,404.7,568,404.3,568z"/>
	<path class="st2" d="M588.2,563.3c2,1.5,4.3,2.8,6.8,3.9C592.7,565.7,590.4,564.4,588.2,563.3z"/>
	<path class="st3" d="M468.5,676.9c0,0-2.6,19.6,34,50.2c0,0,30.6-7.7,42.5-35.7C557,663.3,494,648.8,468.5,676.9z M504.2,682.5
		c-10.9,0-19.7-3.5-19.7-7.8c0-4.3,8.8-7.8,19.7-7.8c10.8,0,19.6,3.5,19.6,7.8C523.8,679,515,682.5,504.2,682.5z"/>
	<path class="st3" d="M553,782.3c0,0-19.6,34.3-51.3,31.2c-31.8-3.1-44.8-30.9-47-30.9l31.2-0.1c-0.8,1.5-1.1,2.8-0.6,3.6
		c2.7,4.5,28.3,10.2,36.7-0.4c0,0-0.6-1.3-1.8-3.3L553,782.3z"/>
	<path class="st4" d="M521.9,785.7c-8.3,10.6-34,4.9-36.7,0.4c-0.5-0.8-0.2-2.1,0.6-3.6c3.6-6.6,17.6-17.9,18.6-17.6
		c6.3,2.2,12.6,12.2,15.6,17.5C521.3,784.4,521.9,785.7,521.9,785.7z"/>
	<path class="st5" d="M709.8,652.5c-21,38.5-76.5,2.8-76.5,2.8s2.3-35.7-19.3-68.6c-5.9-9.1-12.5-15.3-18.9-19.5
		c5.1,2.2,11.2,3.5,17.8,3.5c18.2,0,32.9-9.7,32.9-21.7c0-12-14.7-21.7-32.9-21.7s-32.9,9.7-32.9,21.7c0,5.5,3.1,10.6,8.3,14.4
		c-14.1-6.7-25.8-4.9-25.8-4.9c17-40.3,60.7-44.8,72.6-45.9c11.9-1.1,22.7,21.6,25.5,38.6c2.8,17,51.6,41.4,51.6,41.4
		S730.7,613.9,709.8,652.5z"/>
	<path class="st2" d="M404.3,568c0.1,0,0.1,0,0.2,0c0.3,0,0.6,0,0.9,0C405.1,568,404.7,568,404.3,568z"/>
	<path class="st5" d="M454.1,561.2c-15.4-53.7-81.6-42.5-81.6-42.5c-7.7,6.8-9.5,30.8-9.9,35.7c-0.5,4.9-4.8,7.8-4.8,7.8
		c-15.1,3.6-50.5,24-50.5,24c-9.5,2.3-12.5,35.9-1.5,54.4c11,18.5,47.4,20.4,47.4,20.4c18.7,4.5,28.9-22.7,35.2-28.9
		c6.2-6.2,19.3-8.5,19.3-8.5l-13.6-5.1c2.8-8.5,22.7-13.6,22.7-13.6c-2.3-6.8-28.9,1.7-28.9,1.7
		C398.5,553.8,454.1,561.2,454.1,561.2z M371.1,546.3c0-12,14.7-21.7,32.9-21.7c18.2,0,32.9,9.7,32.9,21.7
		c0,11.7-13.9,21.2-31.3,21.7c0,0-0.1,0-0.2,0c-0.3,0-0.6,0-0.9,0c-0.1,0-0.1,0-0.2,0c-0.1,0-0.2,0-0.4,0
		C385.8,568,371.1,558.3,371.1,546.3z"/>
	<path class="st1" d="M436.9,546.3c0,11.7-13.9,21.2-31.3,21.7c10.5-0.6,18.8-9.7,18.8-20.9c0-11.6-8.9-21-19.8-21
		s-19.8,9.4-19.8,21c0,11.5,8.8,20.8,19.6,21c-0.1,0-0.2,0-0.4,0c-18.2,0-32.9-9.7-32.9-21.7s14.7-21.7,32.9-21.7
		C422.2,524.6,436.9,534.3,436.9,546.3z"/>
	<path class="st2" d="M588.2,563.3c2,1.5,4.3,2.8,6.8,3.9C592.7,565.7,590.4,564.4,588.2,563.3z"/>
	<path class="st1" d="M612.8,527.2c-18.2,0-32.9,9.7-32.9,21.7c0,5.5,3.1,10.6,8.3,14.4c2.2,1.1,4.5,2.3,6.8,3.9
		c5.1,2.2,11.2,3.5,17.8,3.5c18.2,0,32.9-9.7,32.9-21.7C645.7,536.9,631,527.2,612.8,527.2z M611.3,570.3c-11,0-19.8-9.4-19.8-21
		c0-11.6,8.9-21,19.8-21c11,0,19.8,9.4,19.8,21C631.1,560.9,622.3,570.3,611.3,570.3z"/>
	<path class="st5" d="M424.4,547c0,11.2-8.3,20.4-18.8,20.9c0,0-0.1,0-0.2,0c-0.4,0-0.7,0-1.1,0c-10.9-0.1-19.6-9.5-19.6-21
		c0-11.6,8.9-21,19.8-21S424.4,535.5,424.4,547z"/>
	<path class="st2" d="M405.4,568c-0.3,0-0.6,0-0.9,0c-0.1,0-0.1,0-0.2,0C404.7,568,405.1,568,405.4,568z"/>
	<path class="st5" d="M631.1,549.3c0,11.6-8.9,21-19.8,21c-11,0-19.8-9.4-19.8-21c0-11.6,8.9-21,19.8-21
		C622.3,528.3,631.1,537.7,631.1,549.3z"/>
	<path class="st6" d="M523.8,674.8c0,4.3-8.8,7.8-19.6,7.8c-10.9,0-19.7-3.5-19.7-7.8c0-4.3,8.8-7.8,19.7-7.8
		C515,667,523.8,670.4,523.8,674.8z"/>
	<path class="st7" d="M705.5,208c-1.2,0-2.6,0.1-4,0.4c-1.1,0.2-2.3,0.5-3.5,0.9c-14.4,4.9-116.4,67-272.9,26.2
		c0,0-42.1-12.7-65.6-22.8c-6.9-3-12.2-5.7-14.3-7.8c-0.7-0.7-1.9-0.9-3.5-0.5c2.9-2.7,6.5-5.7,10.4-8.5c3.5-2.6,7.4-5,11.6-7.2
		c7.7-4,16.3-6.7,25.2-6.6c28.8,0.4,285,3.8,308.6,4.1c1.1,0,1.7,0,1.7,0s2,0.2,4.4,0.9C709.6,189,718.2,194.2,705.5,208z"/>
	<path class="st8" d="M703.6,187.2c-2.4-0.7-4.4-0.9-4.4-0.9s-0.6,0-1.7,0c-23.5-0.3-279.7-3.8-308.6-4.1
		c-8.9-0.1-17.5,2.6-25.2,6.6c-4.2,2.1-8,4.6-11.6,7.2c-1-4-2.4-12-0.9-21.9c2.4-16,12.3-36.8,43.3-53.5
		c59-31.8,117.2-33.3,117.2-33.3s123.2-11.7,178,69.2c4.5,6.6,7.8,12.4,10,17.5C702,179,703.2,183.4,703.6,187.2z"/>
	<path class="st5" d="M928,243.7c0,0-4.8,85.6-83.7,112.3c0.9-2.4,1.4-4.7,1.2-6.5c-1.1-7.2-45.7-19.3-47.2-29.5
		c-1.5-10.2-0.4-32.5-15.5-36.3c-15.1-3.8,12.1-13.2,27.2-7.6c15.1,5.7-1.5-15.9-34-14.4c-32.5,1.5-32.9-7.2-32.9-7.2
		s-8.7-15.1,2.6-17.8c11.3-2.7-27.2-7.6-27.2-7.6s-20-9.5-9.5-12.1c8.5-2.1,5.5-9.1-3.5-9.2c12.7-13.8,4-19-2-20.8
		c-0.4-3.8-1.6-8.2-3.8-13.2c16.8-15.6,90.1-78.1,160.8-52.7C941.1,150.2,928,243.7,928,243.7z"/>
	<path class="st5" d="M352.1,195.9c-4,2.9-7.5,5.8-10.4,8.5c-18.7,4.4-91.3,79.3-92.6,79.6c-1.4,0.3-30.6-0.3-30.6-0.3
		s11.1,7.7,2.8,20.7c-4.9,7.8-26,26.3-42.1,39.8c-43.8-35.5-47-92.3-47-92.3s-13-93.5,67.5-122.5c61.5-22.1,125,22.3,151.5,44.5
		C349.8,183.9,351.1,191.9,352.1,195.9z"/>
</g>
</svg>
