<?xml version="1.0" encoding="utf-8"?>
<!-- Generator: Adobe Illustrator 27.1.1, SVG Export Plug-In . SVG Version: 6.00 Build 0)  -->
<svg version="1.1" xmlns="http://www.w3.org/2000/svg" xmlns:xlink="http://www.w3.org/1999/xlink" x="0px" y="0px"
	 viewBox="0 0 1000 1000" style="enable-background:new 0 0 1000 1000;" xml:space="preserve">
<style type="text/css">
	.st0{display:none;}
	.st1{fill:#C91719;}
	.st2{fill:#FFFFFF;}
	.st3{fill:#50332C;}
</style>
<g id="Calque_2" class="st0">
	
		<image style="display:inline;overflow:visible;" width="730" height="1095" xlink:href="../Nouveau dossier/d0e33cad332b1c288f531531320f6271.jpg"  transform="matrix(1.0528 0 0 1.0528 150.6912 -95)">
	</image>
</g>
<g id="Calque_1">
	<path class="st1" d="M847.9,284.6c0,0-6.6-13.9-17.4-17.9l-0.8-12c0,0,6.4-4.9,6-8.5c-0.4-3.6-1.1-5.5-6.2-7l-1.9-10.2
		c0,0-12.1-20.4-27.2-6.2c0,0-9.1,11.5-10.4,17.6c0,0-66.3,4.2-80.9,4.4c-14.5,0.2-74.3,5.8-81.3,7.9s-31.6-16.4-31.6-16.4
		s-2.2-0.1-5.1-0.2c-4.5-0.1-10.6,0-13,0.8c-4,1.3-5.3,6.4-5.3,6.4s-22.1-1.7-25-1.1c-2.8,0.6-8.1,15.7-3.2,25.5
		c0,0,12.1,4,7.8,15.1c0,0-18.7,11.7-25,28.5c-6.2,16.8-7.8,23-3.5,32.1c0,0,3.9,4.5,4.9,7c0,0-7.4,23.8-4,35.1
		c0,0,16.6,8.3,19.3,12.5c2.6,4.2,18.9,24.6,24.6,25.7v50.5c0,0,10.8,0.2,13.6,17.2c0,0,3.2,4,4-1.7c0.8-5.7,0-5.1,2.7-12.1
		c2.7-7,3.6-43.8,3.6-43.8s1.9-1.3,1.9-3c0-1.6,24.8-2.5,27.7-2.6c0.2,0,0.3,0,0.3,0s7,0.4,9.6-2.8c0,0,1.5-9.3,3.2-11.5
		c1.7-2.3,1.3-7.9,1.3-9.3s5.3-4.9,5.7-8.5c0.4-3.6,0-6.4,0-6.4s-5.5-1.1-6.2-3.2c-0.8-2.1-3.4-21.4,17.6-26.5
		c0,0,24.9,5.1,36.8,2.8c11.9-2.3,21.5-31.8,21.5-31.8l106.6,2.8C818.6,333.7,851.4,330.2,847.9,284.6z M564.3,259.6
		c0,0-4.4-1.8-4.5,0.3c-0.1,2.1-2,6.8-2,6.8s-6.8,0-8.7-2.7c-1.8-2.7,0.7-11.3,0.7-11.3c2,0.3,4.4-0.1,6.4-0.8c2-0.7,3.7-0.4,4,2
		c0.3,2.4,1.4,1.8,3.8,2.4C566.5,256.8,564.3,259.6,564.3,259.6z M595.9,246.4c0,0-6.4,0.6-9.1-0.4c-2.7-1-1.3-5.2-1.3-5.2
		c1.1-0.1,2.1,1,3.3,2.7c1.1,1.7,3.1,0,6.2,0.1C598.2,243.7,595.9,246.4,595.9,246.4z M678.3,353.3c-10.9,1-8.2-5.4-8.2-5.4
		s-1.3-5.4,6-12c0,0,2.3,7.8,13.3,2.1C689.3,338,689.2,352.3,678.3,353.3z M818,237.5c0,0,0-8.2,3.3-8.2s3.7,8.4,3.7,8.4L818,237.5z
		"/>
	<path class="st2" d="M595.9,246.4c0,0-6.4,0.6-9.1-0.4c-2.7-1-1.3-5.2-1.3-5.2c1.1-0.1,2.1,1,3.3,2.7c1.1,1.7,3.1,0,6.2,0.1
		C598.2,243.7,595.9,246.4,595.9,246.4z"/>
	<path class="st2" d="M825,237.6l-6.9-0.1c0,0,0-8.2,3.3-8.2S825,237.6,825,237.6z"/>
	<path class="st2" d="M689.3,338c0,0-0.1,14.3-11.1,15.3c-10.9,1-8.2-5.4-8.2-5.4s-1.3-5.4,6-12C676,335.9,678.3,343.7,689.3,338z"
		/>
	<path class="st2" d="M564.3,259.6c0,0-4.4-1.8-4.5,0.3c-0.1,2.1-2,6.8-2,6.8s-6.8,0-8.7-2.7c-1.8-2.7,0.7-11.3,0.7-11.3
		c2,0.3,4.4-0.1,6.4-0.8c2-0.7,3.7-0.4,4,2c0.3,2.4,1.4,1.8,3.8,2.4C566.5,256.8,564.3,259.6,564.3,259.6z"/>
	<path class="st3" d="M874.9,953.2c0,0-90.3,22.3-134.2,11c-43.8-11.3-129.3-7.9-129.3-7.9s-55.6,9.1-102.8,4.5
		c-47.2-4.5-84.3,11-84.3,11s-66.1,14.4-77.9,4.1c-11.7-10.2-74.1-20-74.1-20c-32.5,6.8-49.5-6-49.5-6c7.3-21.4,6.9-86.7,6.9-86.7
		s-2.8-23-1.1-29.5c0.1-0.3,0.1-0.7,0.2-1.1c1.4-9.5,0.5-51.9,0.5-51.9c-9.3-26.8-6.4-106.2-6.4-106.2s1.8-4.1-2.2-12.6
		c-4-8.5-25.5-64.3-27.8-72.3c-2.3-7.9-18.1-54.7-18.1-54.7c-2.5-18.6,5.2-53.6,9.1-61.8c3.8-8.2,4.2-23,4.2-23
		c9.6-32,13.3-30.5,24.5-51.3c11.2-20.8,30.9-35.6,34.4-37.4c3.5-1.8,12.2,4.7,12.2,4.7c7.5-1.1,18.8,1.4,18.8,1.4
		c7.1-0.7,59.8,3.3,59.8,3.3s2-28.3-1.3-31c-3.3-2.7-6.1-10.1-6.1-10.1s-2.5-7.2-2.7-1.4s-2,5-2,5s0.9-9.3-0.4-12
		c-1.3-2.7-4-7.7-3.4-11.2s0.4-4.4-0.7-5.7c-1.1-1.3-3.3-4-3.3-4s-0.3-4.7-2.4-8.5c-2.1-3.8-1.3-0.4-2.1-7c-0.8-6.5-2.3-6.5-2.3-6.5
		s-1.8,18.1,0.1,19.8c2,1.7,5.4,6.9,5.4,6.9l-0.7,7c-2.3-4.5-4.4-6.2-4.4-6.2s0.8,6.1-0.9,9.8c-1.7,3.7-3.3-5.8-3.3-5.8
		s-3.8-27.8-5-32.6s-8.1-10.1-13.3-8.2c-5.2,1.8-19,3.5-19.7,1.7s-1.6-2.3-1.6-2.3c-39.1-2.8-53.4-10.1-62.1-10.8
		c-8.6-0.7-16.3-4-16.3-4s-0.2-2.2-4.4-3.5c-4.2-1.3-5.9-5.3-4.2-7.4c1.7-2.1,25.9-10.4,26.5-10.2c0.6,0.2,5.7,8.7,9.6,5.1
		c4-3.6,10.6-1.3,10.6-1.3s14.9,4.9,27.6,1.3c12.7-3.6,36.5-21,36.5-21l-4.7-96.6c-1.1-4-0.1-15.6,2.3-19.4c2.4-3.8,12-6.8,12-6.8
		c1.1-2.5,14.3-17,14.3-17l29.1-1c0,0,46.2-11.6,50.2-12.5c4-0.8,45.4-7.1,47.3-5.1c2,2,12.5,6,19.6,6.8c7.1,0.9,39.7,17,39.7,17
		l25.8,79.1h8.8c23.7-9.9,54-9.5,61.8-8.1c7.8,1.4,31,18.3,32.2,19.1c1.1,0.8,2.1,13.9,1.1,17.4s-11.8,18-11.8,18
		c-14,7.4-24.6,22.3-28.4,28.3c-4.5-0.1-10.6,0-13,0.8c-4,1.3-5.3,6.4-5.3,6.4s-22.1-1.7-25-1.1c-2.8,0.6-8.1,15.7-3.2,25.5
		c0,0,12.1,4,7.8,15.1c0,0-18.7,11.7-25,28.5c-6.2,16.8-7.8,23-3.5,32.1c0,0,3.9,4.5,4.9,7c0,0-7.4,23.8-4,35.1
		c0,0,16.6,8.3,19.3,12.5c2.6,4.2,18.9,24.6,24.6,25.7v50.5c0,0,10.8,0.2,13.6,17.2c0,0,3.2,4,4-1.7c0.8-5.7,0-5.1,2.7-12.1
		c2.7-7,3.6-43.8,3.6-43.8s1.9-1.3,1.9-3c0-1.6,24.8-2.5,27.7-2.6c0.9,3.1,2,3.8,2,3.8c67.3,18.1,71,32.3,71,32.3
		c13.2,3,29.6,19.7,29.6,19.7c0.1,0.1,0.3,0.1,0.3,0.1c21.3,9.5,33.4,43.2,33.4,43.2s-1.1,11.3,1.1,43.9c2.3,32.6,6.5,30.6,9.1,33.7
		c2.6,3.1,2.6,12.5,0,21.8c-2.5,9.4,7.9,34.6,7.9,34.6c2.3-0.3,7.9,7,7.9,17s-0.6,12.2-0.6,12.2c2.8,0.3,7.1,6.2,4.8,10.2
		c-2.3,4-0.3,9.3-0.3,9.3c15.3,23.2,16.4,32.9,20.4,41.1c4,8.2,0.9,37.2,0.9,37.2c6.4,6.4,14.7,25.3,14.7,25.3
		C858.7,857.9,874.9,953.2,874.9,953.2z"/>
</g>
</svg>
