<?xml version="1.0" encoding="utf-8"?>
<!-- Generator: Adobe Illustrator 27.1.1, SVG Export Plug-In . SVG Version: 6.00 Build 0)  -->
<svg version="1.1" id="Calque_2" xmlns="http://www.w3.org/2000/svg" xmlns:xlink="http://www.w3.org/1999/xlink" x="0px" y="0px"
	 viewBox="0 0 1000 1000" style="enable-background:new 0 0 1000 1000;" xml:space="preserve">
<style type="text/css">
	.st0{stroke:#000000;stroke-miterlimit:10;}
	.st1{fill:#FFFFFF;stroke:#000000;stroke-miterlimit:10;}
</style>
<path class="st0" d="M64,786.9c0,0,136.1,191.6,501.2,159.9c0,0,291.4-38.6,367.4-163.3c0,0,14.7-22.7-19.3-94.1s-97.5-254-97.5-254
	V292.5c0,0-20.4-112.3-96.4-167.8S552.7,70.3,552.7,70.3s-184.8-6.8-226.8,22.7s-121.3,68-145.1,197.3l-1.1,147.4L68.6,727.9
	C68.6,727.9,59.5,750.6,64,786.9z"/>
<rect x="433.1" y="699" class="st1" width="47.1" height="125.9"/>
<rect x="514.2" y="699.6" class="st1" width="47.6" height="126.4"/>
<polygon class="st1" points="592.4,731.9 621.9,760.8 623,825.4 591.8,824.8 "/>
<polygon class="st1" points="371.9,761.3 402.5,731.9 403,826 371.9,824.3 "/>
<path class="st1" d="M450.1,666.7l94.7-0.6V602c0,0-46.5-65.2-95.2,0.6L450.1,666.7z"/>
<path class="st1" d="M293.6,540.2h156.5c0,0,14.7-2.3,17-13.6c2.3-11.3,0-53.3,0-53.3s-17-48.8-60.7-56.1
	c-43.7-7.4-80.5,13.6-80.5,13.6s-38.6,15.3-47.6,59.5l0.6,31.2C278.9,521.5,281.2,536.8,293.6,540.2z"/>
<path class="st1" d="M701.9,541.4H545.5c0,0-14.7-2.3-17-13.6s0-53.3,0-53.3s17-48.8,60.7-56.1c43.7-7.4,80.5,13.6,80.5,13.6
	s38.6,15.3,47.6,59.5l-0.6,31.2C716.7,522.7,714.4,538,701.9,541.4z"/>
<circle class="st1" cx="307.4" cy="822.7" r="25.9"/>
<circle class="st1" cx="687.5" cy="822.7" r="25.9"/>
<path class="st1" d="M103.7,748.3c0,0-5.1,51,28.9,17.9l130.1-328.3c0,0,42.5-91.8,164.1-60.4c0,0,17,6,48.5,26.4s77-20.3,77-20.3
	s96.4-33.6,141.7,11s54,83.3,54,83.3l110.8,282.9c0,0,7.4,18.1,17,15.3s15.9-1.1,15.9-13s-6-28.3-9.9-36.3S760.2,422.9,760.2,422.9
	s-40.8-85-118.5-84.5s-104.3,18.1-104.3,18.1s-32.9,33.4-73.1,4.5s-86.7-24.9-86.7-24.9S288,340.7,250,399.6
	S103.7,748.3,103.7,748.3z"/>
</svg>
