<?xml version="1.0" encoding="utf-8"?>
<!-- Generator: Adobe Illustrator 27.1.1, SVG Export Plug-In . SVG Version: 6.00 Build 0)  -->
<svg version="1.1" xmlns="http://www.w3.org/2000/svg" xmlns:xlink="http://www.w3.org/1999/xlink" x="0px" y="0px"
	 viewBox="0 0 1000 1000" style="enable-background:new 0 0 1000 1000;" xml:space="preserve">
<style type="text/css">
	.st0{fill:none;stroke:#000000;stroke-miterlimit:10;}
	.st1{fill:none;}
</style>
<g id="Calque_1">
	
		<image style="overflow:visible;" width="1200" height="1200" xlink:href="../Smash_Ball.png"  transform="matrix(0.7181 0 0 0.7181 80.2903 63.4567)">
	</image>
	<path class="st0" d="M910.9,516.2c-0.6,11.3-1.7,22.4-3.2,33.4h-8.2C904.8,538.8,908.7,527.6,910.9,516.2z"/>
	<path class="st1" d="M907.7,549.6c-3.8,26.9-10.1,53-18.9,78H439.9v264.8C368,880.1,302.5,848.9,248.8,804V627.5H126.5
		c-8.8-25-15.1-51-18.9-78h141.2V182.4c53.7-44.9,119.1-76.2,191.1-88.3v455.5H907.7z"/>
</g>
<g id="Calque_2">
	<path d="M911.6,493.2c0,7.7-0.2,15.4-0.7,23c0,0,0,0,0,0c-2.2,11.4-6.1,22.6-11.4,33.4H439.9V94.1c22-3.7,44.7-5.7,67.8-5.7
		c214.6,0,390,167.6,403.1,379.4c0,0,0,0,0,0C911.3,476.2,911.6,484.7,911.6,493.2z"/>
	<path d="M888.8,627.5C833.5,785.1,683.7,898,507.7,898c-23.1,0-45.7-1.9-67.8-5.7V627.5H888.8z"/>
	<path d="M248.8,627.5V804c-55.2-46.2-98-107-122.4-176.4H248.8z"/>
	<path d="M248.8,182.4v367.2H107.6c-2.6-18.4-3.9-37.3-3.9-56.4C103.7,368.3,160.1,256.6,248.8,182.4z"/>
	<path class="st1" d="M910.9,516.2c0.4-7.6,0.7-15.3,0.7-23c0-8.5-0.3-17-0.8-25.4c1.7,8.1,2.5,16.2,2.5,24.5
		C913.3,500.4,912.5,508.4,910.9,516.2z"/>
</g>
</svg>
