<?xml version="1.0" encoding="utf-8"?>
<!-- Generator: Adobe Illustrator 27.4.1, SVG Export Plug-In . SVG Version: 6.00 Build 0)  -->
<svg version="1.1" id="Calque_1" xmlns="http://www.w3.org/2000/svg" xmlns:xlink="http://www.w3.org/1999/xlink" x="0px" y="0px"
	 viewBox="0 0 1000 1000" style="enable-background:new 0 0 1000 1000;" xml:space="preserve">
<style type="text/css">
	.st0{fill:#CC151A;}
	.st1{display:none;}
	.st2{fill:#030405;}
	.st3{fill:#F4A867;}
	.st4{fill:none;stroke:#000000;stroke-miterlimit:10;}
</style>
<path class="st0" d="M754.5,584.5c0,0,18-40.1,16.2-54.7S731.4,459,737,393.1c0,0,20.5-19.3,46.5-10.5c0,0,17.5-42,34.6-52.6
	s122.2,6.5,140.5,64.2s-41.4,182.5-41.4,182.5l-51,77.5L754.5,584.5z"/>
<g id="Calque_1_00000181049280051338402820000003554674376141672866_" class="st1">
</g>
<polygon class="st2" points="799,504 779.2,535.7 770.7,529.8 791.4,498.3 "/>
<polygon class="st2" points="883,560.4 864,594.4 790.5,543.1 812.7,510.8 "/>
<path class="st2" d="M917.2,576.7c0,0-2.6,7.6-3.8,10.4c-1.1,2.8-1.3,11.7-1.3,11.7c-0.2,5.5-3.8,6.8-3.8,6.8
	c1.1,4.5-1.7,9.3-1.7,9.3c-4.5,3.6-8.5-0.8-8.5-0.8c-1.1,2.8-4.2,1.5-4.2,1.5l-8.8-5.1l1.7-4.2l-7.9-5.1l17.6-32.9l3.3,3.1l2.8-4
	L917.2,576.7z"/>
<path class="st2" d="M889.3,472c0,9.6-8,17.4-18,17.4c-9.9,0-18-7.8-18-17.4s8-17.4,18-17.4C881.2,454.6,889.3,462.4,889.3,472z"/>
<path class="st2" d="M879.8,428c0,9.7-8.6,17.6-19.3,17.6s-19.3-7.9-19.3-17.6s8.6-17.6,19.3-17.6S879.8,418.3,879.8,428z"/>
<path class="st2" d="M913.8,446.2c0,9.5-6.2,17.2-13.8,17.2s-13.8-7.7-13.8-17.2S892.4,429,900,429
	C907.7,428.9,913.8,436.7,913.8,446.2z"/>
<path class="st3" d="M789.7,375.8c-0.6,1.4-6.2,6.8-6.2,6.8c-25-10.2-46.5,10.5-46.5,10.5c0.6-24.1,29.5-25.2,33.2-24.4
	c3.7,0.8,13,0,16.2,0.6C789.4,369.9,790.3,374.4,789.7,375.8z"/>
<path class="st2" d="M821.1,358.1c0,0-8.7-4.4-5.9-13.8c0,0,15.9-22.5,33.8,0.9C849,345.2,856.6,370.2,821.1,358.1z"/>
<path class="st2" d="M867.4,392.8c0,0-8.6,16-24.8,7.1c0,0-12.5-6.2-12-17.9c0,0,5.2-17.6,23.4-12.2
	C872,375.3,867.4,392.8,867.4,392.8z"/>
<path class="st2" d="M889.5,373.9c-14.9,7.6-26.8-10.6-26.8-10.6s-2.5-7.9-1.3-11.3c0.3-0.9,10-15.5,29.3-0.2
	C890.6,351.8,904.4,366.4,889.5,373.9z"/>
<path class="st2" d="M901.2,417.2c0,0-14.4,9.8-23.8-8.3c0,0-1.9-5.3-1.1-14.4c0,0,8.9-17.2,25-4.3
	C901.2,390.2,913.3,403.8,901.2,417.2z"/>
<path class="st2" d="M928.9,440.8c0,0-9.3,2.8-16.4-14.2c0,0-3.4-17,8.2-22.7c0,0,13.3,0.3,15.3,16.7
	C937.9,437.1,928.9,440.8,928.9,440.8z"/>
<path class="st2" d="M949.8,414.1c0,0-5.9,4.5-11.6-3.7c-5.7-8.2-4.8-23.2-4.8-23.2s8.5-7.4,17.3,4.5
	C959.5,403.6,949.8,414.1,949.8,414.1z"/>
<path class="st2" d="M926.5,391.3c0,0-8.1,5-16.2-5.5c0,0-10.3-8.8-7.2-17.3c0,0,10.3-8.5,21.1,1.4
	C935,379.8,926.5,391.3,926.5,391.3z"/>
<path class="st4" d="M218.8,976.8h0.7C219.2,977,218.8,976.8,218.8,976.8z"/>
<path class="st4" d="M379.9,366.1c0,0,0.2,0.3,0.3-0.3C380,366,379.9,366.1,379.9,366.1z"/>
<path class="st3" d="M754.5,584.5c-8.8,21.3-100.1,115.9-100.1,115.9c-16.2-34.9-70.3-51-70.3-51c0.9-23.5-12.8-72.3-12.8-72.3
	C560.7,523.8,482,472.2,482,472.2l4.4-5.9c22.9,23.2,40.5,21.7,40.5,21.7s19.8-1.3,23.2-19.8c3.4-18.4,8.1-18.9,8.1-18.9
	c7.6-2.4,8.1-10,8.1-10s0.4,0.6,4.7-2.8s2.8-22.1,2.8-22.1l7,3.2c0,0,11.7,2.8,17.6-3.4c5.9-6.2-1.1-23.6-1.1-23.6
	c-1.9-11.9,7-27.4,11.3-33.1s5.1-17.6,5.1-17.6c1.2-0.7,2.4-1.8,3.5-3.1c4.6-5.3,8.9-14.6,10.9-19.5c0.8-1.9,1.3-3.1,1.3-3.1
	c1.3-11.7,6.4-37,6.4-37c2-16.4,1-28.3-1.2-36.9c-3.9,18.9-14.9,33.5-14.9,33.5c-1.9-6.2-11.1-21.9-21.3-27.6
	c-10.2-5.7-23.8-3.2-32.3,2.4c-8.5,5.7-14.7,22.9-15.7,25.9s-18.1,6-18.1,6c-4.2-2.5-26.8-1.7-26.8-1.7s-16.1,1.1-34.4,18
	c-18.3,16.8-25.2,55-25.2,55c-1-5.8-7.6-9.3-7.6-9.3c0.1-3.4-5.2-10.6-5.2-10.6l3.3-0.6c0,0-3.7-3.4-4.4-4c-0.7-0.6,4.7,0,4.7,0
	s-4.7-3.5-5.1-3.7c-0.4-0.1,3.4-1.7,3.4-1.7s-16.7-13.2-15.3-14.2c1.4-1,2-1.8,2-1.8l-4.1-6.4l4.4,0.9l-5.7-7.7l3.7,0.3l-6.1-7.9
	l3,0.3c0,0-6-6.1-4.8-5.7c1.1,0.4,2.4-1.3,2.4-1.3l-8.2-6.8c-25.7-4.8-28.9,40.3-28.9,40.3c-1.4,11.3,9.6,31.3,9.6,31.3
	s4,3.8,2.1,10.5c-1.6,5.8-7.2,10.8-8.6,11.9c-0.1,0.6-0.3,0.3-0.3,0.3s0.1-0.1,0.3-0.3c0.1-0.3,0.1-1,0-2.3c-0.3-3.4-1.7-2.7-2-0.9
	c-0.3,1.9-3.8,3.8-3.8,3.8s0.9-3.5,1.3-6.2s-1.1-4-1.7-1.8c-0.6,2.1-6.4,6.7-5.2,5.5c1.1-1.1,1-11.1,0.1-9.5c-0.8,1.5-5.4,7-5.7,7.3
	c0.1-0.4,2.1-8.5,1.6-15c-0.6-6.7-1.8-3-2.4-1.3s-1.1,17.1-1.6,15.9c-0.4-1.3-1-3.4-1.4-5.8s-0.1-8.8-0.9-8.8
	c-0.7,0-1.8,2.8-2.7,4.4c-0.8,1.6-3,15-3.1,13.6s-1-10.5-1.4-8.5c0,0,0,0.1,0,0.2s-0.1,0.2-0.1,0.3c-0.1,0.1-0.1,0.3-0.2,0.5
	c0,0.1-0.1,0.2-0.1,0.2c-0.3,0.5-0.7,1.1-1.1,1.7c-0.1,0.1-0.1,0.2-0.2,0.3c-0.2,0.3-0.4,0.6-0.7,0.9c-0.1,0.2-0.2,0.3-0.3,0.5
	c-0.4,0.6-0.9,1.2-1.3,1.8c-0.1,0.2-0.2,0.3-0.4,0.5c-0.4,0.5-0.7,0.9-0.9,1.2c0.2-0.2,0.3-0.5,0.4-0.8c0.1-0.1,0.1-0.3,0.2-0.4
	c0.1-0.2,0.1-0.3,0.2-0.5s0.1-0.4,0.2-0.6c0.2-0.6,0.4-1.2,0.5-1.9c-13.4,12.8-35.7,18.9-35.7,18.9c-21.5,2.6-40.4,19.3-40.4,19.3
	c-37.8,2.6-84.9,26.8-84.9,26.8c-25.5-4.5-46.5,13-46.5,13c-50.8,32-25.3,115.9-25.3,115.9c-20.4,86.7,15.9,241.5,15.9,241.5
	s7.9,32.9,53.3,110c36.7,62.4,36.7,70.6,35.3,71.4l348.5,0.6c-2.2-23.1-23.1-80.4-23.4-81.2c1,1,64.9,66.1,100.9,64.6
	c36.3-1.5,67.3-42.3,74.8-54.4c7.6-12.1,36.5-50.8,36.5-50.8c21-16.4,34-40.3,44.8-53.3s64.6-148,64.6-148L754.5,584.5z
	 M539.2,308.1c-1.1-0.1-2-2.4-2-2.4s8.2,0.4,7.4,0c-0.9-0.4-2.3-2.1-2.3-2.1s8.7,2.7,7.7-0.4c-0.1-0.2-0.1-0.4-0.2-0.6
	c-0.7-2.8,0-4.5,0-4.5c4.2,4.1,5.5,2.4,5.5,2.4c0.4-11.9,3.7-13.9,3.7-13.9c-1,7.7,3.4,7.5,3.4,7.5c1-9.5,7.9-13.6,7.9-13.6
	c-2,3-3.5,8.8-3.5,8.8c-1.3,10.5,3.3,14.6,3.3,14.6c-0.3-5.1,2.1-7.5,2.1-7.5c-1.6,7.1,1,20.5,1,20.5c0.3,6.5,2,1.8,2,1.8
	c-0.1-2.5,1.6-4.1,1.6-4.1c-0.6,5.4,1.8,14,1.8,14c0.8,5.5,14.1,16.8,14.1,16.8c-0.5,2.4-5.2,2.7-5.2,2.7
	c-9.6-1-19.8-17.6-19.8-17.6c-2.8-9.5-11.9-12.8-11.9-12.8s-5.9-2.3-14.2-2.3s-10.8-7.2-10.8-7.2S540.4,308.2,539.2,308.1z"/>
<path class="st2" d="M592.7,345.4c-0.5,2.4-5.2,2.7-5.2,2.7c-9.6-1-19.8-17.6-19.8-17.6c-2.8-9.5-11.9-12.8-11.9-12.8
	s-5.9-2.3-14.2-2.3s-10.8-7.2-10.8-7.2s9.6,0,8.5-0.1s-2-2.4-2-2.4s8.2,0.4,7.4,0c-0.9-0.4-2.3-2.1-2.3-2.1s8.7,2.7,7.7-0.4
	c-0.1-0.2-0.1-0.4-0.2-0.6c-0.7-2.8,0-4.5,0-4.5c4.2,4.1,5.5,2.4,5.5,2.4c0.4-11.9,3.7-13.9,3.7-13.9c-1,7.7,3.4,7.5,3.4,7.5
	c1-9.5,7.9-13.6,7.9-13.6c-2,3-3.5,8.8-3.5,8.8c-1.3,10.5,3.3,14.6,3.3,14.6c-0.3-5.1,2.1-7.5,2.1-7.5c-1.6,7.1,1,20.5,1,20.5
	c0.3,6.5,2,1.8,2,1.8c-0.1-2.5,1.6-4.1,1.6-4.1c-0.6,5.4,1.8,14,1.8,14C579.4,334.1,592.7,345.4,592.7,345.4z"/>
<path class="st2" d="M617.3,337c4.6-5.3,8.9-14.6,10.9-19.5c0.5,0.8,0.8,1.9,0.8,3.4c0,0-0.8,3,0.9,0.8c1.7-2.1,0.1,5.1-1.4,6.4
	c0,0-1.7,1.7,1.7,1C633.2,328.6,624.3,335.5,617.3,337z"/>
<path class="st2" d="M634.7,240.5c-3.9,18.9-14.9,33.5-14.9,33.5c-1.9-6.2-11.1-21.9-21.3-27.6c-10.2-5.7-23.8-3.2-32.3,2.4
	c-8.5,5.7-14.7,22.9-15.7,25.9s-18.1,6-18.1,6c-4.2-2.5-26.8-1.7-26.8-1.7s-16.1,1.1-34.4,18c-18.3,16.8-25.2,55-25.2,55
	c-1-5.8-7.6-9.3-7.6-9.3c0.1-3.4-5.2-10.6-5.2-10.6l3.3-0.6c0,0-3.7-3.4-4.4-4c-0.7-0.6,4.7,0,4.7,0s-4.7-3.5-5.1-3.7
	c-0.4-0.1,3.4-1.7,3.4-1.7s-16.7-13.2-15.3-14.2c1.4-1,2-1.8,2-1.8l-4.1-6.4l4.4,0.9l-5.7-7.7l3.7,0.3l-6.1-7.9l3,0.3
	c0,0-6-6.1-4.8-5.7c1.1,0.4,2.4-1.3,2.4-1.3l-8.2-6.8c-25.7-4.8-28.9,40.3-28.9,40.3c-1.4,11.3,9.6,31.3,9.6,31.3s4,3.8,2.1,10.5
	c-1.6,5.8-7.2,10.8-8.6,11.9c0.1-0.3,0.1-1,0-2.3c-0.3-3.4-1.7-2.7-2-0.9c-0.3,1.9-3.8,3.8-3.8,3.8s0.9-3.5,1.3-6.2s-1.1-4-1.7-1.8
	c-0.6,2.1-6.4,6.7-5.2,5.5c1.1-1.1,1-11.1,0.1-9.5c-0.8,1.5-5.4,7-5.7,7.3c0.1-0.4,2.1-8.5,1.6-15c-0.6-6.7-1.8-3-2.4-1.3
	s-1.1,17.1-1.6,15.9c-0.4-1.3-1-3.4-1.4-5.8s-0.1-8.8-0.9-8.8c-0.7,0-1.8,2.8-2.7,4.4c-0.8,1.6-3,15-3.1,13.6s-1-10.5-1.4-8.5
	c0,0,0,0.1,0,0.2s-0.1,0.2-0.1,0.3c-0.1,0.1-0.1,0.3-0.2,0.5c0,0.1-0.1,0.2-0.1,0.2c-0.3,0.5-0.7,1.1-1.1,1.7
	c-0.1,0.1-0.1,0.2-0.2,0.3c-0.2,0.3-0.4,0.6-0.7,0.9c-0.1,0.2-0.2,0.3-0.3,0.5c-0.4,0.6-0.9,1.2-1.3,1.8c-0.1,0.2-0.2,0.3-0.4,0.5
	c-0.4,0.5-0.7,0.9-0.9,1.2c0.2-0.2,0.3-0.5,0.4-0.8c0.1-0.1,0.1-0.3,0.2-0.4c0.1-0.2,0.1-0.3,0.2-0.5s0.1-0.4,0.2-0.6
	c0.2-0.6,0.4-1.2,0.5-1.9c0.9-3.5,1.3-7.3,0.6-6.1c-1.1,1.8-11.2,5.8-9.2,4.5s7.1-9.6,6.2-8.6s-6.5,1.6-5,1.1
	c1.6-0.4,8.6-13.5,7.4-12.2c-1.3,1.3-4.2,1.9-4.2,1.9s11.3-17.9,8.5-15.7c-2.7,2.1-7.8,4-8.1,4.1c5.8-3.1,6.2-14.6,7.5-20.5
	c1.3-6-4.8-40-13.9-58.8c-9.1-18.9-14.2-46.3-13.9-45.9c0.3,0.4,2.7,0.3,2.7,0.3c-1.9-2.3-5.1-14-3.8-12.8c1.3,1.3,2.4-0.3,2.4-0.3
	c-2.5-3-6.2-16.4-4.4-15c1.8,1.4,4.2,0.8,4.2,0.8c-3.4-3.8-6.4-22-4.4-18.7s4.5,3.3,4.5,3.3c-3.6-4.9-6.1-16.6-6.5-18.9
	c0.6,3.1,5.9,5,5.9,5c-5.5-5.4-6.9-22.2-6.9-22.2c1.6,4.8,8.5,8.1,8.5,8.1c-3.3-4.2-6.5-20.4-6.5-20.4c4.4,6.7,7.7,6.1,7.7,6.1
	c-6.1-7.7-8.9-24.5-7.7-21.5c1.3,3,8.2,8.4,8.2,8.4c-4.4-9.8-6-31-6-31c2.6,9.2,14.7,19.4,14.7,19.4c-4.8-6.8-8.1-25.1-8.1-25.1
	c2.9,5.2,6.3,7.5,6.5,7.6c-5.1-8.1-6.2-28.8-6.2-28.8c3,9.1,12.9,19.4,12.9,19.4c-3.4-5.2-6.8-23.4-6.8-23.4
	c5.9,15.9,24.5,36.1,25.1,36.7c-4.7-6.3-9.6-36.3-9.6-36.3c4.5,11.9,14.9,20.1,14.9,20.1c-2.8-5.5-2.1-16-2.1-16
	c5,18.1,18.6,30.5,18.6,30.5c-3.4-4.8-5.4-17-5.4-17c7.5,15.5,21.7,21.1,22.1,21.2c-3.1-3.6-4.4-13.8-4.5-14.4
	c4.3,9.9,14.9,15.4,14.9,15.4c-3.9-6.5-6.3-21.1-6.5-22.4c2.6,12,22.6,28.6,23.2,29.1C419.9,82.3,422,73,422,73
	c3,11.2,13.8,14.7,13.8,14.7c-4.2-4.5-3.4-12.5-3.4-12.5c4.5,5.4,21.5,14.8,21.5,14.8s49.1,23.4,96,43.1
	c46.9,19.6,70.7,50.3,70.7,50.3s15.1,17.4,15.9,42.7C636.2,231,635.7,235.9,634.7,240.5z"/>
<path class="st4" d="M318.1,142.4C318.1,142.1,318.1,142,318.1,142.4L318.1,142.4z"/>
<path class="st4" d="M380.3,365.8c-0.1,0.6-0.3,0.3-0.3,0.3S380,366,380.3,365.8z"/>
</svg>
