<?xml version="1.0" encoding="utf-8"?>
<!-- Generator: Adobe Illustrator 27.1.1, SVG Export Plug-In . SVG Version: 6.00 Build 0)  -->
<svg version="1.1" xmlns="http://www.w3.org/2000/svg" xmlns:xlink="http://www.w3.org/1999/xlink" x="0px" y="0px"
	 viewBox="0 0 1000 1000" style="enable-background:new 0 0 1000 1000;" xml:space="preserve">
<style type="text/css">
	.st0{display:none;}
	.st1{fill:#D0D0D0;}
</style>
<g id="Calque_1" class="st0">
	
		<image style="display:inline;overflow:visible;" width="1920" height="1080" xlink:href="../2019_12_the-elder-scrolls-v-skyrim-2020-hd-wallpapers.png"  transform="matrix(2.1147 0 0 2.1147 -1507.5591 -607.6536)">
	</image>
</g>
<g id="Calque_2">
	<path class="st1" d="M457.3,78L304.3,425.9l150.5,358.9l0.4-133.4c0,0-1.1-8.7-7.6-9.1c-6.4-0.4-33.3-20.4-34-35.9
		c-0.8-15.5,4.2-86.6,4.2-86.6s36.3,9.1,39.3,51l0.7,4.2l1.7-43.6c0,0,50.1,10.1,54.6,105.9c0,0,2.7,14.7-8.6,31.4
		c-11.3,16.6-23.1,42-23.1,42s-4.9,6.8,3.4,23.1c8.3,16.3,8.3,23.1,8.3,23.1s3.8,7.2-1.3,16.1c-5.1,8.9-19.3,24.2-20,29.3
		c-0.8,5.1-3.6,12.5,2.3,27c5.9,14.6,37.2,88.6,37.2,88.6l31.7-78.4c0,0,8.5-21.2-11.9-9.4c-20.4,11.7-31.2,19.1-42.7,4
		s-1.5-31.6-1.5-31.6s17.2-18.1,18.3-30c1.1-11.9,3.2-17.6,0.6-28.9c-2.6-11.3-7.9-22.7-2.5-34.4s35-58.8,35-58.8s4.3-15.9,2.1-32.1
		c-2.3-16.3-0.9-91.8,24.9-89l-2,40.8c0,0,24.1-43.4,40.8-48.5c0,0,6.5,40.3,6.5,80.2c0,0-4.8,13.6-19.3,22.7
		c-14.5,9.1-23.5,27.2-23.5,27.2l-0.9,61.8c0,0,24.7,5.4,38.6-19.8C620.3,668.2,711,441.2,711,441.2s5.9-9.3-2.6-32.3
		c-8.5-23.1-132.3-312.4-132.3-312.4L568.5,84l-9.8,41.8c0,0,10.4-5.7,13.4,5.1c3,10.8,36.6,149.6,36.6,149.6s5.2,26.2,0.7,31.5
		c-4.5,5.3-16.1,18-16.1,18s-5.9,12.7,3.4,8.3c9.3-4.3,20.8-12.5,24.6,1.1c3.8,13.6,17.2,72.8,17.2,72.8s6.4,20.8-16.6,26.5
		s-36.3-3.4-36.3-3.4s-7.9-6.8-1.9-14.7s15.9-16.6,15.9-16.6s-15.8-3.1-36.8,21.8c0,0-6.4,2.1-3.1-6.5c3.3-8.6,0.1-8.2,0.1-8.2
		l-19,22.5c0,0-1.6,1.9-15-23c0,0-7.7-10-22.9-27.2c-15.1-17.2,0.8-33.1,0.8-33.1s15.5-13.4,26.8-18.1c11.3-4.7,24-14.9,26.6-19.8
		c2.6-4.9,12.5-11.9,6.4-39.3c-6-27.4-44.2-37.4-44.2-37.4s9.8-9.3,20.2-14.7c10.4-5.5,11.3-19.3,11.3-19.3l-9.4,9.3l-38.2,2.1
		c0,0-13.4-8.7-14.6-25.5c-1.1-16.8,2.1-30.2,2.1-30.2s-11.7,2.8-9.4,56.9c0,0,0.4,9.1-4.9,11.3s-5.9,18.5-11.1,38.6
		c-5.3,20,6.4,28.5,6.4,28.5s-1.5-12.1,4.9-18.7c6.4-6.6,20-30.8,38.2-25.5c18.1,5.3,33.6,21.9,33.6,21.9s16.8,27.2-13.8,42.1
		c-30.6,14.9-37.4,12.9-51.3,25c-13.9,12.2-13.6,24.9-13.6,24.9s-2.8,23.5,12.8,53.9c0,0,6.5,26.6-6.5,8.8
		c-13-17.9-17.6-12.8-17.6-12.8s9.1,8.2,6.8,19.6c0,0-30.7-38.5-41.8-29.6c0,0-0.1,0.1-0.1,0.1c0,0,25.4,18.3,15.4,31
		s-40.6,6.1-40.6,6.1s-21.7-4.9-14.2-31.9s17.4-68.2,17.4-68.2s20.8-17.6,35.1,12.7c0,0,9.1-14-18.7-34c0,0-4.5-6.4-1.9-25.3
		c2.6-18.9,32.9-160.3,32.9-160.3s7.4-16.6,18.5,2.6c0,0,3.2-7-7-20.4L457.3,78z"/>
</g>
</svg>
