<?xml version="1.0" encoding="utf-8"?>
<!-- Generator: Adobe Illustrator 27.4.1, SVG Export Plug-In . SVG Version: 6.00 Build 0)  -->
<svg version="1.1" id="Calque_1" xmlns="http://www.w3.org/2000/svg" xmlns:xlink="http://www.w3.org/1999/xlink" x="0px" y="0px"
	 viewBox="0 0 1000 1000" style="enable-background:new 0 0 1000 1000;" xml:space="preserve">
<style type="text/css">
	.st0{display:none;}
	.st1{fill:#1E201F;}
</style>
<g id="Calque_1_00000165197420310055668310000003910504063923453362_" class="st0">
</g>
<polygon class="st1" points="451.2,411.6 518.1,492.1 587.3,409.3 520.4,326.5 "/>
<path class="st1" d="M348.9,199.8l73.7,29.5l95.2-83.9l102,90.7l62.4-32.9l12.5,95.2l77.1,85c0,0-93,45.4-70.3,108.9
	c0,0,17.8,30.2,78.6-14.4c0,0-28,51.4-58.2,107.3c0,0-37.4-48.4-70.3-21.5s-64.6,63.5-65.8,110c-1.1,46.5,15.9,56.4,15.9,56.4
	s14.2,7.1,37.1-6.8c0,0,5.4,0-1.4,12.2c-6.2,11.1-57.7,112.9-66.7,130.6c-0.8,1.6-2.5,2.6-4.3,2.6H562c-3,0-5.6-2.4-5.7-5.4
	c-0.5-9.5-1.7-29.8-3.4-47.3c-2.3-23.8-0.6-129.3-0.6-129.3s1.7-2,3.7-12.5s10.8-57,34.3-77.7s48.5-87.9,48.5-87.9
	s23-62.9,13.3-100.3c-9.6-37.4-19.8-64.6-64.6-91.3c0,0-39.1-26.1-54.4-31.7c-15.3-5.7-52.7,4-76.5,24.9
	c-23.8,21-89,64.6-70.9,164.4c0,0,26.6,83.3,59.5,117.9c32.9,34.6,35.1,92.4,35.1,92.4l3.4,99.2c0,0-1.1,43.7-4.5,54.4
	c-3.4,10.8,0.6,29.5,0.6,29.5s-2.8,13-10.2,2.3c-7.4-10.8-7.4-10.8-7.4-10.8l-62.4-125.9c0,0-3.4-4.5,4.5-4.5s30.6,0.6,30.6,0.6
	s5.7,1.1,6.8-9.1c1.1-10.2,6.8-51,3.4-66.3s-17-74.8-62.4-90.1s-61.2,34-61.2,34l-79.9-123.6c0,0,38,26.1,68,26.6
	c30,0.6,31.2-18.1,31.2-18.1s-6.8-78.8-74.3-93.5l77.7-90.7L348.9,199.8z"/>
</svg>
